<mxfile host="65bd71144e" pages="3">
    <diagram name="Limb-general" id="8dA8xwCafgQOyBRF9iQ8">
        <mxGraphModel dx="4114" dy="2287" grid="1" gridSize="10" guides="1" tooltips="1" connect="1" arrows="1" fold="1" page="1" pageScale="1" pageWidth="850" pageHeight="1100" math="0" shadow="0">
            <root>
                <mxCell id="0"/>
                <mxCell id="1" parent="0"/>
                <mxCell id="immnGuLkPZDIyRjEmBH5-1" value="" style="rounded=0;whiteSpace=wrap;html=1;movable=0;resizable=0;rotatable=0;deletable=0;editable=0;locked=1;connectable=0;" parent="1" vertex="1">
                    <mxGeometry x="-2090" y="-720" width="1700" height="440" as="geometry"/>
                </mxCell>
                <mxCell id="immnGuLkPZDIyRjEmBH5-3" value="" style="rounded=0;whiteSpace=wrap;html=1;movable=1;resizable=1;rotatable=1;deletable=1;editable=1;locked=0;connectable=1;" parent="1" vertex="1">
                    <mxGeometry x="-2080" y="-650" width="500" height="300" as="geometry"/>
                </mxCell>
                <mxCell id="jG70ef_n0GU83-9JPsaq-10" value="" style="rounded=0;whiteSpace=wrap;html=1;movable=0;resizable=0;rotatable=0;deletable=0;editable=0;locked=1;connectable=0;" parent="1" vertex="1">
                    <mxGeometry x="230" y="-420" width="940" height="1260" as="geometry"/>
                </mxCell>
                <mxCell id="yQJbbO6t7TMH2AqlpUm4-7" value="" style="rounded=0;whiteSpace=wrap;html=1;movable=0;resizable=0;rotatable=0;deletable=0;editable=0;locked=1;connectable=0;" parent="1" vertex="1">
                    <mxGeometry x="1170" y="-420" width="340" height="1260" as="geometry"/>
                </mxCell>
                <mxCell id="yQJbbO6t7TMH2AqlpUm4-5" value="" style="rounded=0;whiteSpace=wrap;html=1;movable=0;resizable=0;rotatable=0;deletable=0;editable=0;locked=1;connectable=0;" parent="1" vertex="1">
                    <mxGeometry x="-2480" y="-790" width="360" height="1330" as="geometry"/>
                </mxCell>
                <mxCell id="yQJbbO6t7TMH2AqlpUm4-2" value="" style="rounded=0;whiteSpace=wrap;html=1;movable=0;resizable=0;rotatable=0;deletable=0;editable=0;locked=1;connectable=0;" parent="1" vertex="1">
                    <mxGeometry x="-1200" y="869.97" width="2260" height="570" as="geometry"/>
                </mxCell>
                <mxCell id="pj88vWC6h57OP6Q8nHjn-175" value="" style="rounded=0;whiteSpace=wrap;html=1;movable=0;resizable=0;rotatable=0;deletable=0;editable=0;locked=1;connectable=0;" parent="1" vertex="1">
                    <mxGeometry x="-2480" y="-270" width="1180" height="310" as="geometry"/>
                </mxCell>
                <mxCell id="pj88vWC6h57OP6Q8nHjn-1" value="&lt;font style=&quot;font-size: 12px;&quot;&gt;limb_n_1/&lt;span style=&quot;text-wrap: nowrap; background-color: rgb(255, 255, 255);&quot;&gt;camera_1&lt;/span&gt;/usb_cam_node&lt;/font&gt;" style="ellipse;whiteSpace=wrap;html=1;" parent="1" vertex="1">
                    <mxGeometry x="628.75" y="1009.97" width="263.75" height="30" as="geometry"/>
                </mxCell>
                <mxCell id="pj88vWC6h57OP6Q8nHjn-2" value="limb_n_1/connector/connector_node" style="ellipse;whiteSpace=wrap;html=1;" parent="1" vertex="1">
                    <mxGeometry x="516.25" y="10" width="233.75" height="30" as="geometry"/>
                </mxCell>
                <mxCell id="pj88vWC6h57OP6Q8nHjn-6" value="limb_n_1/joint_node" style="ellipse;whiteSpace=wrap;html=1;" parent="1" vertex="1">
                    <mxGeometry x="530" y="-220" width="200" height="30" as="geometry"/>
                </mxCell>
                <mxCell id="pj88vWC6h57OP6Q8nHjn-10" value="&lt;div&gt;&lt;font style=&quot;font-size: 12px;&quot;&gt;&lt;span style=&quot;background-color: initial;&quot;&gt;limb_n_1/&lt;/span&gt;&lt;span style=&quot;background-color: rgb(255, 255, 255); text-wrap: nowrap;&quot;&gt;camera_1&lt;/span&gt;&lt;span style=&quot;background-color: initial;&quot;&gt;/&lt;/span&gt;&lt;span style=&quot;background-color: initial;&quot;&gt;image_rectify_node&lt;/span&gt;&lt;/font&gt;&lt;/div&gt;" style="ellipse;whiteSpace=wrap;html=1;strokeColor=default;align=center;verticalAlign=middle;fontFamily=Helvetica;fontSize=12;fontColor=default;fillColor=default;" parent="1" vertex="1">
                    <mxGeometry x="30" y="1039.97" width="300" height="30" as="geometry"/>
                </mxCell>
                <mxCell id="pj88vWC6h57OP6Q8nHjn-13" value="limb_n_1/dymixel_handler" style="ellipse;whiteSpace=wrap;html=1;" parent="1" vertex="1">
                    <mxGeometry x="1280" y="130" width="180" height="30" as="geometry"/>
                </mxCell>
                <mxCell id="pj88vWC6h57OP6Q8nHjn-14" value="&lt;span style=&quot;background-color: initial;&quot;&gt;limb_n_1/connector/&lt;/span&gt;&lt;span style=&quot;background-color: initial;&quot;&gt;error_detector_node&lt;/span&gt;" style="ellipse;whiteSpace=wrap;html=1;strokeColor=default;align=center;verticalAlign=middle;fontFamily=Helvetica;fontSize=12;fontColor=default;fillColor=default;" parent="1" vertex="1">
                    <mxGeometry x="530" y="190" width="260" height="30" as="geometry"/>
                </mxCell>
                <mxCell id="pj88vWC6h57OP6Q8nHjn-15" value="&lt;font style=&quot;font-size: 12px;&quot;&gt;limb_n_1/&lt;span style=&quot;text-wrap: nowrap; background-color: rgb(255, 255, 255);&quot;&gt;camera_2&lt;/span&gt;/usb_cam_node&lt;/font&gt;" style="ellipse;whiteSpace=wrap;html=1;" parent="1" vertex="1">
                    <mxGeometry x="633.75" y="1129.97" width="256.25" height="30" as="geometry"/>
                </mxCell>
                <mxCell id="pj88vWC6h57OP6Q8nHjn-17" value="&lt;div&gt;&lt;font style=&quot;font-size: 12px;&quot;&gt;&lt;span style=&quot;background-color: initial;&quot;&gt;limb_n_1/&lt;/span&gt;&lt;span style=&quot;background-color: rgb(255, 255, 255); text-wrap: nowrap;&quot;&gt;camera_2&lt;/span&gt;&lt;span style=&quot;background-color: initial;&quot;&gt;/&lt;/span&gt;&lt;span style=&quot;background-color: initial;&quot;&gt;image_rectify_node&lt;/span&gt;&lt;/font&gt;&lt;/div&gt;" style="ellipse;whiteSpace=wrap;html=1;strokeColor=default;align=center;verticalAlign=middle;fontFamily=Helvetica;fontSize=12;fontColor=default;fillColor=default;" parent="1" vertex="1">
                    <mxGeometry x="40" y="1159.97" width="280" height="30" as="geometry"/>
                </mxCell>
                <mxCell id="pj88vWC6h57OP6Q8nHjn-21" value="&lt;div&gt;&lt;font style=&quot;font-size: 12px;&quot;&gt;&lt;span style=&quot;background-color: initial;&quot;&gt;limb_n_1/&lt;/span&gt;&lt;span style=&quot;background-color: rgb(255, 255, 255); text-wrap: nowrap;&quot;&gt;camera_2&lt;/span&gt;&lt;span style=&quot;background-color: initial;&quot;&gt;/a&lt;/span&gt;&lt;span style=&quot;background-color: initial;&quot;&gt;r_detector_node&lt;/span&gt;&lt;/font&gt;&lt;/div&gt;" style="ellipse;whiteSpace=wrap;html=1;strokeColor=default;align=center;verticalAlign=middle;fontFamily=Helvetica;fontSize=12;fontColor=default;fillColor=default;" parent="1" vertex="1">
                    <mxGeometry x="-560" y="1169.97" width="280" height="30" as="geometry"/>
                </mxCell>
                <mxCell id="pj88vWC6h57OP6Q8nHjn-22" value="&lt;div&gt;&lt;font style=&quot;font-size: 12px;&quot;&gt;&lt;span style=&quot;background-color: initial;&quot;&gt;limb_n_1/&lt;/span&gt;&lt;span style=&quot;background-color: rgb(255, 255, 255); text-wrap: nowrap;&quot;&gt;camera_1&lt;/span&gt;&lt;span style=&quot;background-color: initial;&quot;&gt;/a&lt;/span&gt;&lt;span style=&quot;background-color: initial;&quot;&gt;r_detector_node&lt;/span&gt;&lt;/font&gt;&lt;/div&gt;" style="ellipse;whiteSpace=wrap;html=1;strokeColor=default;align=center;verticalAlign=middle;fontFamily=Helvetica;fontSize=12;fontColor=default;fillColor=default;" parent="1" vertex="1">
                    <mxGeometry x="-560" y="1039.97" width="280" height="30" as="geometry"/>
                </mxCell>
                <mxCell id="pj88vWC6h57OP6Q8nHjn-24" value="limb_n_1/&lt;span style=&quot;text-wrap: nowrap; background-color: rgb(255, 255, 255);&quot;&gt;camera_1&lt;/span&gt;/led_control_node" style="ellipse;whiteSpace=wrap;html=1;" parent="1" vertex="1">
                    <mxGeometry x="537.5" y="1339.97" width="302.5" height="30" as="geometry"/>
                </mxCell>
                <mxCell id="pj88vWC6h57OP6Q8nHjn-25" value="limb_n_1/&lt;span style=&quot;text-wrap: nowrap; background-color: rgb(255, 255, 255);&quot;&gt;camera_1&lt;/span&gt;/led_control_node" style="ellipse;whiteSpace=wrap;html=1;" parent="1" vertex="1">
                    <mxGeometry x="537.5" y="1269.97" width="312.5" height="30" as="geometry"/>
                </mxCell>
                <mxCell id="pj88vWC6h57OP6Q8nHjn-30" value="" style="curved=1;endArrow=classic;html=1;rounded=0;exitX=0;exitY=0.5;exitDx=0;exitDy=0;entryX=1;entryY=0;entryDx=0;entryDy=0;" parent="1" source="pj88vWC6h57OP6Q8nHjn-1" target="pj88vWC6h57OP6Q8nHjn-10" edge="1">
                    <mxGeometry width="50" height="50" relative="1" as="geometry">
                        <mxPoint x="490" y="819.97" as="sourcePoint"/>
                        <mxPoint x="270" y="1029.97" as="targetPoint"/>
                        <Array as="points">
                            <mxPoint x="420" y="949.97"/>
                            <mxPoint x="310" y="979.97"/>
                        </Array>
                    </mxGeometry>
                </mxCell>
                <mxCell id="pj88vWC6h57OP6Q8nHjn-31" value="&lt;font style=&quot;font-size: 11px;&quot;&gt;&lt;span style=&quot;text-wrap: wrap; background-color: rgb(251, 251, 251);&quot;&gt;limb_n_1&lt;/span&gt;/camera_1/out/color/image_raw&lt;/font&gt;&lt;div&gt;sensor_msgs/msg/Image&lt;br&gt;&lt;/div&gt;" style="edgeLabel;html=1;align=center;verticalAlign=middle;resizable=0;points=[];" parent="pj88vWC6h57OP6Q8nHjn-30" vertex="1" connectable="0">
                    <mxGeometry x="-0.1633" y="12" relative="1" as="geometry">
                        <mxPoint x="-31" y="8" as="offset"/>
                    </mxGeometry>
                </mxCell>
                <mxCell id="pj88vWC6h57OP6Q8nHjn-34" value="" style="curved=1;endArrow=classic;html=1;rounded=0;entryX=1;entryY=0;entryDx=0;entryDy=0;exitX=0;exitY=0;exitDx=0;exitDy=0;" parent="1" source="pj88vWC6h57OP6Q8nHjn-15" target="pj88vWC6h57OP6Q8nHjn-17" edge="1">
                    <mxGeometry width="50" height="50" relative="1" as="geometry">
                        <mxPoint x="540" y="969.97" as="sourcePoint"/>
                        <mxPoint x="193" y="1059.97" as="targetPoint"/>
                        <Array as="points">
                            <mxPoint x="470" y="1099.97"/>
                            <mxPoint x="360" y="1089.97"/>
                        </Array>
                    </mxGeometry>
                </mxCell>
                <mxCell id="pj88vWC6h57OP6Q8nHjn-35" value="&lt;font style=&quot;font-size: 11px;&quot;&gt;&lt;span style=&quot;text-wrap: wrap; background-color: rgb(251, 251, 251);&quot;&gt;limb_n_1&lt;/span&gt;/camera_2/out/color/image_raw&lt;/font&gt;&lt;div&gt;sensor_msgs/msg/Image&lt;br&gt;&lt;/div&gt;" style="edgeLabel;html=1;align=center;verticalAlign=middle;resizable=0;points=[];" parent="pj88vWC6h57OP6Q8nHjn-34" vertex="1" connectable="0">
                    <mxGeometry x="-0.1633" y="12" relative="1" as="geometry">
                        <mxPoint x="-31" y="8" as="offset"/>
                    </mxGeometry>
                </mxCell>
                <mxCell id="pj88vWC6h57OP6Q8nHjn-36" value="" style="curved=1;endArrow=classic;html=1;rounded=0;exitX=0;exitY=0.5;exitDx=0;exitDy=0;entryX=1;entryY=0.5;entryDx=0;entryDy=0;" parent="1" source="pj88vWC6h57OP6Q8nHjn-1" target="pj88vWC6h57OP6Q8nHjn-10" edge="1">
                    <mxGeometry width="50" height="50" relative="1" as="geometry">
                        <mxPoint x="510" y="824.97" as="sourcePoint"/>
                        <mxPoint x="183" y="969.97" as="targetPoint"/>
                        <Array as="points">
                            <mxPoint x="440" y="1024.97"/>
                            <mxPoint x="360" y="1040"/>
                        </Array>
                    </mxGeometry>
                </mxCell>
                <mxCell id="pj88vWC6h57OP6Q8nHjn-37" value="&lt;font style=&quot;font-size: 11px;&quot;&gt;&lt;span style=&quot;text-wrap: wrap; background-color: rgb(251, 251, 251);&quot;&gt;limb_n_1&lt;/span&gt;/camera_1/out/color/camera_info&lt;/font&gt;&lt;div&gt;sensor_msgs/msg/CameraInfo&lt;br&gt;&lt;/div&gt;" style="edgeLabel;html=1;align=center;verticalAlign=middle;resizable=0;points=[];" parent="pj88vWC6h57OP6Q8nHjn-36" vertex="1" connectable="0">
                    <mxGeometry x="-0.1633" y="12" relative="1" as="geometry">
                        <mxPoint x="-22" y="3" as="offset"/>
                    </mxGeometry>
                </mxCell>
                <mxCell id="pj88vWC6h57OP6Q8nHjn-38" value="" style="curved=1;endArrow=classic;html=1;rounded=0;entryX=1;entryY=0.5;entryDx=0;entryDy=0;exitX=0;exitY=0.5;exitDx=0;exitDy=0;" parent="1" source="pj88vWC6h57OP6Q8nHjn-15" target="pj88vWC6h57OP6Q8nHjn-17" edge="1">
                    <mxGeometry width="50" height="50" relative="1" as="geometry">
                        <mxPoint x="550" y="1074.97" as="sourcePoint"/>
                        <mxPoint x="280" y="1169.97" as="targetPoint"/>
                        <Array as="points">
                            <mxPoint x="480" y="1189.97"/>
                            <mxPoint x="360" y="1189.97"/>
                        </Array>
                    </mxGeometry>
                </mxCell>
                <mxCell id="pj88vWC6h57OP6Q8nHjn-39" value="&lt;font style=&quot;font-size: 11px;&quot;&gt;&lt;span style=&quot;text-wrap: wrap; background-color: rgb(251, 251, 251);&quot;&gt;limb_n_1&lt;/span&gt;/camera_2/out/color/camera_info&lt;/font&gt;&lt;div&gt;sensor_msgs/msg/CameraInfo&lt;br&gt;&lt;/div&gt;" style="edgeLabel;html=1;align=center;verticalAlign=middle;resizable=0;points=[];" parent="pj88vWC6h57OP6Q8nHjn-38" vertex="1" connectable="0">
                    <mxGeometry x="-0.1633" y="12" relative="1" as="geometry">
                        <mxPoint x="-38" y="-17" as="offset"/>
                    </mxGeometry>
                </mxCell>
                <mxCell id="pj88vWC6h57OP6Q8nHjn-45" value="" style="curved=1;endArrow=classic;html=1;rounded=0;exitX=0;exitY=0.5;exitDx=0;exitDy=0;entryX=1;entryY=0.5;entryDx=0;entryDy=0;" parent="1" source="pj88vWC6h57OP6Q8nHjn-10" target="pj88vWC6h57OP6Q8nHjn-22" edge="1">
                    <mxGeometry width="50" height="50" relative="1" as="geometry">
                        <mxPoint x="10" y="1064.97" as="sourcePoint"/>
                        <mxPoint x="-250" y="1264.97" as="targetPoint"/>
                        <Array as="points">
                            <mxPoint x="-70" y="1009.97"/>
                            <mxPoint x="-210" y="1029.97"/>
                        </Array>
                    </mxGeometry>
                </mxCell>
                <mxCell id="pj88vWC6h57OP6Q8nHjn-46" value="&lt;font style=&quot;font-size: 11px;&quot;&gt;&lt;span style=&quot;text-wrap: wrap; background-color: rgb(251, 251, 251);&quot;&gt;limb_n_1&lt;/span&gt;/camera_1/out/color/image_rect&lt;/font&gt;&lt;div&gt;sensor_msgs/msg/Image&lt;br&gt;&lt;/div&gt;" style="edgeLabel;html=1;align=center;verticalAlign=middle;resizable=0;points=[];" parent="pj88vWC6h57OP6Q8nHjn-45" vertex="1" connectable="0">
                    <mxGeometry x="-0.1633" y="12" relative="1" as="geometry">
                        <mxPoint x="-31" y="8" as="offset"/>
                    </mxGeometry>
                </mxCell>
                <mxCell id="pj88vWC6h57OP6Q8nHjn-47" value="" style="curved=1;endArrow=classic;html=1;rounded=0;exitX=0;exitY=0.5;exitDx=0;exitDy=0;entryX=1;entryY=0.5;entryDx=0;entryDy=0;" parent="1" source="pj88vWC6h57OP6Q8nHjn-17" target="pj88vWC6h57OP6Q8nHjn-21" edge="1">
                    <mxGeometry width="50" height="50" relative="1" as="geometry">
                        <mxPoint y="1184.97" as="sourcePoint"/>
                        <mxPoint x="-290" y="1184.97" as="targetPoint"/>
                        <Array as="points">
                            <mxPoint x="-80" y="1129.97"/>
                            <mxPoint x="-240" y="1149.97"/>
                        </Array>
                    </mxGeometry>
                </mxCell>
                <mxCell id="pj88vWC6h57OP6Q8nHjn-48" value="&lt;font style=&quot;font-size: 11px;&quot;&gt;&lt;span style=&quot;text-wrap: wrap; background-color: rgb(251, 251, 251);&quot;&gt;limb_n_1&lt;/span&gt;/camera_2/out/color/image_rect&lt;/font&gt;&lt;div&gt;sensor_msgs/msg/Image&lt;br&gt;&lt;/div&gt;" style="edgeLabel;html=1;align=center;verticalAlign=middle;resizable=0;points=[];" parent="pj88vWC6h57OP6Q8nHjn-47" vertex="1" connectable="0">
                    <mxGeometry x="-0.1633" y="12" relative="1" as="geometry">
                        <mxPoint x="-31" y="8" as="offset"/>
                    </mxGeometry>
                </mxCell>
                <mxCell id="pj88vWC6h57OP6Q8nHjn-49" value="" style="curved=1;endArrow=classic;html=1;rounded=0;entryX=1;entryY=1;entryDx=0;entryDy=0;exitX=0;exitY=1;exitDx=0;exitDy=0;" parent="1" source="pj88vWC6h57OP6Q8nHjn-17" target="pj88vWC6h57OP6Q8nHjn-21" edge="1">
                    <mxGeometry width="50" height="50" relative="1" as="geometry">
                        <mxPoint x="-12" y="1149.97" as="sourcePoint"/>
                        <mxPoint x="-280" y="1349.97" as="targetPoint"/>
                        <Array as="points">
                            <mxPoint x="-70" y="1219.97"/>
                        </Array>
                    </mxGeometry>
                </mxCell>
                <mxCell id="pj88vWC6h57OP6Q8nHjn-50" value="&lt;font style=&quot;font-size: 11px;&quot;&gt;&lt;span style=&quot;text-wrap: wrap; background-color: rgb(251, 251, 251);&quot;&gt;limb_n_1&lt;/span&gt;/camera_2/out/color/camera_info_rect&lt;/font&gt;&lt;div&gt;sensor_msgs/msg/CameraInfo&lt;br&gt;&lt;/div&gt;" style="edgeLabel;html=1;align=center;verticalAlign=middle;resizable=0;points=[];" parent="pj88vWC6h57OP6Q8nHjn-49" vertex="1" connectable="0">
                    <mxGeometry x="-0.1633" y="12" relative="1" as="geometry">
                        <mxPoint x="-46" y="-18" as="offset"/>
                    </mxGeometry>
                </mxCell>
                <mxCell id="pj88vWC6h57OP6Q8nHjn-51" value="" style="curved=1;endArrow=classic;html=1;rounded=0;entryX=1;entryY=1;entryDx=0;entryDy=0;exitX=0;exitY=0.5;exitDx=0;exitDy=0;" parent="1" source="pj88vWC6h57OP6Q8nHjn-10" target="pj88vWC6h57OP6Q8nHjn-22" edge="1">
                    <mxGeometry width="50" height="50" relative="1" as="geometry">
                        <mxPoint x="62" y="1068.97" as="sourcePoint"/>
                        <mxPoint x="-340" y="1064.97" as="targetPoint"/>
                        <Array as="points">
                            <mxPoint x="-200" y="1119.97"/>
                        </Array>
                    </mxGeometry>
                </mxCell>
                <mxCell id="pj88vWC6h57OP6Q8nHjn-52" value="&lt;font style=&quot;font-size: 11px;&quot;&gt;&lt;span style=&quot;text-wrap: wrap; background-color: rgb(251, 251, 251);&quot;&gt;limb_n_1&lt;/span&gt;/camera_1/out/color/camera_info_rect&lt;/font&gt;&lt;div&gt;sensor_msgs/msg/CameraInfo&lt;br&gt;&lt;/div&gt;" style="edgeLabel;html=1;align=center;verticalAlign=middle;resizable=0;points=[];" parent="pj88vWC6h57OP6Q8nHjn-51" vertex="1" connectable="0">
                    <mxGeometry x="-0.1633" y="12" relative="1" as="geometry">
                        <mxPoint x="-26" y="-22" as="offset"/>
                    </mxGeometry>
                </mxCell>
                <mxCell id="pj88vWC6h57OP6Q8nHjn-53" value="${leader_name}/connection_server_node" style="ellipse;whiteSpace=wrap;html=1;dashed=1" parent="1" vertex="1">
                    <mxGeometry x="-210" y="-120" width="300" height="30" as="geometry"/>
                </mxCell>
                <mxCell id="pj88vWC6h57OP6Q8nHjn-54" value="" style="curved=1;endArrow=classic;html=1;rounded=0;exitX=0;exitY=1;exitDx=0;exitDy=0;entryX=1;entryY=0.5;entryDx=0;entryDy=0;" parent="1" source="pj88vWC6h57OP6Q8nHjn-13" target="pj88vWC6h57OP6Q8nHjn-14" edge="1">
                    <mxGeometry width="50" height="50" relative="1" as="geometry">
                        <mxPoint x="516.2518779659805" y="39.99629110161146" as="sourcePoint"/>
                        <mxPoint x="576.25" y="150" as="targetPoint"/>
                        <Array as="points">
                            <mxPoint x="1010" y="160"/>
                        </Array>
                    </mxGeometry>
                </mxCell>
                <mxCell id="pj88vWC6h57OP6Q8nHjn-57" value="" style="curved=1;dashed=1;dashPattern=1 3;strokeWidth=2;endArrow=classic;startArrow=classic;html=1;rounded=0;entryX=1;entryY=1;entryDx=0;entryDy=0;exitX=1;exitY=0;exitDx=0;exitDy=0;" parent="1" source="pj88vWC6h57OP6Q8nHjn-14" target="pj88vWC6h57OP6Q8nHjn-2" edge="1">
                    <mxGeometry width="50" height="50" relative="1" as="geometry">
                        <mxPoint x="679.25" y="144" as="sourcePoint"/>
                        <mxPoint x="743.7500000000001" y="40.0000000000001" as="targetPoint"/>
                        <Array as="points">
                            <mxPoint x="770" y="120"/>
                        </Array>
                    </mxGeometry>
                </mxCell>
                <mxCell id="pj88vWC6h57OP6Q8nHjn-63" value="&lt;font style=&quot;font-size: 11px;&quot;&gt;&lt;span style=&quot;text-wrap: wrap; background-color: rgb(251, 251, 251);&quot;&gt;limb_n_1&lt;/span&gt;/connector/in/m&lt;/font&gt;onitor_connect_error&lt;div&gt;ms_module_msgs/action/MonitorConnectError&lt;/div&gt;" style="edgeLabel;html=1;align=center;verticalAlign=middle;resizable=0;points=[];" parent="pj88vWC6h57OP6Q8nHjn-57" vertex="1" connectable="0">
                    <mxGeometry x="-0.311" y="13" relative="1" as="geometry">
                        <mxPoint x="48" y="12" as="offset"/>
                    </mxGeometry>
                </mxCell>
                <mxCell id="pj88vWC6h57OP6Q8nHjn-73" value="" style="curved=1;endArrow=classic;html=1;rounded=0;exitX=0;exitY=0;exitDx=0;exitDy=0;entryX=1;entryY=0.5;entryDx=0;entryDy=0;" parent="1" source="pj88vWC6h57OP6Q8nHjn-13" target="pj88vWC6h57OP6Q8nHjn-2" edge="1">
                    <mxGeometry width="50" height="50" relative="1" as="geometry">
                        <mxPoint x="977.75" y="-10" as="sourcePoint"/>
                        <mxPoint x="987.75" y="109" as="targetPoint"/>
                        <Array as="points">
                            <mxPoint x="1020" y="20"/>
                        </Array>
                    </mxGeometry>
                </mxCell>
                <mxCell id="pj88vWC6h57OP6Q8nHjn-77" value="" style="curved=1;endArrow=classic;html=1;rounded=0;entryX=1;entryY=0.5;entryDx=0;entryDy=0;exitX=0;exitY=0;exitDx=0;exitDy=0;" parent="1" source="pj88vWC6h57OP6Q8nHjn-13" target="pj88vWC6h57OP6Q8nHjn-6" edge="1">
                    <mxGeometry width="50" height="50" relative="1" as="geometry">
                        <mxPoint x="1281" y="145" as="sourcePoint"/>
                        <mxPoint x="770" y="-130" as="targetPoint"/>
                        <Array as="points">
                            <mxPoint x="960" y="-130"/>
                        </Array>
                    </mxGeometry>
                </mxCell>
                <mxCell id="pj88vWC6h57OP6Q8nHjn-79" value="" style="curved=1;endArrow=classic;html=1;rounded=0;exitX=0.957;exitY=0.743;exitDx=0;exitDy=0;entryX=0;entryY=0.5;entryDx=0;entryDy=0;exitPerimeter=0;" parent="1" source="pj88vWC6h57OP6Q8nHjn-2" target="pj88vWC6h57OP6Q8nHjn-13" edge="1">
                    <mxGeometry width="50" height="50" relative="1" as="geometry">
                        <mxPoint x="1180" y="380" as="sourcePoint"/>
                        <mxPoint x="1270" y="220" as="targetPoint"/>
                        <Array as="points">
                            <mxPoint x="1030" y="130"/>
                        </Array>
                    </mxGeometry>
                </mxCell>
                <mxCell id="pj88vWC6h57OP6Q8nHjn-83" value="" style="curved=1;endArrow=classic;html=1;rounded=0;exitX=0;exitY=0;exitDx=0;exitDy=0;entryX=1;entryY=0;entryDx=0;entryDy=0;" parent="1" source="pj88vWC6h57OP6Q8nHjn-6" target="pj88vWC6h57OP6Q8nHjn-53" edge="1">
                    <mxGeometry width="50" height="50" relative="1" as="geometry">
                        <mxPoint x="450" y="-20" as="sourcePoint"/>
                        <mxPoint x="500" y="-70" as="targetPoint"/>
                        <Array as="points">
                            <mxPoint x="400" y="-230"/>
                            <mxPoint x="250" y="-205"/>
                        </Array>
                    </mxGeometry>
                </mxCell>
                <mxCell id="pj88vWC6h57OP6Q8nHjn-84" value="&lt;font style=&quot;font-size: 11px;&quot;&gt;&lt;span style=&quot;text-wrap: wrap; background-color: rgb(251, 251, 251);&quot;&gt;limb_n_1&lt;/span&gt;/joint/out/joint_state&lt;/font&gt;&lt;div&gt;sensor_msgs/msg/JointState&lt;/div&gt;" style="edgeLabel;html=1;align=center;verticalAlign=middle;resizable=0;points=[];" parent="pj88vWC6h57OP6Q8nHjn-83" vertex="1" connectable="0">
                    <mxGeometry x="-0.033" y="3" relative="1" as="geometry">
                        <mxPoint x="-20" y="5" as="offset"/>
                    </mxGeometry>
                </mxCell>
                <mxCell id="pj88vWC6h57OP6Q8nHjn-85" value="" style="curved=1;endArrow=classic;html=1;rounded=0;entryX=0.5;entryY=0;entryDx=0;entryDy=0;exitX=0.5;exitY=1;exitDx=0;exitDy=0;" parent="1" source="pj88vWC6h57OP6Q8nHjn-147" target="pj88vWC6h57OP6Q8nHjn-6" edge="1">
                    <mxGeometry width="50" height="50" relative="1" as="geometry">
                        <mxPoint x="40" y="-310" as="sourcePoint"/>
                        <mxPoint x="180" y="-10" as="targetPoint"/>
                        <Array as="points">
                            <mxPoint x="690" y="-340"/>
                        </Array>
                    </mxGeometry>
                </mxCell>
                <mxCell id="pj88vWC6h57OP6Q8nHjn-86" value="&lt;font style=&quot;font-size: 11px;&quot;&gt;&lt;span style=&quot;text-wrap: wrap; background-color: rgb(251, 251, 251);&quot;&gt;limb_n_1&lt;/span&gt;/joint/in/joint_cmd_list&lt;br&gt;&lt;/font&gt;ms_module_msgs/msg/JointCmdList" style="edgeLabel;html=1;align=center;verticalAlign=middle;resizable=0;points=[];" parent="pj88vWC6h57OP6Q8nHjn-85" vertex="1" connectable="0">
                    <mxGeometry x="-0.033" y="3" relative="1" as="geometry">
                        <mxPoint x="-3" y="-43" as="offset"/>
                    </mxGeometry>
                </mxCell>
                <mxCell id="pj88vWC6h57OP6Q8nHjn-88" value="" style="curved=1;dashed=1;endArrow=classic;startArrow=classic;html=1;rounded=0;exitX=0;exitY=0.5;exitDx=0;exitDy=0;entryX=0.5;entryY=1;entryDx=0;entryDy=0;" parent="1" source="pj88vWC6h57OP6Q8nHjn-2" target="pj88vWC6h57OP6Q8nHjn-53" edge="1">
                    <mxGeometry width="50" height="50" relative="1" as="geometry">
                        <mxPoint x="212.75" y="65" as="sourcePoint"/>
                        <mxPoint x="120" y="-90" as="targetPoint"/>
                        <Array as="points">
                            <mxPoint x="180" y="40"/>
                        </Array>
                    </mxGeometry>
                </mxCell>
                <mxCell id="pj88vWC6h57OP6Q8nHjn-89" value="&lt;font style=&quot;font-size: 11px;&quot;&gt;&lt;span style=&quot;text-wrap: wrap; background-color: rgb(251, 251, 251);&quot;&gt;limb_n_1&lt;/span&gt;/connector_2/in/set_connect&lt;/font&gt;&lt;div&gt;ms_module_msgs/srv/SetConnectorCmd&lt;/div&gt;" style="edgeLabel;html=1;align=center;verticalAlign=middle;resizable=0;points=[];" parent="pj88vWC6h57OP6Q8nHjn-88" vertex="1" connectable="0">
                    <mxGeometry x="-0.311" y="13" relative="1" as="geometry">
                        <mxPoint x="4" y="-20" as="offset"/>
                    </mxGeometry>
                </mxCell>
                <mxCell id="pj88vWC6h57OP6Q8nHjn-92" value="" style="curved=1;endArrow=classic;html=1;rounded=0;entryX=0;entryY=1;entryDx=0;entryDy=0;exitX=0;exitY=0.5;exitDx=0;exitDy=0;" parent="1" source="pj88vWC6h57OP6Q8nHjn-98" target="pj88vWC6h57OP6Q8nHjn-53" edge="1">
                    <mxGeometry width="50" height="50" relative="1" as="geometry">
                        <mxPoint x="-390" y="590" as="sourcePoint"/>
                        <mxPoint x="-90" y="180" as="targetPoint"/>
                        <Array as="points">
                            <mxPoint x="-1030" y="620"/>
                            <mxPoint x="-660" y="410"/>
                            <mxPoint x="-220" y="460"/>
                            <mxPoint x="-150" y="120"/>
                        </Array>
                    </mxGeometry>
                </mxCell>
                <mxCell id="pj88vWC6h57OP6Q8nHjn-113" value="&lt;font style=&quot;font-size: 11px;&quot;&gt;&lt;span style=&quot;text-wrap: wrap; background-color: rgb(251, 251, 251);&quot;&gt;limb_n_1&lt;/span&gt;/connector_1/out/opposite_info&lt;/font&gt;&lt;div&gt;ms_module_msgs/msg/ConnectionOppositeInfo&lt;br&gt;&lt;/div&gt;" style="edgeLabel;html=1;align=center;verticalAlign=middle;resizable=0;points=[];" parent="pj88vWC6h57OP6Q8nHjn-92" vertex="1" connectable="0">
                    <mxGeometry x="0.219" y="15" relative="1" as="geometry">
                        <mxPoint x="-461" y="300" as="offset"/>
                    </mxGeometry>
                </mxCell>
                <mxCell id="pj88vWC6h57OP6Q8nHjn-94" value="" style="curved=1;endArrow=classic;html=1;rounded=0;entryX=0.071;entryY=0.81;entryDx=0;entryDy=0;exitX=0;exitY=0.5;exitDx=0;exitDy=0;entryPerimeter=0;" parent="1" source="pj88vWC6h57OP6Q8nHjn-99" target="pj88vWC6h57OP6Q8nHjn-53" edge="1">
                    <mxGeometry width="50" height="50" relative="1" as="geometry">
                        <mxPoint x="-395" y="610" as="sourcePoint"/>
                        <mxPoint x="28" y="-85" as="targetPoint"/>
                        <Array as="points">
                            <mxPoint x="-1140" y="630"/>
                            <mxPoint x="-820" y="380"/>
                            <mxPoint x="-300" y="410"/>
                            <mxPoint x="-190" y="300"/>
                        </Array>
                    </mxGeometry>
                </mxCell>
                <mxCell id="pj88vWC6h57OP6Q8nHjn-114" value="&lt;font style=&quot;font-size: 11px;&quot;&gt;&lt;span style=&quot;text-wrap: wrap; background-color: rgb(251, 251, 251);&quot;&gt;limb_n_1&lt;/span&gt;/connector_2/out/opposite_info&lt;/font&gt;&lt;div&gt;ms_module_msgs/msg/ConnectionOppositeInfo&lt;br&gt;&lt;/div&gt;" style="edgeLabel;html=1;align=center;verticalAlign=middle;resizable=0;points=[];" parent="pj88vWC6h57OP6Q8nHjn-94" vertex="1" connectable="0">
                    <mxGeometry x="0.3215" y="7" relative="1" as="geometry">
                        <mxPoint x="-481" y="230" as="offset"/>
                    </mxGeometry>
                </mxCell>
                <mxCell id="pj88vWC6h57OP6Q8nHjn-98" value="&lt;div&gt;&lt;font style=&quot;font-size: 12px;&quot;&gt;&lt;span style=&quot;background-color: initial;&quot;&gt;limb_n_1/&lt;/span&gt;&lt;span style=&quot;background-color: rgb(255, 255, 255); text-wrap: nowrap;&quot;&gt;camera_1&lt;/span&gt;&lt;span style=&quot;background-color: initial;&quot;&gt;/ar_opposite_detector_node&lt;/span&gt;&lt;/font&gt;&lt;/div&gt;" style="ellipse;whiteSpace=wrap;html=1;strokeColor=default;align=center;verticalAlign=middle;fontFamily=Helvetica;fontSize=12;fontColor=default;fillColor=default;" parent="1" vertex="1">
                    <mxGeometry x="-1140" y="1059.97" width="320" height="30" as="geometry"/>
                </mxCell>
                <mxCell id="pj88vWC6h57OP6Q8nHjn-99" value="&lt;div&gt;&lt;font style=&quot;font-size: 12px;&quot;&gt;&lt;span style=&quot;background-color: initial;&quot;&gt;limb_n_1/&lt;/span&gt;&lt;span style=&quot;background-color: rgb(255, 255, 255); text-wrap: nowrap;&quot;&gt;camera_2&lt;/span&gt;&lt;span style=&quot;background-color: initial;&quot;&gt;/ar_opposite_detector_node&lt;/span&gt;&lt;/font&gt;&lt;/div&gt;" style="ellipse;whiteSpace=wrap;html=1;strokeColor=default;align=center;verticalAlign=middle;fontFamily=Helvetica;fontSize=12;fontColor=default;fillColor=default;" parent="1" vertex="1">
                    <mxGeometry x="-1180" y="1159.97" width="310" height="30" as="geometry"/>
                </mxCell>
                <mxCell id="pj88vWC6h57OP6Q8nHjn-100" value="" style="curved=1;endArrow=classic;html=1;rounded=0;exitX=0;exitY=0.5;exitDx=0;exitDy=0;entryX=1;entryY=0.5;entryDx=0;entryDy=0;" parent="1" source="pj88vWC6h57OP6Q8nHjn-22" target="pj88vWC6h57OP6Q8nHjn-98" edge="1">
                    <mxGeometry width="50" height="50" relative="1" as="geometry">
                        <mxPoint x="-140" y="1009.97" as="sourcePoint"/>
                        <mxPoint x="-90" y="959.97" as="targetPoint"/>
                        <Array as="points">
                            <mxPoint x="-560" y="1029.97"/>
                            <mxPoint x="-700" y="1009.97"/>
                        </Array>
                    </mxGeometry>
                </mxCell>
                <mxCell id="pj88vWC6h57OP6Q8nHjn-103" value="&lt;font style=&quot;font-size: 11px;&quot;&gt;&lt;span style=&quot;text-wrap: wrap; background-color: rgb(251, 251, 251);&quot;&gt;limb_n_1&lt;/span&gt;/camera_1/out/ar_pose&lt;/font&gt;&lt;div&gt;?&lt;/div&gt;" style="edgeLabel;html=1;align=center;verticalAlign=middle;resizable=0;points=[];" parent="pj88vWC6h57OP6Q8nHjn-100" vertex="1" connectable="0">
                    <mxGeometry x="0.2744" relative="1" as="geometry">
                        <mxPoint as="offset"/>
                    </mxGeometry>
                </mxCell>
                <mxCell id="pj88vWC6h57OP6Q8nHjn-101" value="" style="curved=1;endArrow=classic;html=1;rounded=0;exitX=0;exitY=0.5;exitDx=0;exitDy=0;entryX=1;entryY=0.5;entryDx=0;entryDy=0;" parent="1" source="pj88vWC6h57OP6Q8nHjn-21" target="pj88vWC6h57OP6Q8nHjn-99" edge="1">
                    <mxGeometry width="50" height="50" relative="1" as="geometry">
                        <mxPoint x="-550" y="1184.26" as="sourcePoint"/>
                        <mxPoint x="-860" y="1179.97" as="targetPoint"/>
                        <Array as="points">
                            <mxPoint x="-580" y="1184.26"/>
                        </Array>
                    </mxGeometry>
                </mxCell>
                <mxCell id="pj88vWC6h57OP6Q8nHjn-105" value="&lt;font style=&quot;font-size: 11px;&quot;&gt;&lt;span style=&quot;text-wrap: wrap; background-color: rgb(251, 251, 251);&quot;&gt;limb_n_1&lt;/span&gt;/camera_2/out/ar_pose&lt;/font&gt;&lt;div&gt;?&lt;/div&gt;" style="edgeLabel;html=1;align=center;verticalAlign=middle;resizable=0;points=[];" parent="pj88vWC6h57OP6Q8nHjn-101" vertex="1" connectable="0">
                    <mxGeometry x="0.0114" y="2" relative="1" as="geometry">
                        <mxPoint y="-7" as="offset"/>
                    </mxGeometry>
                </mxCell>
                <mxCell id="pj88vWC6h57OP6Q8nHjn-108" value="" style="curved=1;endArrow=classic;html=1;rounded=0;exitX=0.18;exitY=0.882;exitDx=0;exitDy=0;entryX=1;entryY=0.5;entryDx=0;entryDy=0;exitPerimeter=0;" parent="1" source="pj88vWC6h57OP6Q8nHjn-22" target="pj88vWC6h57OP6Q8nHjn-98" edge="1">
                    <mxGeometry width="50" height="50" relative="1" as="geometry">
                        <mxPoint x="-540" y="1124.97" as="sourcePoint"/>
                        <mxPoint x="-830" y="1144.97" as="targetPoint"/>
                        <Array as="points">
                            <mxPoint x="-570" y="1099.97"/>
                            <mxPoint x="-720" y="1099.97"/>
                        </Array>
                    </mxGeometry>
                </mxCell>
                <mxCell id="pj88vWC6h57OP6Q8nHjn-109" value="&lt;font style=&quot;font-size: 11px;&quot;&gt;&lt;span style=&quot;text-wrap: wrap; background-color: rgb(251, 251, 251);&quot;&gt;limb_n_1&lt;/span&gt;/camera_1/out/ar_string&lt;/font&gt;&lt;div&gt;?&lt;/div&gt;" style="edgeLabel;html=1;align=center;verticalAlign=middle;resizable=0;points=[];" parent="pj88vWC6h57OP6Q8nHjn-108" vertex="1" connectable="0">
                    <mxGeometry x="0.2744" relative="1" as="geometry">
                        <mxPoint x="50" y="-10" as="offset"/>
                    </mxGeometry>
                </mxCell>
                <mxCell id="pj88vWC6h57OP6Q8nHjn-110" value="" style="curved=1;endArrow=classic;html=1;rounded=0;exitX=0;exitY=1;exitDx=0;exitDy=0;entryX=1;entryY=0.5;entryDx=0;entryDy=0;" parent="1" source="pj88vWC6h57OP6Q8nHjn-21" target="pj88vWC6h57OP6Q8nHjn-99" edge="1">
                    <mxGeometry width="50" height="50" relative="1" as="geometry">
                        <mxPoint x="-560" y="1199.97" as="sourcePoint"/>
                        <mxPoint x="-850" y="1219.97" as="targetPoint"/>
                        <Array as="points">
                            <mxPoint x="-600" y="1244.97"/>
                            <mxPoint x="-750" y="1244.97"/>
                        </Array>
                    </mxGeometry>
                </mxCell>
                <mxCell id="pj88vWC6h57OP6Q8nHjn-111" value="&lt;font style=&quot;font-size: 11px;&quot;&gt;&lt;span style=&quot;text-wrap: wrap; background-color: rgb(251, 251, 251);&quot;&gt;limb_n_1&lt;/span&gt;/camera_2/out/ar_string&lt;/font&gt;&lt;div&gt;?&lt;/div&gt;" style="edgeLabel;html=1;align=center;verticalAlign=middle;resizable=0;points=[];" parent="pj88vWC6h57OP6Q8nHjn-110" vertex="1" connectable="0">
                    <mxGeometry x="0.2744" relative="1" as="geometry">
                        <mxPoint x="50" y="-10" as="offset"/>
                    </mxGeometry>
                </mxCell>
                <mxCell id="pj88vWC6h57OP6Q8nHjn-122" value="limb_n_1/configuration_internal_investigating_node" style="ellipse;whiteSpace=wrap;html=1;" parent="1" vertex="1">
                    <mxGeometry x="-730" y="-330" width="290" height="30" as="geometry"/>
                </mxCell>
                <mxCell id="pj88vWC6h57OP6Q8nHjn-123" value="" style="curved=1;dashed=1;endArrow=classic;startArrow=classic;html=1;rounded=0;exitX=0.5;exitY=0;exitDx=0;exitDy=0;entryX=0.5;entryY=1;entryDx=0;entryDy=0;" parent="1" source="sZ-Hnd-nzbSSam_sIz7e-2" target="pj88vWC6h57OP6Q8nHjn-122" edge="1">
                    <mxGeometry width="50" height="50" relative="1" as="geometry">
                        <mxPoint x="-24" y="-175" as="sourcePoint"/>
                        <mxPoint x="-450" y="-260" as="targetPoint"/>
                        <Array as="points">
                            <mxPoint x="-530" y="-240"/>
                        </Array>
                    </mxGeometry>
                </mxCell>
                <mxCell id="pj88vWC6h57OP6Q8nHjn-124" value="&lt;font style=&quot;font-size: 11px;&quot;&gt;&lt;span style=&quot;text-wrap: wrap; background-color: rgb(251, 251, 251);&quot;&gt;limb_n_1&lt;/span&gt;/out/get_module_connection&lt;/font&gt;&lt;div&gt;ms_module_msgs/msg/GetAllConnection&lt;/div&gt;" style="edgeLabel;html=1;align=center;verticalAlign=middle;resizable=0;points=[];" parent="pj88vWC6h57OP6Q8nHjn-123" vertex="1" connectable="0">
                    <mxGeometry x="-0.311" y="13" relative="1" as="geometry">
                        <mxPoint x="13" y="-56" as="offset"/>
                    </mxGeometry>
                </mxCell>
                <mxCell id="pj88vWC6h57OP6Q8nHjn-125" value="pnp_gateway/reconfigure_cmd_node" style="ellipse;whiteSpace=wrap;html=1;dashed=1" parent="1" vertex="1">
                    <mxGeometry x="-2450" y="5" width="280" height="30" as="geometry"/>
                </mxCell>
                <mxCell id="pj88vWC6h57OP6Q8nHjn-126" value="${leader_name}/info_collect_node" style="ellipse;whiteSpace=wrap;html=1;dashed=1" parent="1" vertex="1">
                    <mxGeometry x="-1240" y="400" width="250" height="30" as="geometry"/>
                </mxCell>
                <mxCell id="pj88vWC6h57OP6Q8nHjn-128" value="１・結合機構の結合・分離を実行して、成功・失敗の情報を返信&lt;div&gt;&lt;div&gt;２・結合機構の情報を送信&lt;/div&gt;&lt;div&gt;３・同じモジュールでは同時に一つの結合機構しか操作しない&lt;/div&gt;&lt;/div&gt;&lt;div&gt;（注意点：モーターエラーから自動リセットが要する）&lt;br&gt;&lt;/div&gt;" style="text;html=1;align=center;verticalAlign=middle;resizable=0;points=[];autosize=1;strokeColor=none;fillColor=none;" parent="1" vertex="1">
                    <mxGeometry x="456.83" y="-65" width="370" height="70" as="geometry"/>
                </mxCell>
                <mxCell id="pj88vWC6h57OP6Q8nHjn-129" value="結合・分離を監視し、成功・失敗の情報を返信" style="text;html=1;align=center;verticalAlign=middle;resizable=0;points=[];autosize=1;strokeColor=none;fillColor=none;" parent="1" vertex="1">
                    <mxGeometry x="500" y="220" width="280" height="30" as="geometry"/>
                </mxCell>
                <mxCell id="pj88vWC6h57OP6Q8nHjn-130" value="１．関節の角度・速度制御を実行して、成功・失敗の情報を返信&lt;div&gt;（注意点：同じ時刻で、一部関節は角度制御、一部関節は速度制御）&lt;div&gt;&lt;div&gt;２・関節の情報を送信&lt;/div&gt;&lt;/div&gt;&lt;/div&gt;&lt;div&gt;３．決めた時間で決めた角度を実行する能力（要望？）&lt;/div&gt;" style="text;html=1;align=center;verticalAlign=middle;resizable=0;points=[];autosize=1;strokeColor=none;fillColor=none;" parent="1" vertex="1">
                    <mxGeometry x="456.83" y="-300" width="400" height="70" as="geometry"/>
                </mxCell>
                <mxCell id="pj88vWC6h57OP6Q8nHjn-131" value="全てのモーター" style="text;html=1;align=center;verticalAlign=middle;resizable=0;points=[];autosize=1;strokeColor=none;fillColor=none;" parent="1" vertex="1">
                    <mxGeometry x="1320" y="100" width="110" height="30" as="geometry"/>
                </mxCell>
                <mxCell id="pj88vWC6h57OP6Q8nHjn-132" value="１．自律遷移のための結合プログラムである&lt;div&gt;決めた結合機構と結合するまでの一連動作を実行するノード&lt;div&gt;２・結合相手の情報を他のノートに送信する必要がある&lt;/div&gt;&lt;div&gt;３・中心制御である&lt;/div&gt;&lt;/div&gt;&lt;div&gt;４．Lifecircleノードである&lt;/div&gt;" style="text;html=1;align=center;verticalAlign=middle;resizable=0;points=[];autosize=1;strokeColor=none;fillColor=none;" parent="1" vertex="1">
                    <mxGeometry x="-220" y="-220" width="350" height="90" as="geometry"/>
                </mxCell>
                <mxCell id="pj88vWC6h57OP6Q8nHjn-133" value="" style="curved=1;dashed=1;endArrow=classic;startArrow=classic;html=1;rounded=0;exitX=0;exitY=0.5;exitDx=0;exitDy=0;entryX=1;entryY=0.5;entryDx=0;entryDy=0;" parent="1" source="pj88vWC6h57OP6Q8nHjn-6" target="pj88vWC6h57OP6Q8nHjn-53" edge="1">
                    <mxGeometry width="50" height="50" relative="1" as="geometry">
                        <mxPoint x="586.25" y="-75" as="sourcePoint"/>
                        <mxPoint x="160.25" y="-160" as="targetPoint"/>
                        <Array as="points">
                            <mxPoint x="310" y="-140"/>
                        </Array>
                    </mxGeometry>
                </mxCell>
                <mxCell id="pj88vWC6h57OP6Q8nHjn-134" value="&lt;font style=&quot;font-size: 11px;&quot;&gt;&lt;span style=&quot;text-wrap: wrap; background-color: rgb(251, 251, 251);&quot;&gt;limb_n_1&lt;/span&gt;/joint/in/set_joint_cmd_list&lt;/font&gt;&lt;div&gt;ms_module_msgs/srv/SetJointCmdList&lt;/div&gt;" style="edgeLabel;html=1;align=center;verticalAlign=middle;resizable=0;points=[];" parent="pj88vWC6h57OP6Q8nHjn-133" vertex="1" connectable="0">
                    <mxGeometry x="-0.311" y="13" relative="1" as="geometry">
                        <mxPoint x="-33" y="-11" as="offset"/>
                    </mxGeometry>
                </mxCell>
                <mxCell id="pj88vWC6h57OP6Q8nHjn-137" value="${leader_name}/error_prospective_node" style="ellipse;whiteSpace=wrap;html=1;dashed=1" parent="1" vertex="1">
                    <mxGeometry x="-730" y="250" width="250" height="30" as="geometry"/>
                </mxCell>
                <mxCell id="pj88vWC6h57OP6Q8nHjn-138" value="" style="curved=1;dashed=1;endArrow=classic;startArrow=classic;html=1;rounded=0;exitX=0;exitY=1;exitDx=0;exitDy=0;entryX=1;entryY=0.5;entryDx=0;entryDy=0;" parent="1" source="pj88vWC6h57OP6Q8nHjn-2" target="pj88vWC6h57OP6Q8nHjn-137" edge="1">
                    <mxGeometry width="50" height="50" relative="1" as="geometry">
                        <mxPoint x="526" y="5" as="sourcePoint"/>
                        <mxPoint x="-340" y="50" as="targetPoint"/>
                        <Array as="points">
                            <mxPoint x="10" y="100"/>
                        </Array>
                    </mxGeometry>
                </mxCell>
                <mxCell id="pj88vWC6h57OP6Q8nHjn-139" value="&lt;font style=&quot;font-size: 11px;&quot;&gt;&lt;span style=&quot;text-wrap: wrap; background-color: rgb(251, 251, 251);&quot;&gt;limb_n_1&lt;/span&gt;/connector/out/get_all_connector_error_state&lt;/font&gt;&lt;div&gt;ms_module_msgs/srv/GetAllConnectorErrorState&lt;/div&gt;" style="edgeLabel;html=1;align=center;verticalAlign=middle;resizable=0;points=[];" parent="pj88vWC6h57OP6Q8nHjn-138" vertex="1" connectable="0">
                    <mxGeometry x="-0.311" y="13" relative="1" as="geometry">
                        <mxPoint x="-122" y="22" as="offset"/>
                    </mxGeometry>
                </mxCell>
                <mxCell id="pj88vWC6h57OP6Q8nHjn-142" value="" style="curved=1;dashed=1;endArrow=classic;startArrow=classic;html=1;rounded=0;entryX=0.5;entryY=0;entryDx=0;entryDy=0;exitX=0.5;exitY=1;exitDx=0;exitDy=0;" parent="1" source="pj88vWC6h57OP6Q8nHjn-144" target="pj88vWC6h57OP6Q8nHjn-122" edge="1">
                    <mxGeometry width="50" height="50" relative="1" as="geometry">
                        <mxPoint x="-380" y="-412" as="sourcePoint"/>
                        <mxPoint x="-320" y="-287.5" as="targetPoint"/>
                        <Array as="points"/>
                    </mxGeometry>
                </mxCell>
                <mxCell id="pj88vWC6h57OP6Q8nHjn-143" value="&lt;span style=&quot;text-wrap: wrap; background-color: rgb(251, 251, 251);&quot;&gt;limb_n_1&lt;/span&gt;/out/get_module_connection&lt;div&gt;ms_module_msgs/msg/GetAllConnection&lt;/div&gt;" style="edgeLabel;html=1;align=center;verticalAlign=middle;resizable=0;points=[];" parent="pj88vWC6h57OP6Q8nHjn-142" vertex="1" connectable="0">
                    <mxGeometry x="-0.311" y="13" relative="1" as="geometry">
                        <mxPoint x="-13" y="-3" as="offset"/>
                    </mxGeometry>
                </mxCell>
                <mxCell id="pj88vWC6h57OP6Q8nHjn-144" value="others/connecting_opposite_detector_node" style="ellipse;whiteSpace=wrap;html=1;dashed=1" parent="1" vertex="1">
                    <mxGeometry x="-440" y="-510" width="290" height="30" as="geometry"/>
                </mxCell>
                <mxCell id="pj88vWC6h57OP6Q8nHjn-145" value="" style="curved=1;dashed=1;endArrow=classic;startArrow=classic;html=1;rounded=0;exitX=0.745;exitY=0.892;exitDx=0;exitDy=0;exitPerimeter=0;entryX=1;entryY=0;entryDx=0;entryDy=0;" parent="1" source="pj88vWC6h57OP6Q8nHjn-6" target="pj88vWC6h57OP6Q8nHjn-137" edge="1">
                    <mxGeometry width="50" height="50" relative="1" as="geometry">
                        <mxPoint x="547" y="17" as="sourcePoint"/>
                        <mxPoint x="-374" y="65" as="targetPoint"/>
                        <Array as="points">
                            <mxPoint x="610" y="-90"/>
                            <mxPoint x="-10" y="20"/>
                        </Array>
                    </mxGeometry>
                </mxCell>
                <mxCell id="pj88vWC6h57OP6Q8nHjn-146" value="&lt;font style=&quot;font-size: 11px;&quot;&gt;&lt;span style=&quot;text-wrap: wrap; background-color: rgb(251, 251, 251);&quot;&gt;limb_n_1&lt;/span&gt;/joint/out/get_all_joint_error_state&lt;/font&gt;&lt;div&gt;ms_module_msgs/srv/GetAllJointErrorState&lt;/div&gt;" style="edgeLabel;html=1;align=center;verticalAlign=middle;resizable=0;points=[];" parent="pj88vWC6h57OP6Q8nHjn-145" vertex="1" connectable="0">
                    <mxGeometry x="-0.311" y="13" relative="1" as="geometry">
                        <mxPoint x="329" y="-98" as="offset"/>
                    </mxGeometry>
                </mxCell>
                <mxCell id="pj88vWC6h57OP6Q8nHjn-147" value="others/other_node" style="ellipse;whiteSpace=wrap;html=1;dashed=1" parent="1" vertex="1">
                    <mxGeometry x="540" y="-700" width="200" height="30" as="geometry"/>
                </mxCell>
                <mxCell id="pj88vWC6h57OP6Q8nHjn-150" value="limb_n_1/leader_or_follower_concession_node" style="ellipse;whiteSpace=wrap;html=1;" parent="1" vertex="1">
                    <mxGeometry x="-1354" y="-330" width="310" height="30" as="geometry"/>
                </mxCell>
                <mxCell id="pj88vWC6h57OP6Q8nHjn-151" value="" style="curved=1;dashed=1;endArrow=classic;startArrow=classic;html=1;rounded=0;exitX=0;exitY=0.5;exitDx=0;exitDy=0;entryX=1;entryY=0.5;entryDx=0;entryDy=0;" parent="1" source="pj88vWC6h57OP6Q8nHjn-122" target="pj88vWC6h57OP6Q8nHjn-150" edge="1">
                    <mxGeometry width="50" height="50" relative="1" as="geometry">
                        <mxPoint x="-580" y="-277.5" as="sourcePoint"/>
                        <mxPoint x="-920" y="-317.5" as="targetPoint"/>
                        <Array as="points"/>
                    </mxGeometry>
                </mxCell>
                <mxCell id="pj88vWC6h57OP6Q8nHjn-152" value="&lt;font style=&quot;font-size: 11px;&quot;&gt;&lt;span style=&quot;text-wrap: wrap; background-color: rgb(251, 251, 251);&quot;&gt;limb_n_1&lt;/span&gt;/out/&lt;/font&gt;get_internal_investigated_configuration&lt;div&gt;ms_module_msgs/msg/GetAllConnection&lt;/div&gt;" style="edgeLabel;html=1;align=center;verticalAlign=middle;resizable=0;points=[];" parent="pj88vWC6h57OP6Q8nHjn-151" vertex="1" connectable="0">
                    <mxGeometry x="-0.311" y="13" relative="1" as="geometry">
                        <mxPoint x="-44" y="-24" as="offset"/>
                    </mxGeometry>
                </mxCell>
                <mxCell id="pj88vWC6h57OP6Q8nHjn-153" value="" style="curved=1;dashed=1;endArrow=classic;startArrow=classic;html=1;rounded=0;entryX=0.5;entryY=0;entryDx=0;entryDy=0;exitX=0.5;exitY=1;exitDx=0;exitDy=0;" parent="1" source="pj88vWC6h57OP6Q8nHjn-155" target="pj88vWC6h57OP6Q8nHjn-150" edge="1">
                    <mxGeometry width="50" height="50" relative="1" as="geometry">
                        <mxPoint x="-1014" y="-465" as="sourcePoint"/>
                        <mxPoint x="-1089" y="-365" as="targetPoint"/>
                        <Array as="points"/>
                    </mxGeometry>
                </mxCell>
                <mxCell id="pj88vWC6h57OP6Q8nHjn-154" value="&lt;font style=&quot;font-size: 11px;&quot;&gt;&lt;span style=&quot;text-wrap: wrap; background-color: rgb(251, 251, 251);&quot;&gt;${name}&lt;/span&gt;/out/get_ranks&lt;/font&gt;&lt;div&gt;ms_module_msgs/msg/GetRanks&lt;/div&gt;" style="edgeLabel;html=1;align=center;verticalAlign=middle;resizable=0;points=[];" parent="pj88vWC6h57OP6Q8nHjn-153" vertex="1" connectable="0">
                    <mxGeometry x="-0.311" y="13" relative="1" as="geometry">
                        <mxPoint x="-13" y="8" as="offset"/>
                    </mxGeometry>
                </mxCell>
                <mxCell id="pj88vWC6h57OP6Q8nHjn-155" value="others/leader_or_follower_concession_node" style="ellipse;whiteSpace=wrap;html=1;dashed=1" parent="1" vertex="1">
                    <mxGeometry x="-1354" y="-530" width="310" height="30" as="geometry"/>
                </mxCell>
                <mxCell id="pj88vWC6h57OP6Q8nHjn-157" value="pnp_gateway/reconfiguration_planning_node" style="ellipse;whiteSpace=wrap;html=1;dashed=1" parent="1" vertex="1">
                    <mxGeometry x="-2455" y="-105" width="290" height="30" as="geometry"/>
                </mxCell>
                <mxCell id="pj88vWC6h57OP6Q8nHjn-159" value="${leader_name}/limb_n_1/in/path_exec_node" style="ellipse;whiteSpace=wrap;html=1;dashed=1" parent="1" vertex="1">
                    <mxGeometry x="-1620" y="-30" width="270" height="30" as="geometry"/>
                </mxCell>
                <mxCell id="pj88vWC6h57OP6Q8nHjn-160" value="" style="curved=1;dashed=1;endArrow=classic;startArrow=classic;html=1;rounded=0;exitX=0;exitY=0.5;exitDx=0;exitDy=0;entryX=1;entryY=0.5;entryDx=0;entryDy=0;" parent="1" source="pj88vWC6h57OP6Q8nHjn-53" target="pj88vWC6h57OP6Q8nHjn-159" edge="1">
                    <mxGeometry width="50" height="50" relative="1" as="geometry">
                        <mxPoint x="-74" y="-75" as="sourcePoint"/>
                        <mxPoint x="-500" y="-160" as="targetPoint"/>
                        <Array as="points">
                            <mxPoint x="-430" y="80"/>
                        </Array>
                    </mxGeometry>
                </mxCell>
                <mxCell id="pj88vWC6h57OP6Q8nHjn-161" value="&lt;font style=&quot;font-size: 11px;&quot;&gt;&lt;span style=&quot;font-size: 12px; text-wrap: wrap; background-color: rgb(251, 251, 251);&quot;&gt;${leader_name}&lt;/span&gt;/in/set_connection&lt;/font&gt;&lt;div&gt;ms_module_msgs/srv/SetConnectionCmd&lt;/div&gt;" style="edgeLabel;html=1;align=center;verticalAlign=middle;resizable=0;points=[];" parent="pj88vWC6h57OP6Q8nHjn-160" vertex="1" connectable="0">
                    <mxGeometry x="-0.311" y="13" relative="1" as="geometry">
                        <mxPoint x="-329" y="-37" as="offset"/>
                    </mxGeometry>
                </mxCell>
                <mxCell id="pj88vWC6h57OP6Q8nHjn-162" value="" style="curved=1;dashed=1;dashPattern=1 3;strokeWidth=2;endArrow=classic;startArrow=classic;html=1;rounded=0;exitX=0;exitY=0.5;exitDx=0;exitDy=0;entryX=1;entryY=0.5;entryDx=0;entryDy=0;" parent="1" source="pj88vWC6h57OP6Q8nHjn-159" target="pj88vWC6h57OP6Q8nHjn-125" edge="1">
                    <mxGeometry width="50" height="50" relative="1" as="geometry">
                        <mxPoint x="-700" y="40" as="sourcePoint"/>
                        <mxPoint x="-1070" y="40" as="targetPoint"/>
                        <Array as="points"/>
                    </mxGeometry>
                </mxCell>
                <mxCell id="pj88vWC6h57OP6Q8nHjn-163" value="&lt;font style=&quot;font-size: 11px;&quot;&gt;&lt;span style=&quot;font-size: 12px; text-wrap: wrap; background-color: rgb(251, 251, 251);&quot;&gt;${leader_name}&lt;/span&gt;/in/set_path&lt;/font&gt;&lt;div&gt;ms_module_msgs/action/SetPathCmd&lt;/div&gt;" style="edgeLabel;html=1;align=center;verticalAlign=middle;resizable=0;points=[];" parent="pj88vWC6h57OP6Q8nHjn-162" vertex="1" connectable="0">
                    <mxGeometry x="-0.311" y="13" relative="1" as="geometry">
                        <mxPoint x="-22" y="-10" as="offset"/>
                    </mxGeometry>
                </mxCell>
                <mxCell id="pj88vWC6h57OP6Q8nHjn-166" value="${leader_name}/configuration_prospective_node" style="ellipse;whiteSpace=wrap;html=1;dashed=1" parent="1" vertex="1">
                    <mxGeometry x="-1870" y="-103.27" width="340" height="30" as="geometry"/>
                </mxCell>
                <mxCell id="pj88vWC6h57OP6Q8nHjn-169" value="" style="curved=1;dashed=1;endArrow=classic;startArrow=classic;html=1;rounded=0;entryX=0.5;entryY=0;entryDx=0;entryDy=0;exitX=0.5;exitY=1;exitDx=0;exitDy=0;" parent="1" source="pj88vWC6h57OP6Q8nHjn-157" target="pj88vWC6h57OP6Q8nHjn-125" edge="1">
                    <mxGeometry width="50" height="50" relative="1" as="geometry">
                        <mxPoint x="-1261" y="-135" as="sourcePoint"/>
                        <mxPoint x="-1500" y="25" as="targetPoint"/>
                        <Array as="points"/>
                    </mxGeometry>
                </mxCell>
                <mxCell id="pj88vWC6h57OP6Q8nHjn-170" value="&lt;font style=&quot;font-size: 11px;&quot;&gt;&lt;span style=&quot;font-size: 12px; text-wrap: wrap; background-color: rgb(251, 251, 251);&quot;&gt;${leader_name}&lt;/span&gt;/in/set_goal_configuration&lt;/font&gt;&lt;div&gt;ms_module_msgs/srv/SetConnectionCmd&lt;/div&gt;" style="edgeLabel;html=1;align=center;verticalAlign=middle;resizable=0;points=[];" parent="pj88vWC6h57OP6Q8nHjn-169" vertex="1" connectable="0">
                    <mxGeometry x="-0.311" y="13" relative="1" as="geometry">
                        <mxPoint x="-28" y="3" as="offset"/>
                    </mxGeometry>
                </mxCell>
                <mxCell id="pj88vWC6h57OP6Q8nHjn-172" value="" style="curved=1;dashed=1;endArrow=classic;startArrow=classic;html=1;rounded=0;entryX=1;entryY=0.5;entryDx=0;entryDy=0;exitX=0;exitY=0.5;exitDx=0;exitDy=0;" parent="1" source="pj88vWC6h57OP6Q8nHjn-166" target="pj88vWC6h57OP6Q8nHjn-157" edge="1">
                    <mxGeometry width="50" height="50" relative="1" as="geometry">
                        <mxPoint x="-1780" y="-260" as="sourcePoint"/>
                        <mxPoint x="-1410" y="-287" as="targetPoint"/>
                        <Array as="points"/>
                    </mxGeometry>
                </mxCell>
                <mxCell id="pj88vWC6h57OP6Q8nHjn-173" value="&lt;font style=&quot;font-size: 11px;&quot;&gt;&lt;span style=&quot;text-wrap: wrap; background-color: rgb(251, 251, 251);&quot;&gt;limb_n_1&lt;/span&gt;/out/get_connection&lt;/font&gt;&lt;div&gt;ms_module_msgs/msg/GetConfiguration&lt;/div&gt;" style="edgeLabel;html=1;align=center;verticalAlign=middle;resizable=0;points=[];" parent="pj88vWC6h57OP6Q8nHjn-172" vertex="1" connectable="0">
                    <mxGeometry x="-0.311" y="13" relative="1" as="geometry">
                        <mxPoint x="-29" y="-14" as="offset"/>
                    </mxGeometry>
                </mxCell>
                <mxCell id="pj88vWC6h57OP6Q8nHjn-177" value="" style="curved=1;dashed=1;endArrow=classic;html=1;rounded=0;entryX=1;entryY=0.5;entryDx=0;entryDy=0;" parent="1" source="sZ-Hnd-nzbSSam_sIz7e-2" target="pj88vWC6h57OP6Q8nHjn-166" edge="1">
                    <mxGeometry width="50" height="50" relative="1" as="geometry">
                        <mxPoint x="-240" y="-210" as="sourcePoint"/>
                        <mxPoint x="-320" y="-287" as="targetPoint"/>
                        <Array as="points">
                            <mxPoint x="-550" y="-260"/>
                        </Array>
                    </mxGeometry>
                </mxCell>
                <mxCell id="pj88vWC6h57OP6Q8nHjn-178" value="&lt;font style=&quot;font-size: 11px;&quot;&gt;&lt;span style=&quot;text-wrap: wrap; background-color: rgb(251, 251, 251);&quot;&gt;limb_n_1&lt;/span&gt;/out/&lt;/font&gt;get_module_all_connection&lt;div&gt;ms_module_msgs/msg/GetAllConnection&lt;/div&gt;" style="edgeLabel;html=1;align=center;verticalAlign=middle;resizable=0;points=[];" parent="pj88vWC6h57OP6Q8nHjn-177" vertex="1" connectable="0">
                    <mxGeometry x="-0.311" y="13" relative="1" as="geometry">
                        <mxPoint x="14" y="19" as="offset"/>
                    </mxGeometry>
                </mxCell>
                <mxCell id="nyhiukI9H8TfA03venT7-3" value="" style="curved=1;dashed=1;endArrow=classic;startArrow=classic;html=1;rounded=0;exitX=0;exitY=0;exitDx=0;exitDy=0;fontStyle=1" parent="1" source="pj88vWC6h57OP6Q8nHjn-1" edge="1">
                    <mxGeometry width="50" height="50" relative="1" as="geometry">
                        <mxPoint x="516.25" y="829.97" as="sourcePoint"/>
                        <mxPoint x="270" y="889.97" as="targetPoint"/>
                        <Array as="points">
                            <mxPoint x="490" y="879.97"/>
                        </Array>
                    </mxGeometry>
                </mxCell>
                <mxCell id="nyhiukI9H8TfA03venT7-4" value="&lt;font style=&quot;font-size: 11px;&quot;&gt;&lt;span style=&quot;text-wrap: wrap; background-color: rgb(251, 251, 251);&quot;&gt;limb_n_1&lt;/span&gt;/camera_1/&lt;span style=&quot;text-wrap: wrap; background-color: rgb(251, 251, 251);&quot;&gt;usb_cam_node/in/&lt;/span&gt;set_camera_onoff&lt;/font&gt;&lt;div&gt;ms_module_msgs/srv/SetCameraOnOff&lt;br&gt;&lt;/div&gt;" style="edgeLabel;html=1;align=center;verticalAlign=middle;resizable=0;points=[];" parent="nyhiukI9H8TfA03venT7-3" vertex="1" connectable="0">
                    <mxGeometry x="-0.311" y="13" relative="1" as="geometry">
                        <mxPoint x="-63" y="-24" as="offset"/>
                    </mxGeometry>
                </mxCell>
                <mxCell id="nyhiukI9H8TfA03venT7-5" value="" style="curved=1;dashed=1;endArrow=classic;startArrow=classic;html=1;rounded=0;exitX=0.26;exitY=0.971;exitDx=0;exitDy=0;exitPerimeter=0;" parent="1" source="pj88vWC6h57OP6Q8nHjn-15" edge="1">
                    <mxGeometry width="50" height="50" relative="1" as="geometry">
                        <mxPoint x="547" y="1383.97" as="sourcePoint"/>
                        <mxPoint x="210" y="1259.97" as="targetPoint"/>
                        <Array as="points">
                            <mxPoint x="430" y="1249.97"/>
                        </Array>
                    </mxGeometry>
                </mxCell>
                <mxCell id="nyhiukI9H8TfA03venT7-6" value="&lt;div&gt;&lt;span style=&quot;text-wrap: wrap; background-color: rgb(251, 251, 251);&quot;&gt;limb_n_1&lt;/span&gt;/camera_2/&lt;span style=&quot;text-wrap: wrap; background-color: rgb(251, 251, 251);&quot;&gt;usb_cam_node/in/&lt;/span&gt;set_camera_onoff&lt;/div&gt;&lt;div&gt;ms_module_msgs/srv/SetCameraOnOff&lt;br&gt;&lt;/div&gt;" style="edgeLabel;html=1;align=center;verticalAlign=middle;resizable=0;points=[];" parent="nyhiukI9H8TfA03venT7-5" vertex="1" connectable="0">
                    <mxGeometry x="-0.311" y="13" relative="1" as="geometry">
                        <mxPoint x="-62" y="7" as="offset"/>
                    </mxGeometry>
                </mxCell>
                <mxCell id="nyhiukI9H8TfA03venT7-7" value="" style="curved=1;dashed=1;endArrow=classic;startArrow=classic;html=1;rounded=0;fontStyle=1;entryX=1;entryY=0.5;entryDx=0;entryDy=0;" parent="1" source="pj88vWC6h57OP6Q8nHjn-53" target="nyhiukI9H8TfA03venT7-53" edge="1">
                    <mxGeometry width="50" height="50" relative="1" as="geometry">
                        <mxPoint x="157" y="-240" as="sourcePoint"/>
                        <mxPoint x="-100" y="-340" as="targetPoint"/>
                        <Array as="points">
                            <mxPoint x="-10" y="-450"/>
                        </Array>
                    </mxGeometry>
                </mxCell>
                <mxCell id="nyhiukI9H8TfA03venT7-8" value="&lt;font style=&quot;font-size: 11px;&quot;&gt;&lt;span style=&quot;text-wrap: wrap; background-color: rgb(251, 251, 251);&quot;&gt;${leader_name}/&lt;/span&gt;&lt;span style=&quot;text-wrap: wrap; background-color: rgb(251, 251, 251);&quot;&gt;connection_server_node&lt;/span&gt;/change_state&lt;/font&gt;&lt;div&gt;lifecycle_msgs/srv/ChangeState&lt;/div&gt;" style="edgeLabel;html=1;align=center;verticalAlign=middle;resizable=0;points=[];" parent="nyhiukI9H8TfA03venT7-7" vertex="1" connectable="0">
                    <mxGeometry x="-0.311" y="13" relative="1" as="geometry">
                        <mxPoint x="-6" y="21" as="offset"/>
                    </mxGeometry>
                </mxCell>
                <mxCell id="nyhiukI9H8TfA03venT7-11" value="１．自分が結合機構しているモジュラーロボットの構造をロカールで保存するノード" style="text;html=1;align=center;verticalAlign=middle;resizable=0;points=[];autosize=1;strokeColor=none;fillColor=none;" parent="1" vertex="1">
                    <mxGeometry x="-790" y="-360" width="480" height="30" as="geometry"/>
                </mxCell>
                <mxCell id="nyhiukI9H8TfA03venT7-13" value="${leader_name}/manipulation_server_node" style="ellipse;whiteSpace=wrap;html=1;dashed=1" parent="1" vertex="1">
                    <mxGeometry x="-70" y="-530" width="300" height="30" as="geometry"/>
                </mxCell>
                <mxCell id="nyhiukI9H8TfA03venT7-14" value="" style="curved=1;endArrow=classic;html=1;rounded=0;entryX=0.5;entryY=0;entryDx=0;entryDy=0;exitX=1;exitY=0.5;exitDx=0;exitDy=0;" parent="1" source="nyhiukI9H8TfA03venT7-13" target="pj88vWC6h57OP6Q8nHjn-6" edge="1">
                    <mxGeometry width="50" height="50" relative="1" as="geometry">
                        <mxPoint x="576" y="-500" as="sourcePoint"/>
                        <mxPoint x="640" y="-210" as="targetPoint"/>
                        <Array as="points">
                            <mxPoint x="700" y="-330"/>
                        </Array>
                    </mxGeometry>
                </mxCell>
                <mxCell id="nyhiukI9H8TfA03venT7-15" value="&lt;font style=&quot;font-size: 11px;&quot;&gt;&lt;span style=&quot;text-wrap: wrap; background-color: rgb(251, 251, 251);&quot;&gt;limb_n_1&lt;/span&gt;/joint/in/joint_cmd_list&lt;br&gt;&lt;/font&gt;&lt;font style=&quot;font-size: 11px;&quot;&gt;ms_module_msgs/msg/JointCmdList&lt;/font&gt;" style="edgeLabel;html=1;align=center;verticalAlign=middle;resizable=0;points=[];" parent="nyhiukI9H8TfA03venT7-14" vertex="1" connectable="0">
                    <mxGeometry x="-0.033" y="3" relative="1" as="geometry">
                        <mxPoint x="-135" y="-56" as="offset"/>
                    </mxGeometry>
                </mxCell>
                <mxCell id="nyhiukI9H8TfA03venT7-18" value="" style="curved=1;dashed=1;endArrow=classic;startArrow=classic;html=1;rounded=0;fontStyle=1;exitX=0;exitY=0;exitDx=0;exitDy=0;entryX=1;entryY=0.5;entryDx=0;entryDy=0;" parent="1" source="nyhiukI9H8TfA03venT7-13" target="nyhiukI9H8TfA03venT7-53" edge="1">
                    <mxGeometry width="50" height="50" relative="1" as="geometry">
                        <mxPoint x="140" y="-510" as="sourcePoint"/>
                        <mxPoint x="-210" y="-550" as="targetPoint"/>
                        <Array as="points">
                            <mxPoint x="-210" y="-710"/>
                        </Array>
                    </mxGeometry>
                </mxCell>
                <mxCell id="nyhiukI9H8TfA03venT7-19" value="&lt;font style=&quot;font-size: 11px;&quot;&gt;&lt;span style=&quot;text-wrap: wrap; background-color: rgb(251, 251, 251);&quot;&gt;${leader_name}/&lt;/span&gt;&lt;span style=&quot;text-wrap: wrap; background-color: rgb(251, 251, 251);&quot;&gt;manipulation_server_node&lt;/span&gt;/change_state&lt;/font&gt;&lt;div&gt;lifecycle_msgs/srv/ChangeState&lt;/div&gt;" style="edgeLabel;html=1;align=center;verticalAlign=middle;resizable=0;points=[];" parent="nyhiukI9H8TfA03venT7-18" vertex="1" connectable="0">
                    <mxGeometry x="-0.311" y="13" relative="1" as="geometry">
                        <mxPoint x="76" y="43" as="offset"/>
                    </mxGeometry>
                </mxCell>
                <mxCell id="nyhiukI9H8TfA03venT7-23" value="${leader_name}/connect_wheel_server" style="ellipse;whiteSpace=wrap;html=1;dashed=1" parent="1" vertex="1">
                    <mxGeometry x="-100" y="-780" width="300" height="30" as="geometry"/>
                </mxCell>
                <mxCell id="nyhiukI9H8TfA03venT7-24" value="${leader_name}/connect_gripper_server" style="ellipse;whiteSpace=wrap;html=1;dashed=1" parent="1" vertex="1">
                    <mxGeometry x="-100" y="-730" width="300" height="30" as="geometry"/>
                </mxCell>
                <mxCell id="nyhiukI9H8TfA03venT7-25" value="${leader_name}/manipulation_direct_control_server" style="ellipse;whiteSpace=wrap;html=1;dashed=1" parent="1" vertex="1">
                    <mxGeometry x="-100" y="-670" width="300" height="30" as="geometry"/>
                </mxCell>
                <mxCell id="nyhiukI9H8TfA03venT7-26" value="pnp_gateway/upload_module_state_node" style="ellipse;whiteSpace=wrap;html=1;dashed=1" parent="1" vertex="1">
                    <mxGeometry x="-2460" y="405" width="290" height="30" as="geometry"/>
                </mxCell>
                <mxCell id="nyhiukI9H8TfA03venT7-27" value="" style="curved=1;endArrow=classic;html=1;rounded=0;entryX=1;entryY=0.5;entryDx=0;entryDy=0;exitX=0;exitY=0.5;exitDx=0;exitDy=0;" parent="1" source="pj88vWC6h57OP6Q8nHjn-126" target="nyhiukI9H8TfA03venT7-26" edge="1">
                    <mxGeometry width="50" height="50" relative="1" as="geometry">
                        <mxPoint x="-1100" y="170" as="sourcePoint"/>
                        <mxPoint x="-1110" y="380" as="targetPoint"/>
                        <Array as="points"/>
                    </mxGeometry>
                </mxCell>
                <mxCell id="nyhiukI9H8TfA03venT7-28" value="&lt;font style=&quot;font-size: 11px;&quot;&gt;&lt;span style=&quot;font-size: 12px; text-wrap: wrap; background-color: rgb(251, 251, 251);&quot;&gt;${leader_name}&lt;/span&gt;/module_state&lt;br&gt;&lt;/font&gt;ms_module_msgs/msg/ModuleState" style="edgeLabel;html=1;align=center;verticalAlign=middle;resizable=0;points=[];" parent="nyhiukI9H8TfA03venT7-27" vertex="1" connectable="0">
                    <mxGeometry x="-0.033" y="3" relative="1" as="geometry">
                        <mxPoint as="offset"/>
                    </mxGeometry>
                </mxCell>
                <mxCell id="nyhiukI9H8TfA03venT7-29" value="${leader_name}/navigation_server" style="ellipse;whiteSpace=wrap;html=1;dashed=1" parent="1" vertex="1">
                    <mxGeometry x="-100" y="-880" width="300" height="30" as="geometry"/>
                </mxCell>
                <mxCell id="nyhiukI9H8TfA03venT7-30" value="${leader_name}/connect_solar_panel_server" style="ellipse;whiteSpace=wrap;html=1;dashed=1" parent="1" vertex="1">
                    <mxGeometry x="-100" y="-830" width="300" height="30" as="geometry"/>
                </mxCell>
                <mxCell id="nyhiukI9H8TfA03venT7-33" value="" style="curved=1;dashed=1;endArrow=classic;startArrow=classic;html=1;rounded=0;exitX=0;exitY=0.5;exitDx=0;exitDy=0;" parent="1" source="pj88vWC6h57OP6Q8nHjn-25" edge="1">
                    <mxGeometry width="50" height="50" relative="1" as="geometry">
                        <mxPoint x="648" y="1168.97" as="sourcePoint"/>
                        <mxPoint x="220" y="1329.97" as="targetPoint"/>
                        <Array as="points"/>
                    </mxGeometry>
                </mxCell>
                <mxCell id="nyhiukI9H8TfA03venT7-34" value="&lt;font style=&quot;font-size: 11px;&quot;&gt;&lt;span style=&quot;text-wrap: wrap; background-color: rgb(251, 251, 251);&quot;&gt;limb_n_1&lt;/span&gt;/camera_1/in/set_led&lt;/font&gt;&lt;div&gt;ms_module_msgs/srv/SetLed&lt;br&gt;&lt;/div&gt;" style="edgeLabel;html=1;align=center;verticalAlign=middle;resizable=0;points=[];" parent="nyhiukI9H8TfA03venT7-33" vertex="1" connectable="0">
                    <mxGeometry x="-0.311" y="13" relative="1" as="geometry">
                        <mxPoint x="-62" y="7" as="offset"/>
                    </mxGeometry>
                </mxCell>
                <mxCell id="nyhiukI9H8TfA03venT7-36" value="" style="curved=1;dashed=1;endArrow=classic;startArrow=classic;html=1;rounded=0;exitX=0;exitY=0.5;exitDx=0;exitDy=0;" parent="1" source="pj88vWC6h57OP6Q8nHjn-24" edge="1">
                    <mxGeometry width="50" height="50" relative="1" as="geometry">
                        <mxPoint x="541.25" y="1349.97" as="sourcePoint"/>
                        <mxPoint x="223.25" y="1394.97" as="targetPoint"/>
                        <Array as="points"/>
                    </mxGeometry>
                </mxCell>
                <mxCell id="nyhiukI9H8TfA03venT7-37" value="&lt;font style=&quot;font-size: 11px;&quot;&gt;&lt;span style=&quot;text-wrap: wrap; background-color: rgb(251, 251, 251);&quot;&gt;limb_n_1&lt;/span&gt;/camera_1/in/set_led&lt;/font&gt;&lt;div&gt;ms_module_msgs/srv/SetLed&lt;br&gt;&lt;/div&gt;" style="edgeLabel;html=1;align=center;verticalAlign=middle;resizable=0;points=[];" parent="nyhiukI9H8TfA03venT7-36" vertex="1" connectable="0">
                    <mxGeometry x="-0.311" y="13" relative="1" as="geometry">
                        <mxPoint x="-62" y="7" as="offset"/>
                    </mxGeometry>
                </mxCell>
                <mxCell id="nyhiukI9H8TfA03venT7-38" value="${leader_name}/other_node" style="ellipse;whiteSpace=wrap;html=1;dashed=1" parent="1" vertex="1">
                    <mxGeometry x="-100" y="-940" width="300" height="30" as="geometry"/>
                </mxCell>
                <mxCell id="nyhiukI9H8TfA03venT7-39" value="" style="curved=1;dashed=1;endArrow=classic;startArrow=classic;html=1;rounded=0;fontStyle=1;exitX=0;exitY=0.5;exitDx=0;exitDy=0;entryX=1;entryY=0.5;entryDx=0;entryDy=0;" parent="1" source="nyhiukI9H8TfA03venT7-38" target="nyhiukI9H8TfA03venT7-53" edge="1">
                    <mxGeometry width="50" height="50" relative="1" as="geometry">
                        <mxPoint x="-219" y="-775" as="sourcePoint"/>
                        <mxPoint x="-400" y="-870" as="targetPoint"/>
                        <Array as="points">
                            <mxPoint x="-300" y="-870"/>
                        </Array>
                    </mxGeometry>
                </mxCell>
                <mxCell id="nyhiukI9H8TfA03venT7-40" value="&lt;span style=&quot;text-wrap: wrap; background-color: rgb(251, 251, 251);&quot;&gt;lifecircle&lt;/span&gt;" style="edgeLabel;html=1;align=center;verticalAlign=middle;resizable=0;points=[];" parent="nyhiukI9H8TfA03venT7-39" vertex="1" connectable="0">
                    <mxGeometry x="-0.311" y="13" relative="1" as="geometry">
                        <mxPoint x="-21" y="-16" as="offset"/>
                    </mxGeometry>
                </mxCell>
                <mxCell id="nyhiukI9H8TfA03venT7-41" value="" style="curved=1;dashed=1;endArrow=classic;startArrow=classic;html=1;rounded=0;fontStyle=1;exitX=0;exitY=0.5;exitDx=0;exitDy=0;entryX=1;entryY=0.5;entryDx=0;entryDy=0;" parent="1" source="nyhiukI9H8TfA03venT7-29" target="nyhiukI9H8TfA03venT7-53" edge="1">
                    <mxGeometry width="50" height="50" relative="1" as="geometry">
                        <mxPoint x="-90" y="-915" as="sourcePoint"/>
                        <mxPoint x="-390" y="-860" as="targetPoint"/>
                        <Array as="points">
                            <mxPoint x="-290" y="-860"/>
                        </Array>
                    </mxGeometry>
                </mxCell>
                <mxCell id="nyhiukI9H8TfA03venT7-42" value="&lt;span style=&quot;text-wrap: wrap; background-color: rgb(251, 251, 251);&quot;&gt;lifecircle&lt;/span&gt;" style="edgeLabel;html=1;align=center;verticalAlign=middle;resizable=0;points=[];" parent="nyhiukI9H8TfA03venT7-41" vertex="1" connectable="0">
                    <mxGeometry x="-0.311" y="13" relative="1" as="geometry">
                        <mxPoint x="-21" y="-16" as="offset"/>
                    </mxGeometry>
                </mxCell>
                <mxCell id="nyhiukI9H8TfA03venT7-43" value="" style="curved=1;dashed=1;endArrow=classic;startArrow=classic;html=1;rounded=0;fontStyle=1;exitX=0;exitY=0.5;exitDx=0;exitDy=0;entryX=1;entryY=0.5;entryDx=0;entryDy=0;" parent="1" source="nyhiukI9H8TfA03venT7-30" target="nyhiukI9H8TfA03venT7-53" edge="1">
                    <mxGeometry width="50" height="50" relative="1" as="geometry">
                        <mxPoint x="-90" y="-855" as="sourcePoint"/>
                        <mxPoint x="-380" y="-850" as="targetPoint"/>
                        <Array as="points">
                            <mxPoint x="-280" y="-850"/>
                        </Array>
                    </mxGeometry>
                </mxCell>
                <mxCell id="nyhiukI9H8TfA03venT7-44" value="&lt;span style=&quot;text-wrap: wrap; background-color: rgb(251, 251, 251);&quot;&gt;lifecircle&lt;/span&gt;" style="edgeLabel;html=1;align=center;verticalAlign=middle;resizable=0;points=[];" parent="nyhiukI9H8TfA03venT7-43" vertex="1" connectable="0">
                    <mxGeometry x="-0.311" y="13" relative="1" as="geometry">
                        <mxPoint x="-21" y="-16" as="offset"/>
                    </mxGeometry>
                </mxCell>
                <mxCell id="nyhiukI9H8TfA03venT7-47" value="" style="curved=1;dashed=1;endArrow=classic;startArrow=classic;html=1;rounded=0;fontStyle=1;exitX=0;exitY=0.5;exitDx=0;exitDy=0;entryX=1;entryY=0.5;entryDx=0;entryDy=0;" parent="1" source="nyhiukI9H8TfA03venT7-23" target="nyhiukI9H8TfA03venT7-53" edge="1">
                    <mxGeometry width="50" height="50" relative="1" as="geometry">
                        <mxPoint x="-90" y="-805" as="sourcePoint"/>
                        <mxPoint x="-370" y="-840" as="targetPoint"/>
                        <Array as="points">
                            <mxPoint x="-270" y="-840"/>
                        </Array>
                    </mxGeometry>
                </mxCell>
                <mxCell id="nyhiukI9H8TfA03venT7-48" value="&lt;span style=&quot;text-wrap: wrap; background-color: rgb(251, 251, 251);&quot;&gt;lifecircle&lt;/span&gt;" style="edgeLabel;html=1;align=center;verticalAlign=middle;resizable=0;points=[];" parent="nyhiukI9H8TfA03venT7-47" vertex="1" connectable="0">
                    <mxGeometry x="-0.311" y="13" relative="1" as="geometry">
                        <mxPoint x="-21" y="-16" as="offset"/>
                    </mxGeometry>
                </mxCell>
                <mxCell id="nyhiukI9H8TfA03venT7-49" value="" style="curved=1;dashed=1;endArrow=classic;startArrow=classic;html=1;rounded=0;fontStyle=1;exitX=0;exitY=0.5;exitDx=0;exitDy=0;" parent="1" source="nyhiukI9H8TfA03venT7-24" edge="1">
                    <mxGeometry width="50" height="50" relative="1" as="geometry">
                        <mxPoint x="-90" y="-755" as="sourcePoint"/>
                        <mxPoint x="-390" y="-830" as="targetPoint"/>
                        <Array as="points">
                            <mxPoint x="-260" y="-830"/>
                        </Array>
                    </mxGeometry>
                </mxCell>
                <mxCell id="nyhiukI9H8TfA03venT7-50" value="&lt;span style=&quot;text-wrap: wrap; background-color: rgb(251, 251, 251);&quot;&gt;lifecircle&lt;/span&gt;" style="edgeLabel;html=1;align=center;verticalAlign=middle;resizable=0;points=[];" parent="nyhiukI9H8TfA03venT7-49" vertex="1" connectable="0">
                    <mxGeometry x="-0.311" y="13" relative="1" as="geometry">
                        <mxPoint x="-21" y="-16" as="offset"/>
                    </mxGeometry>
                </mxCell>
                <mxCell id="nyhiukI9H8TfA03venT7-51" value="" style="curved=1;dashed=1;endArrow=classic;startArrow=classic;html=1;rounded=0;fontStyle=1;exitX=0;exitY=0.5;exitDx=0;exitDy=0;entryX=1;entryY=0.5;entryDx=0;entryDy=0;" parent="1" source="nyhiukI9H8TfA03venT7-25" target="nyhiukI9H8TfA03venT7-53" edge="1">
                    <mxGeometry width="50" height="50" relative="1" as="geometry">
                        <mxPoint x="-90" y="-705" as="sourcePoint"/>
                        <mxPoint x="-350" y="-820" as="targetPoint"/>
                        <Array as="points">
                            <mxPoint x="-250" y="-820"/>
                        </Array>
                    </mxGeometry>
                </mxCell>
                <mxCell id="nyhiukI9H8TfA03venT7-52" value="&lt;span style=&quot;text-wrap: wrap; background-color: rgb(251, 251, 251);&quot;&gt;lifecircle&lt;/span&gt;" style="edgeLabel;html=1;align=center;verticalAlign=middle;resizable=0;points=[];" parent="nyhiukI9H8TfA03venT7-51" vertex="1" connectable="0">
                    <mxGeometry x="-0.311" y="13" relative="1" as="geometry">
                        <mxPoint x="-21" y="-16" as="offset"/>
                    </mxGeometry>
                </mxCell>
                <mxCell id="nyhiukI9H8TfA03venT7-53" value="${leader_name}/task_switch_sever_node" style="ellipse;whiteSpace=wrap;html=1;dashed=1" parent="1" vertex="1">
                    <mxGeometry x="-650" y="-850" width="260" height="30" as="geometry"/>
                </mxCell>
                <mxCell id="nyhiukI9H8TfA03venT7-54" value="" style="curved=1;dashed=1;endArrow=classic;startArrow=classic;html=1;rounded=0;exitX=0;exitY=0.5;exitDx=0;exitDy=0;entryX=1;entryY=0;entryDx=0;entryDy=0;" parent="1" source="nyhiukI9H8TfA03venT7-53" target="sj2KEVbgfBqhwTsqNgVq-8" edge="1">
                    <mxGeometry width="50" height="50" relative="1" as="geometry">
                        <mxPoint x="-667" y="-764" as="sourcePoint"/>
                        <mxPoint x="-970" y="-820" as="targetPoint"/>
                        <Array as="points">
                            <mxPoint x="-860" y="-880"/>
                        </Array>
                    </mxGeometry>
                </mxCell>
                <mxCell id="nyhiukI9H8TfA03venT7-55" value="&lt;font style=&quot;font-size: 11px;&quot;&gt;&lt;span style=&quot;text-wrap: wrap; background-color: rgb(251, 251, 251);&quot;&gt;${&lt;/span&gt;&lt;span style=&quot;text-wrap: wrap; background-color: rgb(251, 251, 251);&quot;&gt;leader_name&lt;/span&gt;&lt;span style=&quot;text-wrap: wrap; background-color: rgb(251, 251, 251);&quot;&gt;}/in&lt;/span&gt;/set_task&lt;/font&gt;&lt;div&gt;&lt;div&gt;ms_module_msgs/msg/SetTask&lt;/div&gt;&lt;/div&gt;" style="edgeLabel;html=1;align=center;verticalAlign=middle;resizable=0;points=[];" parent="nyhiukI9H8TfA03venT7-54" vertex="1" connectable="0">
                    <mxGeometry x="-0.311" y="13" relative="1" as="geometry">
                        <mxPoint x="-43" y="-9" as="offset"/>
                    </mxGeometry>
                </mxCell>
                <mxCell id="nyhiukI9H8TfA03venT7-59" value="pnp_gateway/navigation_cmd_node" style="ellipse;whiteSpace=wrap;html=1;dashed=1" parent="1" vertex="1">
                    <mxGeometry x="-2460" y="-560" width="320" height="30" as="geometry"/>
                </mxCell>
                <mxCell id="nyhiukI9H8TfA03venT7-60" value="pnp_gateway/manipulator_direct_control_cmd_node" style="ellipse;whiteSpace=wrap;html=1;dashed=1" parent="1" vertex="1">
                    <mxGeometry x="-2450" y="-610" width="320" height="30" as="geometry"/>
                </mxCell>
                <mxCell id="nyhiukI9H8TfA03venT7-61" value="" style="curved=1;dashed=1;endArrow=classic;startArrow=classic;html=1;rounded=0;exitX=0.237;exitY=0.976;exitDx=0;exitDy=0;exitPerimeter=0;entryX=1;entryY=0.5;entryDx=0;entryDy=0;" parent="1" source="nyhiukI9H8TfA03venT7-53" target="sj2KEVbgfBqhwTsqNgVq-8" edge="1">
                    <mxGeometry width="50" height="50" relative="1" as="geometry">
                        <mxPoint x="-640" y="-825" as="sourcePoint"/>
                        <mxPoint x="-990" y="-720" as="targetPoint"/>
                        <Array as="points">
                            <mxPoint x="-830" y="-800"/>
                        </Array>
                    </mxGeometry>
                </mxCell>
                <mxCell id="nyhiukI9H8TfA03venT7-62" value="&lt;font style=&quot;font-size: 11px;&quot;&gt;&lt;span style=&quot;text-wrap: wrap; background-color: rgb(251, 251, 251);&quot;&gt;${&lt;/span&gt;&lt;span style=&quot;text-wrap: wrap; background-color: rgb(251, 251, 251);&quot;&gt;leader_name&lt;/span&gt;&lt;span style=&quot;text-wrap: wrap; background-color: rgb(251, 251, 251);&quot;&gt;}/out&lt;/span&gt;/get_current_task&lt;/font&gt;&lt;div&gt;&lt;div&gt;ms_module_msgs/msg/GetCurrentTask&lt;/div&gt;&lt;/div&gt;" style="edgeLabel;html=1;align=center;verticalAlign=middle;resizable=0;points=[];" parent="nyhiukI9H8TfA03venT7-61" vertex="1" connectable="0">
                    <mxGeometry x="-0.311" y="13" relative="1" as="geometry">
                        <mxPoint x="-43" y="-9" as="offset"/>
                    </mxGeometry>
                </mxCell>
                <mxCell id="yQJbbO6t7TMH2AqlpUm4-1" value="&lt;div&gt;注意点：ノードに改造&lt;/div&gt;" style="text;html=1;align=center;verticalAlign=middle;resizable=0;points=[];autosize=1;strokeColor=none;fillColor=none;" parent="1" vertex="1">
                    <mxGeometry x="653.75" y="974.97" width="140" height="30" as="geometry"/>
                </mxCell>
                <mxCell id="yQJbbO6t7TMH2AqlpUm4-3" value="&lt;div&gt;&lt;font style=&quot;font-size: 36px;&quot;&gt;&lt;span style=&quot;background-color: initial;&quot;&gt;下位/&lt;/span&gt;&lt;/font&gt;&lt;span style=&quot;background-color: initial; font-size: 36px;&quot;&gt;中位ノード:&lt;/span&gt;&lt;span style=&quot;background-color: initial; font-size: 36px;&quot;&gt;カメラとAR認識&lt;/span&gt;&lt;/div&gt;" style="text;html=1;align=center;verticalAlign=middle;resizable=0;points=[];autosize=1;strokeColor=none;fillColor=none;movable=0;rotatable=0;deletable=0;editable=0;locked=1;connectable=0;" parent="1" vertex="1">
                    <mxGeometry x="-695" y="894.97" width="560" height="60" as="geometry"/>
                </mxCell>
                <mxCell id="yQJbbO6t7TMH2AqlpUm4-4" value="&lt;div&gt;&lt;font style=&quot;font-size: 36px;&quot;&gt;自律遷移計画&lt;/font&gt;&lt;/div&gt;" style="text;html=1;align=center;verticalAlign=middle;resizable=0;points=[];autosize=1;strokeColor=none;fillColor=none;movable=0;rotatable=0;deletable=0;editable=0;locked=1;connectable=0;" parent="1" vertex="1">
                    <mxGeometry x="-2120" y="-250" width="240" height="60" as="geometry"/>
                </mxCell>
                <mxCell id="yQJbbO6t7TMH2AqlpUm4-6" value="&lt;div&gt;&lt;font style=&quot;font-size: 36px;&quot;&gt;PnPServer&lt;/font&gt;&lt;/div&gt;" style="text;html=1;align=center;verticalAlign=middle;resizable=0;points=[];autosize=1;strokeColor=none;fillColor=none;movable=0;rotatable=0;deletable=0;editable=0;locked=1;connectable=0;" parent="1" vertex="1">
                    <mxGeometry x="-2390" y="-760" width="200" height="60" as="geometry"/>
                </mxCell>
                <mxCell id="yQJbbO6t7TMH2AqlpUm4-8" value="&lt;div&gt;&lt;font style=&quot;font-size: 36px;&quot;&gt;下位ノード&lt;/font&gt;&lt;/div&gt;" style="text;html=1;align=center;verticalAlign=middle;resizable=0;points=[];autosize=1;strokeColor=none;fillColor=none;movable=0;rotatable=0;deletable=0;editable=0;locked=1;connectable=0;" parent="1" vertex="1">
                    <mxGeometry x="1225" y="-250" width="200" height="60" as="geometry"/>
                </mxCell>
                <mxCell id="CaPUdUrSTXcfTP8RpT9N-2" value="" style="curved=1;endArrow=classic;html=1;rounded=0;entryX=1;entryY=1;entryDx=0;entryDy=0;exitX=1;exitY=0;exitDx=0;exitDy=0;" parent="1" source="pj88vWC6h57OP6Q8nHjn-6" target="pj88vWC6h57OP6Q8nHjn-147" edge="1">
                    <mxGeometry width="50" height="50" relative="1" as="geometry">
                        <mxPoint x="810" y="-420" as="sourcePoint"/>
                        <mxPoint x="870" y="-270" as="targetPoint"/>
                        <Array as="points">
                            <mxPoint x="930" y="-390"/>
                        </Array>
                    </mxGeometry>
                </mxCell>
                <mxCell id="CaPUdUrSTXcfTP8RpT9N-3" value="&lt;font style=&quot;font-size: 11px;&quot;&gt;&lt;span style=&quot;text-wrap: wrap; background-color: rgb(251, 251, 251);&quot;&gt;limb_n_1&lt;/span&gt;/joint/out/joint_error_state_list&lt;br&gt;&lt;/font&gt;ms_module_msgs/msg/JointErrorStateList" style="edgeLabel;html=1;align=center;verticalAlign=middle;resizable=0;points=[];" parent="CaPUdUrSTXcfTP8RpT9N-2" vertex="1" connectable="0">
                    <mxGeometry x="-0.033" y="3" relative="1" as="geometry">
                        <mxPoint x="-99" y="-151" as="offset"/>
                    </mxGeometry>
                </mxCell>
                <mxCell id="CaPUdUrSTXcfTP8RpT9N-4" value="" style="curved=1;endArrow=classic;html=1;rounded=0;entryX=0.306;entryY=1.071;entryDx=0;entryDy=0;entryPerimeter=0;exitX=0;exitY=0;exitDx=0;exitDy=0;" parent="1" source="pj88vWC6h57OP6Q8nHjn-6" target="pj88vWC6h57OP6Q8nHjn-147" edge="1">
                    <mxGeometry width="50" height="50" relative="1" as="geometry">
                        <mxPoint x="530" y="-200" as="sourcePoint"/>
                        <mxPoint x="640" y="-210" as="targetPoint"/>
                        <Array as="points">
                            <mxPoint x="400" y="-220"/>
                        </Array>
                    </mxGeometry>
                </mxCell>
                <mxCell id="6JLfoxV67toX3LOE41A0-1" value="&lt;font style=&quot;font-size: 11px;&quot;&gt;&lt;span style=&quot;text-wrap: wrap; background-color: rgb(251, 251, 251);&quot;&gt;limb_n_1&lt;/span&gt;/joint/out/all_joint_state&lt;/font&gt;&lt;div&gt;sensor_msgs/msg/AllJointState&lt;/div&gt;" style="edgeLabel;html=1;align=center;verticalAlign=middle;resizable=0;points=[];" parent="1" vertex="1" connectable="0">
                    <mxGeometry x="519.9569669029065" y="-540.0047798853352" as="geometry"/>
                </mxCell>
                <mxCell id="6JLfoxV67toX3LOE41A0-3" value="limb_n_1/battery/battery_handler" style="ellipse;whiteSpace=wrap;html=1;" parent="1" vertex="1">
                    <mxGeometry x="1245.63" y="780" width="232.5" height="30" as="geometry"/>
                </mxCell>
                <mxCell id="O5rZDjrpIh9tF4p4WS01-6" value="limb_n_1/network_handler" style="ellipse;whiteSpace=wrap;html=1;" parent="1" vertex="1">
                    <mxGeometry x="1240.63" y="685" width="232.5" height="30" as="geometry"/>
                </mxCell>
                <mxCell id="O5rZDjrpIh9tF4p4WS01-7" value="有線・無線を切換えし、ROS2の通信障害を探知&lt;div&gt;１・有線がない時は無線を有効にする&lt;br&gt;&lt;div&gt;２・有線がある時に、&lt;span style=&quot;background-color: initial;&quot;&gt;結合信号を観測し、LOOPを生成しないように、どの有線が有効するか自力で判断&lt;/span&gt;&lt;/div&gt;&lt;/div&gt;" style="text;html=1;align=center;verticalAlign=middle;resizable=0;points=[];autosize=1;strokeColor=none;fillColor=none;" parent="1" vertex="1">
                    <mxGeometry x="1071.88" y="630" width="580" height="60" as="geometry"/>
                </mxCell>
                <mxCell id="O5rZDjrpIh9tF4p4WS01-14" value="limb_n_1/encoder_handler" style="ellipse;whiteSpace=wrap;html=1;" parent="1" vertex="1">
                    <mxGeometry x="1275" y="-105" width="180" height="30" as="geometry"/>
                </mxCell>
                <mxCell id="O5rZDjrpIh9tF4p4WS01-15" value="" style="curved=1;endArrow=classic;html=1;rounded=0;exitX=0;exitY=0.5;exitDx=0;exitDy=0;" parent="1" source="O5rZDjrpIh9tF4p4WS01-14" edge="1">
                    <mxGeometry width="50" height="50" relative="1" as="geometry">
                        <mxPoint x="1291" y="155" as="sourcePoint"/>
                        <mxPoint x="730" y="-200" as="targetPoint"/>
                        <Array as="points">
                            <mxPoint x="1000" y="-170"/>
                        </Array>
                    </mxGeometry>
                </mxCell>
                <mxCell id="O5rZDjrpIh9tF4p4WS01-19" value="" style="curved=1;dashed=1;endArrow=classic;startArrow=classic;html=1;rounded=0;exitX=0;exitY=0.5;exitDx=0;exitDy=0;entryX=1;entryY=0;entryDx=0;entryDy=0;" parent="1" source="pj88vWC6h57OP6Q8nHjn-137" target="pj88vWC6h57OP6Q8nHjn-126" edge="1">
                    <mxGeometry width="50" height="50" relative="1" as="geometry">
                        <mxPoint x="-100" y="-95" as="sourcePoint"/>
                        <mxPoint x="-850" y="25" as="targetPoint"/>
                        <Array as="points"/>
                    </mxGeometry>
                </mxCell>
                <mxCell id="O5rZDjrpIh9tF4p4WS01-20" value="&lt;font style=&quot;font-size: 11px;&quot;&gt;&lt;span style=&quot;text-wrap: wrap; background-color: rgb(251, 251, 251);&quot;&gt;limb_n_1&lt;/span&gt;/out/get_module_error_state&lt;/font&gt;&lt;div&gt;ms_module_msgs/srv/GetModuleErrorState&lt;/div&gt;" style="edgeLabel;html=1;align=center;verticalAlign=middle;resizable=0;points=[];" parent="O5rZDjrpIh9tF4p4WS01-19" vertex="1" connectable="0">
                    <mxGeometry x="-0.311" y="13" relative="1" as="geometry">
                        <mxPoint x="-63" as="offset"/>
                    </mxGeometry>
                </mxCell>
                <mxCell id="O5rZDjrpIh9tF4p4WS01-25" value="" style="curved=1;dashed=1;endArrow=classic;startArrow=classic;html=1;rounded=0;exitX=0;exitY=0.5;exitDx=0;exitDy=0;" parent="1" source="6JLfoxV67toX3LOE41A0-3" edge="1">
                    <mxGeometry width="50" height="50" relative="1" as="geometry">
                        <mxPoint x="1287.13" y="815" as="sourcePoint"/>
                        <mxPoint x="920" y="795.44" as="targetPoint"/>
                        <Array as="points"/>
                    </mxGeometry>
                </mxCell>
                <mxCell id="O5rZDjrpIh9tF4p4WS01-26" value="&lt;font style=&quot;font-size: 11px;&quot;&gt;&lt;span style=&quot;text-wrap: wrap; background-color: rgb(251, 251, 251);&quot;&gt;limb_n_1&lt;/span&gt;/battery/out/&lt;/font&gt;get_battery_error_state&lt;div&gt;ms_module_msgs/srv/GetBatteryState&lt;br&gt;&lt;/div&gt;" style="edgeLabel;html=1;align=center;verticalAlign=middle;resizable=0;points=[];" parent="O5rZDjrpIh9tF4p4WS01-25" vertex="1" connectable="0">
                    <mxGeometry x="-0.311" y="13" relative="1" as="geometry">
                        <mxPoint x="-62" y="-3" as="offset"/>
                    </mxGeometry>
                </mxCell>
                <mxCell id="O5rZDjrpIh9tF4p4WS01-27" value="" style="curved=1;dashed=1;endArrow=classic;startArrow=classic;html=1;rounded=0;exitX=0;exitY=0.5;exitDx=0;exitDy=0;" parent="1" source="O5rZDjrpIh9tF4p4WS01-6" edge="1">
                    <mxGeometry width="50" height="50" relative="1" as="geometry">
                        <mxPoint x="1236.13" y="692.5" as="sourcePoint"/>
                        <mxPoint x="920" y="696.44" as="targetPoint"/>
                        <Array as="points"/>
                    </mxGeometry>
                </mxCell>
                <mxCell id="O5rZDjrpIh9tF4p4WS01-28" value="&lt;font style=&quot;font-size: 11px;&quot;&gt;&lt;span style=&quot;text-wrap: wrap; background-color: rgb(251, 251, 251);&quot;&gt;limb_n_1&lt;/span&gt;/network/out/&lt;/font&gt;get_network_state&lt;div&gt;ms_module_msgs/srv/GetNetworkState&lt;br&gt;&lt;/div&gt;" style="edgeLabel;html=1;align=center;verticalAlign=middle;resizable=0;points=[];" parent="O5rZDjrpIh9tF4p4WS01-27" vertex="1" connectable="0">
                    <mxGeometry x="-0.311" y="13" relative="1" as="geometry">
                        <mxPoint x="-62" y="-3" as="offset"/>
                    </mxGeometry>
                </mxCell>
                <mxCell id="98VW2B6NLDZTcrvkhENb-1" value="limb_n_1/extra_endeffector_node" style="ellipse;whiteSpace=wrap;html=1;" parent="1" vertex="1">
                    <mxGeometry x="519.96" y="440" width="290" height="30" as="geometry"/>
                </mxCell>
                <mxCell id="98VW2B6NLDZTcrvkhENb-2" value="全ての外付きモジュール種類は、DymixelMotorのIDで区別する&lt;div&gt;上位のノードに自分が機能しているかどうかを報告する&lt;/div&gt;" style="text;html=1;align=center;verticalAlign=middle;resizable=0;points=[];autosize=1;strokeColor=none;fillColor=none;" parent="1" vertex="1">
                    <mxGeometry x="519.96" y="394.99999999999994" width="360" height="40" as="geometry"/>
                </mxCell>
                <mxCell id="98VW2B6NLDZTcrvkhENb-4" value="limb_n_1/extra_wheel_node" style="ellipse;whiteSpace=wrap;html=1;" parent="1" vertex="1">
                    <mxGeometry x="516.25" y="590" width="306.87" height="30" as="geometry"/>
                </mxCell>
                <mxCell id="cemSykjqw49eSBryxhOo-1" value="limb_n_1/robot_state_publisher_node" style="ellipse;whiteSpace=wrap;html=1;" parent="1" vertex="1">
                    <mxGeometry x="231.88" y="-400" width="228.12" height="30" as="geometry"/>
                </mxCell>
                <mxCell id="cemSykjqw49eSBryxhOo-3" value="" style="curved=1;endArrow=classic;html=1;rounded=0;exitX=0;exitY=0;exitDx=0;exitDy=0;entryX=0.5;entryY=1;entryDx=0;entryDy=0;" parent="1" source="pj88vWC6h57OP6Q8nHjn-6" target="cemSykjqw49eSBryxhOo-1" edge="1">
                    <mxGeometry width="50" height="50" relative="1" as="geometry">
                        <mxPoint x="540" y="-195" as="sourcePoint"/>
                        <mxPoint x="156" y="-106" as="targetPoint"/>
                        <Array as="points">
                            <mxPoint x="370" y="-240"/>
                        </Array>
                    </mxGeometry>
                </mxCell>
                <mxCell id="cemSykjqw49eSBryxhOo-6" value="&lt;span style=&quot;text-wrap: wrap; background-color: rgb(251, 251, 251);&quot;&gt;limb_n_1&lt;/span&gt;/joint/out/joint_state&lt;div&gt;sensor_msgs/msg/JointState&lt;/div&gt;" style="edgeLabel;html=1;align=center;verticalAlign=middle;resizable=0;points=[];" parent="cemSykjqw49eSBryxhOo-3" vertex="1" connectable="0">
                    <mxGeometry x="0.1186" y="-7" relative="1" as="geometry">
                        <mxPoint x="14" y="-36" as="offset"/>
                    </mxGeometry>
                </mxCell>
                <mxCell id="jG70ef_n0GU83-9JPsaq-1" value="&lt;font style=&quot;font-size: 12px;&quot;&gt;body_n_1/lidar_&lt;span style=&quot;text-wrap: nowrap; background-color: rgb(255, 255, 255);&quot;&gt;1&lt;/span&gt;/livox_ros_driver_node&lt;/font&gt;" style="ellipse;whiteSpace=wrap;html=1;" parent="1" vertex="1">
                    <mxGeometry x="963.13" y="2120" width="256.87" height="30" as="geometry"/>
                </mxCell>
                <mxCell id="jG70ef_n0GU83-9JPsaq-3" value="&lt;div&gt;&lt;font style=&quot;font-size: 36px;&quot;&gt;Body特別ノード群&lt;/font&gt;&lt;/div&gt;" style="text;html=1;align=center;verticalAlign=middle;resizable=0;points=[];autosize=1;strokeColor=none;fillColor=none;" parent="1" vertex="1">
                    <mxGeometry x="-610" y="1680" width="320" height="60" as="geometry"/>
                </mxCell>
                <mxCell id="jG70ef_n0GU83-9JPsaq-4" value="&lt;font style=&quot;font-size: 12px;&quot;&gt;body_n_1/lidar_&lt;span style=&quot;text-wrap: nowrap; background-color: rgb(255, 255, 255);&quot;&gt;1&lt;/span&gt;/lio_livox&lt;/font&gt;" style="ellipse;whiteSpace=wrap;html=1;" parent="1" vertex="1">
                    <mxGeometry x="483.13" y="2120" width="233.75" height="30" as="geometry"/>
                </mxCell>
                <mxCell id="jG70ef_n0GU83-9JPsaq-8" value="&lt;font style=&quot;font-size: 12px;&quot;&gt;body_n_1/depthcamera/realsense_node&lt;/font&gt;" style="ellipse;whiteSpace=wrap;html=1;" parent="1" vertex="1">
                    <mxGeometry x="967.18" y="1520" width="225.63" height="30" as="geometry"/>
                </mxCell>
                <mxCell id="jG70ef_n0GU83-9JPsaq-9" value="&lt;font style=&quot;font-size: 12px;&quot;&gt;body_n_1/depthcamera/motor_node&lt;/font&gt;" style="ellipse;whiteSpace=wrap;html=1;" parent="1" vertex="1">
                    <mxGeometry x="575.01" y="1760" width="233.75" height="30" as="geometry"/>
                </mxCell>
                <mxCell id="jG70ef_n0GU83-9JPsaq-11" value="&lt;div&gt;&lt;font style=&quot;font-size: 36px;&quot;&gt;中位ノード&lt;/font&gt;&lt;/div&gt;" style="text;html=1;align=center;verticalAlign=middle;resizable=0;points=[];autosize=1;strokeColor=none;fillColor=none;movable=0;rotatable=0;deletable=0;editable=0;locked=1;connectable=0;" parent="1" vertex="1">
                    <mxGeometry x="892.5" y="-260" width="200" height="60" as="geometry"/>
                </mxCell>
                <mxCell id="jG70ef_n0GU83-9JPsaq-14" value="" style="curved=1;dashed=1;endArrow=classic;startArrow=classic;html=1;rounded=0;entryX=1;entryY=0.5;entryDx=0;entryDy=0;" parent="1" source="pj88vWC6h57OP6Q8nHjn-2" target="pj88vWC6h57OP6Q8nHjn-126" edge="1">
                    <mxGeometry width="50" height="50" relative="1" as="geometry">
                        <mxPoint x="540" y="60" as="sourcePoint"/>
                        <mxPoint x="-373" y="65" as="targetPoint"/>
                        <Array as="points">
                            <mxPoint x="50" y="185"/>
                        </Array>
                    </mxGeometry>
                </mxCell>
                <mxCell id="jG70ef_n0GU83-9JPsaq-15" value="&lt;font style=&quot;font-size: 11px;&quot;&gt;&lt;span style=&quot;text-wrap: wrap; background-color: rgb(251, 251, 251);&quot;&gt;limb_n_1&lt;/span&gt;/connector/out/get_all_connector_state&lt;/font&gt;&lt;div&gt;ms_module_msgs/srv/GetConnectorState&lt;/div&gt;" style="edgeLabel;html=1;align=center;verticalAlign=middle;resizable=0;points=[];" parent="jG70ef_n0GU83-9JPsaq-14" vertex="1" connectable="0">
                    <mxGeometry x="-0.311" y="13" relative="1" as="geometry">
                        <mxPoint x="-49" y="-3" as="offset"/>
                    </mxGeometry>
                </mxCell>
                <mxCell id="jG70ef_n0GU83-9JPsaq-16" value="&lt;font style=&quot;font-size: 12px;&quot;&gt;body_n_1/lidar/motor_node&lt;/font&gt;" style="ellipse;whiteSpace=wrap;html=1;" parent="1" vertex="1">
                    <mxGeometry x="580.01" y="1900" width="233.75" height="30" as="geometry"/>
                </mxCell>
                <mxCell id="jG70ef_n0GU83-9JPsaq-17" value="" style="curved=1;dashed=1;endArrow=classic;startArrow=classic;html=1;rounded=0;exitX=0;exitY=0.5;exitDx=0;exitDy=0;" parent="1" source="jG70ef_n0GU83-9JPsaq-16" edge="1">
                    <mxGeometry width="50" height="50" relative="1" as="geometry">
                        <mxPoint x="550.01" y="1850" as="sourcePoint"/>
                        <mxPoint x="60.010000000000005" y="1950.97" as="targetPoint"/>
                        <Array as="points">
                            <mxPoint x="280.01" y="1940.97"/>
                        </Array>
                    </mxGeometry>
                </mxCell>
                <mxCell id="jG70ef_n0GU83-9JPsaq-18" value="&lt;font style=&quot;font-size: 11px;&quot;&gt;&lt;span style=&quot;font-size: 12px; text-wrap: wrap; background-color: rgb(251, 251, 251);&quot;&gt;body_n_1&lt;/span&gt;/lidar/in/set_orientation&lt;br&gt;&lt;/font&gt;&lt;div&gt;ms_module_msgs/srv/SetOrientation&lt;/div&gt;" style="edgeLabel;html=1;align=center;verticalAlign=middle;resizable=0;points=[];" parent="jG70ef_n0GU83-9JPsaq-17" vertex="1" connectable="0">
                    <mxGeometry x="-0.311" y="13" relative="1" as="geometry">
                        <mxPoint x="-69" y="-3" as="offset"/>
                    </mxGeometry>
                </mxCell>
                <mxCell id="jG70ef_n0GU83-9JPsaq-21" value="" style="curved=1;dashed=1;endArrow=classic;startArrow=classic;html=1;rounded=0;exitX=0;exitY=0.5;exitDx=0;exitDy=0;" parent="1" source="jG70ef_n0GU83-9JPsaq-9" edge="1">
                    <mxGeometry width="50" height="50" relative="1" as="geometry">
                        <mxPoint x="583.13" y="1760" as="sourcePoint"/>
                        <mxPoint x="63.13" y="1795.97" as="targetPoint"/>
                        <Array as="points">
                            <mxPoint x="283.13" y="1785.97"/>
                        </Array>
                    </mxGeometry>
                </mxCell>
                <mxCell id="jG70ef_n0GU83-9JPsaq-22" value="&lt;font style=&quot;font-size: 11px;&quot;&gt;&lt;span style=&quot;font-size: 12px; text-wrap: wrap; background-color: rgb(251, 251, 251);&quot;&gt;body_n_1&lt;/span&gt;/depthcamera/in/set_orientation&lt;br&gt;&lt;/font&gt;&lt;div&gt;ms_module_msgs/srv/SetOrientation&lt;/div&gt;" style="edgeLabel;html=1;align=center;verticalAlign=middle;resizable=0;points=[];" parent="jG70ef_n0GU83-9JPsaq-21" vertex="1" connectable="0">
                    <mxGeometry x="-0.311" y="13" relative="1" as="geometry">
                        <mxPoint x="-65" y="-1" as="offset"/>
                    </mxGeometry>
                </mxCell>
                <mxCell id="jG70ef_n0GU83-9JPsaq-23" value="" style="curved=1;endArrow=classic;html=1;rounded=0;entryX=0;entryY=1;entryDx=0;entryDy=0;" parent="1" target="jG70ef_n0GU83-9JPsaq-9" edge="1">
                    <mxGeometry width="50" height="50" relative="1" as="geometry">
                        <mxPoint x="223.13" y="1870" as="sourcePoint"/>
                        <mxPoint x="228.13" y="1869.03" as="targetPoint"/>
                        <Array as="points">
                            <mxPoint x="303.13" y="1860"/>
                        </Array>
                    </mxGeometry>
                </mxCell>
                <mxCell id="jG70ef_n0GU83-9JPsaq-24" value="&lt;font style=&quot;font-size: 11px;&quot;&gt;&lt;span style=&quot;font-size: 12px; text-wrap: wrap; background-color: rgb(251, 251, 251);&quot;&gt;body_n_1&lt;/span&gt;/depthcamera/in/pose&lt;/font&gt;&lt;div&gt;geometry_msgs/msg/Pose&lt;br&gt;&lt;/div&gt;" style="edgeLabel;html=1;align=center;verticalAlign=middle;resizable=0;points=[];" parent="jG70ef_n0GU83-9JPsaq-23" vertex="1" connectable="0">
                    <mxGeometry x="-0.1633" y="12" relative="1" as="geometry">
                        <mxPoint x="-57" y="10" as="offset"/>
                    </mxGeometry>
                </mxCell>
                <mxCell id="jG70ef_n0GU83-9JPsaq-25" value="body_n_1/dymixel_handle" style="ellipse;whiteSpace=wrap;html=1;" parent="1" vertex="1">
                    <mxGeometry x="993.13" y="1840" width="180" height="30" as="geometry"/>
                </mxCell>
                <mxCell id="jG70ef_n0GU83-9JPsaq-26" value="" style="curved=1;endArrow=classic;html=1;rounded=0;entryX=1;entryY=0.5;entryDx=0;entryDy=0;exitX=0;exitY=0.5;exitDx=0;exitDy=0;" parent="1" source="jG70ef_n0GU83-9JPsaq-25" target="jG70ef_n0GU83-9JPsaq-9" edge="1">
                    <mxGeometry width="50" height="50" relative="1" as="geometry">
                        <mxPoint x="983.13" y="1860" as="sourcePoint"/>
                        <mxPoint x="238.13" y="1879.03" as="targetPoint"/>
                        <Array as="points"/>
                    </mxGeometry>
                </mxCell>
                <mxCell id="jG70ef_n0GU83-9JPsaq-28" value="" style="curved=1;endArrow=classic;html=1;rounded=0;exitX=0;exitY=0.5;exitDx=0;exitDy=0;entryX=1;entryY=0.5;entryDx=0;entryDy=0;" parent="1" source="jG70ef_n0GU83-9JPsaq-25" target="jG70ef_n0GU83-9JPsaq-16" edge="1">
                    <mxGeometry width="50" height="50" relative="1" as="geometry">
                        <mxPoint x="1003.13" y="1865" as="sourcePoint"/>
                        <mxPoint x="903.13" y="1940" as="targetPoint"/>
                        <Array as="points"/>
                    </mxGeometry>
                </mxCell>
                <mxCell id="jG70ef_n0GU83-9JPsaq-30" value="limb_n_1/imu_handler" style="ellipse;whiteSpace=wrap;html=1;" parent="1" vertex="1">
                    <mxGeometry x="1275" y="330" width="180" height="30" as="geometry"/>
                </mxCell>
                <mxCell id="jG70ef_n0GU83-9JPsaq-31" value="" style="curved=1;endArrow=classic;html=1;rounded=0;exitX=0;exitY=0.5;exitDx=0;exitDy=0;entryX=1;entryY=0.5;entryDx=0;entryDy=0;" parent="1" source="jG70ef_n0GU83-9JPsaq-30" target="jG70ef_n0GU83-9JPsaq-33" edge="1">
                    <mxGeometry width="50" height="50" relative="1" as="geometry">
                        <mxPoint x="1260" y="395" as="sourcePoint"/>
                        <mxPoint x="730" y="245" as="targetPoint"/>
                        <Array as="points"/>
                    </mxGeometry>
                </mxCell>
                <mxCell id="jG70ef_n0GU83-9JPsaq-32" value="&lt;font style=&quot;font-size: 11px;&quot;&gt;&lt;span style=&quot;text-wrap: wrap; background-color: rgb(251, 251, 251);&quot;&gt;limb_n_1&lt;/span&gt;/imu/out/imu&lt;/font&gt;&lt;div&gt;sensor_msgs/msg/Imu&lt;/div&gt;" style="edgeLabel;html=1;align=center;verticalAlign=middle;resizable=0;points=[];" parent="jG70ef_n0GU83-9JPsaq-31" vertex="1" connectable="0">
                    <mxGeometry x="-0.0796" relative="1" as="geometry">
                        <mxPoint as="offset"/>
                    </mxGeometry>
                </mxCell>
                <mxCell id="jG70ef_n0GU83-9JPsaq-33" value="limb_n_1/module_pose_node" style="ellipse;whiteSpace=wrap;html=1;" parent="1" vertex="1">
                    <mxGeometry x="530" y="320" width="260" height="30" as="geometry"/>
                </mxCell>
                <mxCell id="sj2KEVbgfBqhwTsqNgVq-1" value="モジュールの中心位置&lt;div&gt;１．結合していれば、結合位置と関節角度で計算&lt;/div&gt;&lt;div&gt;２．結合していなければ、IMUで姿勢のみを出力&lt;/div&gt;" style="text;html=1;align=center;verticalAlign=middle;resizable=0;points=[];autosize=1;strokeColor=none;fillColor=none;" parent="1" vertex="1">
                    <mxGeometry x="515" y="260" width="290" height="60" as="geometry"/>
                </mxCell>
                <mxCell id="sj2KEVbgfBqhwTsqNgVq-5" value="" style="curved=1;endArrow=classic;html=1;rounded=0;entryX=0.5;entryY=1;entryDx=0;entryDy=0;" parent="1" target="pj88vWC6h57OP6Q8nHjn-6" edge="1">
                    <mxGeometry width="50" height="50" relative="1" as="geometry">
                        <mxPoint x="20" as="sourcePoint"/>
                        <mxPoint x="590" y="-180" as="targetPoint"/>
                        <Array as="points">
                            <mxPoint x="380" y="-30"/>
                        </Array>
                    </mxGeometry>
                </mxCell>
                <mxCell id="jG70ef_n0GU83-9JPsaq-12" value="" style="curved=1;endArrow=classic;html=1;rounded=0;entryX=0;entryY=0;entryDx=0;entryDy=0;exitX=1;exitY=1;exitDx=0;exitDy=0;" parent="1" source="pj88vWC6h57OP6Q8nHjn-150" target="pj88vWC6h57OP6Q8nHjn-2" edge="1">
                    <mxGeometry width="50" height="50" relative="1" as="geometry">
                        <mxPoint x="-950" y="-340" as="sourcePoint"/>
                        <mxPoint x="378.67999999999364" y="-67.81" as="targetPoint"/>
                        <Array as="points">
                            <mxPoint x="-850" y="50"/>
                            <mxPoint x="60" y="-10"/>
                        </Array>
                    </mxGeometry>
                </mxCell>
                <mxCell id="jG70ef_n0GU83-9JPsaq-13" value="&lt;font style=&quot;font-size: 11px;&quot;&gt;&lt;span style=&quot;text-wrap: wrap; background-color: rgb(251, 251, 251);&quot;&gt;limb_n_1&lt;/span&gt;/who_is_my_leader&lt;/font&gt;&lt;div&gt;ms_module_msgs/msg/LeaderName&lt;br&gt;&lt;/div&gt;" style="edgeLabel;html=1;align=center;verticalAlign=middle;resizable=0;points=[];" parent="jG70ef_n0GU83-9JPsaq-12" vertex="1" connectable="0">
                    <mxGeometry x="-0.0796" relative="1" as="geometry">
                        <mxPoint x="412" y="-23" as="offset"/>
                    </mxGeometry>
                </mxCell>
                <mxCell id="sj2KEVbgfBqhwTsqNgVq-8" value="${leader_name}/task_manager_node" style="ellipse;whiteSpace=wrap;html=1;dashed=1" parent="1" vertex="1">
                    <mxGeometry x="-1329" y="-840" width="260" height="30" as="geometry"/>
                </mxCell>
                <mxCell id="sj2KEVbgfBqhwTsqNgVq-9" value="" style="curved=1;dashed=1;endArrow=classic;startArrow=classic;html=1;rounded=0;entryX=0.5;entryY=0;entryDx=0;entryDy=0;exitX=0.5;exitY=1;exitDx=0;exitDy=0;" parent="1" source="sj2KEVbgfBqhwTsqNgVq-8" target="sj2KEVbgfBqhwTsqNgVq-11" edge="1">
                    <mxGeometry width="50" height="50" relative="1" as="geometry">
                        <mxPoint x="-1144" y="-755" as="sourcePoint"/>
                        <mxPoint x="-1144" y="-560" as="targetPoint"/>
                        <Array as="points"/>
                    </mxGeometry>
                </mxCell>
                <mxCell id="sj2KEVbgfBqhwTsqNgVq-10" value="&lt;span style=&quot;text-wrap: wrap; background-color: rgb(251, 251, 251);&quot;&gt;${&lt;/span&gt;&lt;span style=&quot;font-size: 12px; text-wrap: wrap; background-color: rgb(251, 251, 251);&quot;&gt;leader_name&lt;/span&gt;/out/get_ranks&lt;div&gt;ms_module_msgs/msg/GetRanks&lt;/div&gt;" style="edgeLabel;html=1;align=center;verticalAlign=middle;resizable=0;points=[];" parent="sj2KEVbgfBqhwTsqNgVq-9" vertex="1" connectable="0">
                    <mxGeometry x="-0.311" y="13" relative="1" as="geometry">
                        <mxPoint x="-13" y="8" as="offset"/>
                    </mxGeometry>
                </mxCell>
                <mxCell id="sj2KEVbgfBqhwTsqNgVq-11" value="${leader_name}/leader_or_follower_concession_node" style="ellipse;whiteSpace=wrap;html=1;dashed=1" parent="1" vertex="1">
                    <mxGeometry x="-1354" y="-690" width="310" height="30" as="geometry"/>
                </mxCell>
                <mxCell id="sj2KEVbgfBqhwTsqNgVq-12" value="" style="curved=1;dashed=1;endArrow=classic;startArrow=classic;html=1;rounded=0;exitX=0.5;exitY=1;exitDx=0;exitDy=0;entryX=0.5;entryY=0;entryDx=0;entryDy=0;" parent="1" source="sj2KEVbgfBqhwTsqNgVq-11" target="pj88vWC6h57OP6Q8nHjn-155" edge="1">
                    <mxGeometry width="50" height="50" relative="1" as="geometry">
                        <mxPoint x="-1124" y="-595" as="sourcePoint"/>
                        <mxPoint x="-1199" y="-550" as="targetPoint"/>
                        <Array as="points"/>
                    </mxGeometry>
                </mxCell>
                <mxCell id="sj2KEVbgfBqhwTsqNgVq-13" value="&lt;font style=&quot;font-size: 11px;&quot;&gt;&lt;span style=&quot;text-wrap: wrap; background-color: rgb(251, 251, 251);&quot;&gt;${name}&lt;/span&gt;/out/get_ranks&lt;/font&gt;&lt;div&gt;ms_module_msgs/msg/GetRanks&lt;/div&gt;" style="edgeLabel;html=1;align=center;verticalAlign=middle;resizable=0;points=[];" parent="sj2KEVbgfBqhwTsqNgVq-12" vertex="1" connectable="0">
                    <mxGeometry x="-0.311" y="13" relative="1" as="geometry">
                        <mxPoint x="-13" y="8" as="offset"/>
                    </mxGeometry>
                </mxCell>
                <mxCell id="sj2KEVbgfBqhwTsqNgVq-14" value="${leader_name}/configuration_internal_investigating_node" style="ellipse;whiteSpace=wrap;html=1;dashed=1" parent="1" vertex="1">
                    <mxGeometry x="-760" y="-690" width="350" height="30" as="geometry"/>
                </mxCell>
                <mxCell id="sj2KEVbgfBqhwTsqNgVq-15" value="" style="curved=1;dashed=1;endArrow=classic;startArrow=classic;html=1;rounded=0;entryX=0.5;entryY=0;entryDx=0;entryDy=0;exitX=0.5;exitY=1;exitDx=0;exitDy=0;" parent="1" source="sj2KEVbgfBqhwTsqNgVq-14" target="pj88vWC6h57OP6Q8nHjn-144" edge="1">
                    <mxGeometry width="50" height="50" relative="1" as="geometry">
                        <mxPoint x="-610" y="-660" as="sourcePoint"/>
                        <mxPoint x="-610" y="-490" as="targetPoint"/>
                        <Array as="points"/>
                    </mxGeometry>
                </mxCell>
                <mxCell id="sj2KEVbgfBqhwTsqNgVq-16" value="&lt;span style=&quot;text-wrap: wrap; background-color: rgb(251, 251, 251);&quot;&gt;limb_n_1&lt;/span&gt;/out/get_module_connection&lt;div&gt;ms_module_msgs/msg/GetAllConnection&lt;/div&gt;" style="edgeLabel;html=1;align=center;verticalAlign=middle;resizable=0;points=[];" parent="sj2KEVbgfBqhwTsqNgVq-15" vertex="1" connectable="0">
                    <mxGeometry x="-0.311" y="13" relative="1" as="geometry">
                        <mxPoint x="-13" y="16" as="offset"/>
                    </mxGeometry>
                </mxCell>
                <mxCell id="sj2KEVbgfBqhwTsqNgVq-17" value="" style="curved=1;dashed=1;endArrow=classic;startArrow=classic;html=1;rounded=0;entryX=0;entryY=0.5;entryDx=0;entryDy=0;exitX=1;exitY=1;exitDx=0;exitDy=0;" parent="1" source="sj2KEVbgfBqhwTsqNgVq-8" target="sj2KEVbgfBqhwTsqNgVq-14" edge="1">
                    <mxGeometry width="50" height="50" relative="1" as="geometry">
                        <mxPoint x="-595" y="-650" as="sourcePoint"/>
                        <mxPoint x="-595" y="-520" as="targetPoint"/>
                        <Array as="points"/>
                    </mxGeometry>
                </mxCell>
                <mxCell id="sj2KEVbgfBqhwTsqNgVq-18" value="&lt;font style=&quot;font-size: 11px;&quot;&gt;&lt;span style=&quot;text-wrap: wrap; background-color: rgb(251, 251, 251);&quot;&gt;${&lt;/span&gt;&lt;span style=&quot;text-wrap: wrap; background-color: rgb(251, 251, 251);&quot;&gt;leader_name&lt;/span&gt;&lt;span style=&quot;text-wrap: wrap; background-color: rgb(251, 251, 251);&quot;&gt;}&lt;/span&gt;&lt;/font&gt;/out/get_internal_investigated_configuration&lt;div&gt;ms_module_msgs/msg/GetAllConnection&lt;/div&gt;" style="edgeLabel;html=1;align=center;verticalAlign=middle;resizable=0;points=[];" parent="sj2KEVbgfBqhwTsqNgVq-17" vertex="1" connectable="0">
                    <mxGeometry x="-0.311" y="13" relative="1" as="geometry">
                        <mxPoint x="109" y="74" as="offset"/>
                    </mxGeometry>
                </mxCell>
                <mxCell id="sj2KEVbgfBqhwTsqNgVq-19" value="pnp_gateway/task_cmd_node" style="ellipse;whiteSpace=wrap;html=1;dashed=1" parent="1" vertex="1">
                    <mxGeometry x="-2460" y="-670" width="320" height="30" as="geometry"/>
                </mxCell>
                <mxCell id="sj2KEVbgfBqhwTsqNgVq-20" value="" style="curved=1;dashed=1;endArrow=classic;startArrow=classic;html=1;rounded=0;entryX=0;entryY=0.5;entryDx=0;entryDy=0;exitX=1;exitY=0.5;exitDx=0;exitDy=0;" parent="1" source="sj2KEVbgfBqhwTsqNgVq-19" target="sj2KEVbgfBqhwTsqNgVq-8" edge="1">
                    <mxGeometry width="50" height="50" relative="1" as="geometry">
                        <mxPoint x="-1890" y="-700" as="sourcePoint"/>
                        <mxPoint x="-1580" y="-560" as="targetPoint"/>
                        <Array as="points"/>
                    </mxGeometry>
                </mxCell>
                <mxCell id="sj2KEVbgfBqhwTsqNgVq-21" value="&lt;font style=&quot;font-size: 11px;&quot;&gt;&lt;span style=&quot;text-wrap: wrap; background-color: rgb(251, 251, 251);&quot;&gt;${&lt;/span&gt;&lt;span style=&quot;text-wrap: wrap; background-color: rgb(251, 251, 251);&quot;&gt;leader_name&lt;/span&gt;&lt;span style=&quot;text-wrap: wrap; background-color: rgb(251, 251, 251);&quot;&gt;}/in&lt;/span&gt;/?&lt;/font&gt;&lt;div&gt;?&lt;/div&gt;" style="edgeLabel;html=1;align=center;verticalAlign=middle;resizable=0;points=[];" parent="sj2KEVbgfBqhwTsqNgVq-20" vertex="1" connectable="0">
                    <mxGeometry x="-0.311" y="13" relative="1" as="geometry">
                        <mxPoint x="101" y="-14" as="offset"/>
                    </mxGeometry>
                </mxCell>
                <mxCell id="wqKspgdwRtDTxMju-YSW-3" value="limb_n_1/my_aliveness_node" style="ellipse;whiteSpace=wrap;html=1;" parent="1" vertex="1">
                    <mxGeometry x="-1850" y="-390" width="250" height="30" as="geometry"/>
                </mxCell>
                <mxCell id="wqKspgdwRtDTxMju-YSW-4" value="pnpserver/inquirement_of_aliveness_node" style="ellipse;whiteSpace=wrap;html=1;" parent="1" vertex="1">
                    <mxGeometry x="-2460" y="-510" width="250" height="30" as="geometry"/>
                </mxCell>
                <mxCell id="wqKspgdwRtDTxMju-YSW-5" value="" style="curved=1;dashed=1;endArrow=classic;startArrow=classic;html=1;rounded=0;exitX=0;exitY=0.5;exitDx=0;exitDy=0;entryX=1;entryY=0.5;entryDx=0;entryDy=0;" parent="1" source="wqKspgdwRtDTxMju-YSW-7" target="wqKspgdwRtDTxMju-YSW-4" edge="1">
                    <mxGeometry width="50" height="50" relative="1" as="geometry">
                        <mxPoint x="-1620" y="-580" as="sourcePoint"/>
                        <mxPoint x="-1915" y="-440" as="targetPoint"/>
                        <Array as="points"/>
                    </mxGeometry>
                </mxCell>
                <mxCell id="wqKspgdwRtDTxMju-YSW-6" value="&lt;font style=&quot;font-size: 11px;&quot;&gt;&lt;span style=&quot;font-size: 12px; text-wrap: wrap; background-color: rgb(251, 251, 251);&quot;&gt;${leader_name}/&lt;/span&gt;/in/are_all_of_your_module_alive&lt;/font&gt;&lt;div&gt;ms_module_msgs/srv/GetAlivenessList&lt;/div&gt;" style="edgeLabel;html=1;align=center;verticalAlign=middle;resizable=0;points=[];" parent="wqKspgdwRtDTxMju-YSW-5" vertex="1" connectable="0">
                    <mxGeometry x="-0.311" y="13" relative="1" as="geometry">
                        <mxPoint x="-63" y="-13" as="offset"/>
                    </mxGeometry>
                </mxCell>
                <mxCell id="wqKspgdwRtDTxMju-YSW-7" value="${leader_name}/our_aliveness_node" style="ellipse;whiteSpace=wrap;html=1;dashed=1" parent="1" vertex="1">
                    <mxGeometry x="-1850" y="-530" width="250" height="30" as="geometry"/>
                </mxCell>
                <mxCell id="wqKspgdwRtDTxMju-YSW-8" value="" style="curved=1;dashed=1;endArrow=classic;startArrow=classic;html=1;rounded=0;exitX=0.5;exitY=0;exitDx=0;exitDy=0;entryX=0.5;entryY=1;entryDx=0;entryDy=0;" parent="1" source="wqKspgdwRtDTxMju-YSW-3" target="wqKspgdwRtDTxMju-YSW-7" edge="1">
                    <mxGeometry width="50" height="50" relative="1" as="geometry">
                        <mxPoint x="-1840" y="-365" as="sourcePoint"/>
                        <mxPoint x="-2725" y="-365" as="targetPoint"/>
                        <Array as="points"/>
                    </mxGeometry>
                </mxCell>
                <mxCell id="wqKspgdwRtDTxMju-YSW-9" value="&lt;font style=&quot;font-size: 11px;&quot;&gt;&lt;span style=&quot;text-wrap: wrap; background-color: rgb(251, 251, 251);&quot;&gt;limb_n_1&lt;/span&gt;/out/are_you_alive&lt;/font&gt;&lt;div&gt;ms_module_msgs/srv/GetAliveness&lt;/div&gt;" style="edgeLabel;html=1;align=center;verticalAlign=middle;resizable=0;points=[];" parent="wqKspgdwRtDTxMju-YSW-8" vertex="1" connectable="0">
                    <mxGeometry x="-0.311" y="13" relative="1" as="geometry">
                        <mxPoint x="13" y="-22" as="offset"/>
                    </mxGeometry>
                </mxCell>
                <mxCell id="wqKspgdwRtDTxMju-YSW-11" value="Leaderが死んだら、どうする？" style="text;html=1;align=center;verticalAlign=middle;resizable=0;points=[];autosize=1;strokeColor=none;fillColor=none;" parent="1" vertex="1">
                    <mxGeometry x="-1224" y="-565" width="190" height="30" as="geometry"/>
                </mxCell>
                <mxCell id="wqKspgdwRtDTxMju-YSW-12" value="Leaderが死んだら、どうする？" style="text;html=1;align=center;verticalAlign=middle;resizable=0;points=[];autosize=1;strokeColor=none;fillColor=none;" parent="1" vertex="1">
                    <mxGeometry x="-1224" y="-360" width="190" height="30" as="geometry"/>
                </mxCell>
                <mxCell id="wqKspgdwRtDTxMju-YSW-13" value="Leaderが死んだら、どうする？" style="text;html=1;align=center;verticalAlign=middle;resizable=0;points=[];autosize=1;strokeColor=none;fillColor=none;" parent="1" vertex="1">
                    <mxGeometry x="-1224" y="-720" width="190" height="30" as="geometry"/>
                </mxCell>
                <mxCell id="HBnML2gXFbe21cveyeym-1" value="" style="curved=1;endArrow=classic;html=1;rounded=0;entryX=1;entryY=0.5;entryDx=0;entryDy=0;exitX=0;exitY=0.5;exitDx=0;exitDy=0;" parent="1" source="jG70ef_n0GU83-9JPsaq-1" target="jG70ef_n0GU83-9JPsaq-4" edge="1">
                    <mxGeometry width="50" height="50" relative="1" as="geometry">
                        <mxPoint x="953.13" y="2135" as="sourcePoint"/>
                        <mxPoint x="743.1299999999918" y="2137.5" as="targetPoint"/>
                        <Array as="points">
                            <mxPoint x="819.38" y="2132.5"/>
                        </Array>
                    </mxGeometry>
                </mxCell>
                <mxCell id="HBnML2gXFbe21cveyeym-2" value="&lt;font style=&quot;font-size: 12px;&quot;&gt;&lt;span style=&quot;text-wrap: wrap; background-color: rgb(251, 251, 251);&quot;&gt;body_n_1&lt;/span&gt;/lidar_1/out/cloud&lt;/font&gt;&lt;div&gt;sensor_msgs/msg/PointCloud2&lt;br&gt;&lt;/div&gt;" style="edgeLabel;html=1;align=center;verticalAlign=middle;resizable=0;points=[];" parent="HBnML2gXFbe21cveyeym-1" vertex="1" connectable="0">
                    <mxGeometry x="-0.1633" y="12" relative="1" as="geometry">
                        <mxPoint x="-27" y="-11" as="offset"/>
                    </mxGeometry>
                </mxCell>
                <mxCell id="HBnML2gXFbe21cveyeym-3" value="" style="curved=1;endArrow=classic;html=1;rounded=0;entryX=0;entryY=1;entryDx=0;entryDy=0;" parent="1" target="jG70ef_n0GU83-9JPsaq-16" edge="1">
                    <mxGeometry width="50" height="50" relative="1" as="geometry">
                        <mxPoint x="233.13" y="2025" as="sourcePoint"/>
                        <mxPoint x="617.13" y="1940" as="targetPoint"/>
                        <Array as="points">
                            <mxPoint x="313.13" y="2015"/>
                        </Array>
                    </mxGeometry>
                </mxCell>
                <mxCell id="HBnML2gXFbe21cveyeym-4" value="&lt;font style=&quot;font-size: 11px;&quot;&gt;&lt;span style=&quot;font-size: 12px; text-wrap: wrap; background-color: rgb(251, 251, 251);&quot;&gt;body_n_1&lt;/span&gt;/depthcamera/in/pose&lt;/font&gt;&lt;div&gt;geometry_msgs/msg/Pose&lt;br&gt;&lt;/div&gt;" style="edgeLabel;html=1;align=center;verticalAlign=middle;resizable=0;points=[];" parent="HBnML2gXFbe21cveyeym-3" vertex="1" connectable="0">
                    <mxGeometry x="-0.1633" y="12" relative="1" as="geometry">
                        <mxPoint x="-57" y="10" as="offset"/>
                    </mxGeometry>
                </mxCell>
                <mxCell id="HBnML2gXFbe21cveyeym-5" value="" style="curved=1;dashed=1;endArrow=classic;startArrow=classic;html=1;rounded=0;exitX=0;exitY=0.5;exitDx=0;exitDy=0;" parent="1" source="pj88vWC6h57OP6Q8nHjn-150" edge="1">
                    <mxGeometry width="50" height="50" relative="1" as="geometry">
                        <mxPoint x="-1330" y="-331.43" as="sourcePoint"/>
                        <mxPoint x="-1610" y="-315" as="targetPoint"/>
                        <Array as="points"/>
                    </mxGeometry>
                </mxCell>
                <mxCell id="HBnML2gXFbe21cveyeym-6" value="&lt;font style=&quot;font-size: 11px;&quot;&gt;&lt;span style=&quot;text-wrap: wrap; background-color: rgb(251, 251, 251);&quot;&gt;limb_n_1&lt;/span&gt;/out/get_leader_name&lt;/font&gt;&lt;div&gt;ms_module_msgs/msg/GetLeaderName&lt;/div&gt;" style="edgeLabel;html=1;align=center;verticalAlign=middle;resizable=0;points=[];" parent="HBnML2gXFbe21cveyeym-5" vertex="1" connectable="0">
                    <mxGeometry x="-0.311" y="13" relative="1" as="geometry">
                        <mxPoint x="-44" y="-24" as="offset"/>
                    </mxGeometry>
                </mxCell>
                <mxCell id="immnGuLkPZDIyRjEmBH5-2" value="&lt;div&gt;&lt;font style=&quot;font-size: 36px;&quot;&gt;Leader決め&lt;/font&gt;&lt;/div&gt;" style="text;html=1;align=center;verticalAlign=middle;resizable=0;points=[];autosize=1;strokeColor=none;fillColor=none;movable=0;rotatable=0;deletable=0;editable=0;locked=1;connectable=0;" parent="1" vertex="1">
                    <mxGeometry x="-985" y="-610" width="210" height="60" as="geometry"/>
                </mxCell>
                <mxCell id="immnGuLkPZDIyRjEmBH5-4" value="&lt;div&gt;&lt;font style=&quot;font-size: 36px;&quot;&gt;Leader故障&lt;/font&gt;&lt;/div&gt;" style="text;html=1;align=center;verticalAlign=middle;resizable=0;points=[];autosize=1;strokeColor=none;fillColor=none;movable=0;rotatable=0;deletable=0;editable=0;locked=1;connectable=0;" parent="1" vertex="1">
                    <mxGeometry x="-2080" y="-460" width="210" height="60" as="geometry"/>
                </mxCell>
                <mxCell id="immnGuLkPZDIyRjEmBH5-5" value="Serviceが返答がない場合、LeaderのPCが死んだ" style="text;html=1;align=center;verticalAlign=middle;resizable=0;points=[];autosize=1;strokeColor=none;fillColor=none;" parent="1" vertex="1">
                    <mxGeometry x="-1860" y="-560" width="290" height="30" as="geometry"/>
                </mxCell>
                <mxCell id="immnGuLkPZDIyRjEmBH5-6" value="${leader_name}/my_aliveness_node" style="ellipse;whiteSpace=wrap;html=1;dashed=1" parent="1" vertex="1">
                    <mxGeometry x="-1850" y="-630" width="250" height="30" as="geometry"/>
                </mxCell>
                <mxCell id="immnGuLkPZDIyRjEmBH5-7" value="" style="curved=1;dashed=1;endArrow=classic;startArrow=classic;html=1;rounded=0;entryX=0.5;entryY=1;entryDx=0;entryDy=0;exitX=0.5;exitY=0;exitDx=0;exitDy=0;" parent="1" source="wqKspgdwRtDTxMju-YSW-7" target="immnGuLkPZDIyRjEmBH5-6" edge="1">
                    <mxGeometry width="50" height="50" relative="1" as="geometry">
                        <mxPoint x="-1700" y="-560" as="sourcePoint"/>
                        <mxPoint x="-1710.59" y="-600" as="targetPoint"/>
                        <Array as="points"/>
                    </mxGeometry>
                </mxCell>
                <mxCell id="immnGuLkPZDIyRjEmBH5-8" value="&lt;font style=&quot;font-size: 11px;&quot;&gt;&lt;span style=&quot;font-size: 12px; text-wrap: wrap; background-color: rgb(251, 251, 251);&quot;&gt;${leader_name}&lt;/span&gt;/out/are_you_alive&lt;/font&gt;&lt;div&gt;ms_module_msgs/srv/GetAliveness&lt;/div&gt;" style="edgeLabel;html=1;align=center;verticalAlign=middle;resizable=0;points=[];" parent="immnGuLkPZDIyRjEmBH5-7" vertex="1" connectable="0">
                    <mxGeometry x="-0.311" y="13" relative="1" as="geometry">
                        <mxPoint x="13" y="-22" as="offset"/>
                    </mxGeometry>
                </mxCell>
                <mxCell id="immnGuLkPZDIyRjEmBH5-9" value="" style="curved=1;dashed=1;endArrow=classic;startArrow=classic;html=1;rounded=0;exitX=0;exitY=0;exitDx=0;exitDy=0;entryX=1;entryY=0.5;entryDx=0;entryDy=0;" parent="1" source="pj88vWC6h57OP6Q8nHjn-150" target="immnGuLkPZDIyRjEmBH5-6" edge="1">
                    <mxGeometry width="50" height="50" relative="1" as="geometry">
                        <mxPoint x="-1390" y="-420" as="sourcePoint"/>
                        <mxPoint x="-1390" y="-530" as="targetPoint"/>
                        <Array as="points"/>
                    </mxGeometry>
                </mxCell>
                <mxCell id="immnGuLkPZDIyRjEmBH5-10" value="&lt;div&gt;&lt;span style=&quot;font-size: 12px; text-wrap: wrap; background-color: rgb(251, 251, 251);&quot;&gt;${leader_name}&lt;/span&gt;/out/are_you_alive&lt;/div&gt;&lt;div&gt;ms_module_msgs/srv/GetAliveness&lt;/div&gt;" style="edgeLabel;html=1;align=center;verticalAlign=middle;resizable=0;points=[];" parent="immnGuLkPZDIyRjEmBH5-9" vertex="1" connectable="0">
                    <mxGeometry x="-0.311" y="13" relative="1" as="geometry">
                        <mxPoint x="13" y="-22" as="offset"/>
                    </mxGeometry>
                </mxCell>
                <mxCell id="immnGuLkPZDIyRjEmBH5-11" value="" style="curved=1;dashed=1;endArrow=classic;startArrow=classic;html=1;rounded=0;exitX=0;exitY=0.5;exitDx=0;exitDy=0;entryX=1;entryY=0.5;entryDx=0;entryDy=0;" parent="1" source="pj88vWC6h57OP6Q8nHjn-155" target="immnGuLkPZDIyRjEmBH5-6" edge="1">
                    <mxGeometry width="50" height="50" relative="1" as="geometry">
                        <mxPoint x="-1268" y="-315" as="sourcePoint"/>
                        <mxPoint x="-1590" y="-605" as="targetPoint"/>
                        <Array as="points"/>
                    </mxGeometry>
                </mxCell>
                <mxCell id="immnGuLkPZDIyRjEmBH5-12" value="&lt;div&gt;&lt;span style=&quot;font-size: 12px; text-wrap: wrap; background-color: rgb(251, 251, 251);&quot;&gt;${leader_name}&lt;/span&gt;/out/are_you_alive&lt;/div&gt;&lt;div&gt;ms_module_msgs/srv/GetAliveness&lt;/div&gt;" style="edgeLabel;html=1;align=center;verticalAlign=middle;resizable=0;points=[];" parent="immnGuLkPZDIyRjEmBH5-11" vertex="1" connectable="0">
                    <mxGeometry x="-0.311" y="13" relative="1" as="geometry">
                        <mxPoint x="13" y="-22" as="offset"/>
                    </mxGeometry>
                </mxCell>
                <mxCell id="immnGuLkPZDIyRjEmBH5-13" value="" style="curved=1;dashed=1;endArrow=classic;startArrow=classic;html=1;rounded=0;exitX=0;exitY=0.5;exitDx=0;exitDy=0;entryX=1;entryY=0.5;entryDx=0;entryDy=0;" parent="1" source="sj2KEVbgfBqhwTsqNgVq-11" target="immnGuLkPZDIyRjEmBH5-6" edge="1">
                    <mxGeometry width="50" height="50" relative="1" as="geometry">
                        <mxPoint x="-1310" y="-505" as="sourcePoint"/>
                        <mxPoint x="-1590" y="-605" as="targetPoint"/>
                        <Array as="points"/>
                    </mxGeometry>
                </mxCell>
                <mxCell id="immnGuLkPZDIyRjEmBH5-14" value="&lt;div&gt;&lt;span style=&quot;font-size: 12px; text-wrap: wrap; background-color: rgb(251, 251, 251);&quot;&gt;${leader_name}&lt;/span&gt;/out/are_you_alive&lt;/div&gt;&lt;div&gt;ms_module_msgs/srv/GetAliveness&lt;/div&gt;" style="edgeLabel;html=1;align=center;verticalAlign=middle;resizable=0;points=[];" parent="immnGuLkPZDIyRjEmBH5-13" vertex="1" connectable="0">
                    <mxGeometry x="-0.311" y="13" relative="1" as="geometry">
                        <mxPoint x="13" y="-22" as="offset"/>
                    </mxGeometry>
                </mxCell>
                <mxCell id="sZ-Hnd-nzbSSam_sIz7e-2" value="limb_n_1/connecting_opposite_detector_node" style="ellipse;whiteSpace=wrap;html=1;" parent="1" vertex="1">
                    <mxGeometry x="-670" y="-133.27" width="280" height="30" as="geometry"/>
                </mxCell>
                <mxCell id="sZ-Hnd-nzbSSam_sIz7e-3" value="" style="curved=1;dashed=1;endArrow=classic;startArrow=classic;html=1;rounded=0;entryX=1;entryY=1;entryDx=0;entryDy=0;exitX=0.281;exitY=0.953;exitDx=0;exitDy=0;exitPerimeter=0;" parent="1" source="pj88vWC6h57OP6Q8nHjn-2" target="sZ-Hnd-nzbSSam_sIz7e-2" edge="1">
                    <mxGeometry width="50" height="50" relative="1" as="geometry">
                        <mxPoint x="540" y="100" as="sourcePoint"/>
                        <mxPoint x="-980" y="425" as="targetPoint"/>
                        <Array as="points">
                            <mxPoint x="60" y="195"/>
                        </Array>
                    </mxGeometry>
                </mxCell>
                <mxCell id="sZ-Hnd-nzbSSam_sIz7e-4" value="&lt;font style=&quot;font-size: 11px;&quot;&gt;&lt;span style=&quot;text-wrap: wrap; background-color: rgb(251, 251, 251);&quot;&gt;limb_n_1&lt;/span&gt;/connector/out/get_connector_state&lt;/font&gt;&lt;div&gt;ms_module_msgs/srv/GetConnectorState&lt;/div&gt;" style="edgeLabel;html=1;align=center;verticalAlign=middle;resizable=0;points=[];" parent="sZ-Hnd-nzbSSam_sIz7e-3" vertex="1" connectable="0">
                    <mxGeometry x="-0.311" y="13" relative="1" as="geometry">
                        <mxPoint x="-586" y="-250" as="offset"/>
                    </mxGeometry>
                </mxCell>
                <mxCell id="sZ-Hnd-nzbSSam_sIz7e-5" value="ARでの結合相手の情報を暗記して&lt;div&gt;結合したら、最近の結合相手情報を保存する&lt;/div&gt;" style="text;html=1;align=center;verticalAlign=middle;resizable=0;points=[];autosize=1;strokeColor=none;fillColor=none;" parent="1" vertex="1">
                    <mxGeometry x="-670" y="-173.27" width="260" height="40" as="geometry"/>
                </mxCell>
                <mxCell id="sZ-Hnd-nzbSSam_sIz7e-6" value="" style="curved=1;endArrow=classic;html=1;rounded=0;entryX=0;entryY=1;entryDx=0;entryDy=0;" parent="1" target="sZ-Hnd-nzbSSam_sIz7e-2" edge="1">
                    <mxGeometry width="50" height="50" relative="1" as="geometry">
                        <mxPoint x="-200" y="160" as="sourcePoint"/>
                        <mxPoint x="-400" y="-50" as="targetPoint"/>
                        <Array as="points">
                            <mxPoint x="-240" y="40"/>
                        </Array>
                    </mxGeometry>
                </mxCell>
                <mxCell id="sZ-Hnd-nzbSSam_sIz7e-8" value="" style="curved=1;endArrow=classic;html=1;rounded=0;entryX=0.5;entryY=1;entryDx=0;entryDy=0;" parent="1" target="sZ-Hnd-nzbSSam_sIz7e-2" edge="1">
                    <mxGeometry width="50" height="50" relative="1" as="geometry">
                        <mxPoint x="-170" y="150" as="sourcePoint"/>
                        <mxPoint x="-623" y="-98" as="targetPoint"/>
                        <Array as="points">
                            <mxPoint x="-230" y="50"/>
                        </Array>
                    </mxGeometry>
                </mxCell>
                <mxCell id="BYTwACSZMnxpJKishtaF-1" value="" style="curved=1;endArrow=classic;html=1;rounded=0;exitX=0;exitY=0.5;exitDx=0;exitDy=0;" parent="1" source="jG70ef_n0GU83-9JPsaq-4" edge="1">
                    <mxGeometry width="50" height="50" relative="1" as="geometry">
                        <mxPoint x="243.13" y="2035" as="sourcePoint"/>
                        <mxPoint x="163.13" y="2135" as="targetPoint"/>
                        <Array as="points"/>
                    </mxGeometry>
                </mxCell>
                <mxCell id="BYTwACSZMnxpJKishtaF-2" value="&lt;font style=&quot;font-size: 11px;&quot;&gt;&lt;span style=&quot;font-size: 12px; text-wrap: wrap; background-color: rgb(251, 251, 251);&quot;&gt;body_n_1&lt;/span&gt;/lidar_pose/out/pose&lt;/font&gt;&lt;div&gt;geometry_msgs/msg/Pose&lt;br&gt;&lt;/div&gt;" style="edgeLabel;html=1;align=center;verticalAlign=middle;resizable=0;points=[];" parent="BYTwACSZMnxpJKishtaF-1" vertex="1" connectable="0">
                    <mxGeometry x="-0.1633" y="12" relative="1" as="geometry">
                        <mxPoint x="-57" y="-12" as="offset"/>
                    </mxGeometry>
                </mxCell>
                <mxCell id="BYTwACSZMnxpJKishtaF-4" value="" style="curved=1;endArrow=classic;html=1;rounded=0;exitX=0;exitY=0;exitDx=0;exitDy=0;" parent="1" source="jG70ef_n0GU83-9JPsaq-8" edge="1">
                    <mxGeometry width="50" height="50" relative="1" as="geometry">
                        <mxPoint x="967.18" y="1535.03" as="sourcePoint"/>
                        <mxPoint x="640" y="1470" as="targetPoint"/>
                        <Array as="points">
                            <mxPoint x="830" y="1460"/>
                        </Array>
                    </mxGeometry>
                </mxCell>
                <mxCell id="BYTwACSZMnxpJKishtaF-5" value="&lt;font style=&quot;font-size: 12px;&quot;&gt;&lt;span style=&quot;text-wrap: wrap; background-color: rgb(251, 251, 251);&quot;&gt;body_n_1&lt;/span&gt;/depthcamera/out/color/image_raw&lt;/font&gt;&lt;div&gt;sensor_msgs/msg/Image&lt;br&gt;&lt;/div&gt;" style="edgeLabel;html=1;align=center;verticalAlign=middle;resizable=0;points=[];" parent="BYTwACSZMnxpJKishtaF-4" vertex="1" connectable="0">
                    <mxGeometry x="-0.1633" y="12" relative="1" as="geometry">
                        <mxPoint x="-23" as="offset"/>
                    </mxGeometry>
                </mxCell>
                <mxCell id="BYTwACSZMnxpJKishtaF-6" value="" style="curved=1;endArrow=classic;html=1;rounded=0;exitX=0;exitY=0.5;exitDx=0;exitDy=0;entryX=1;entryY=0;entryDx=0;entryDy=0;" parent="1" source="jG70ef_n0GU83-9JPsaq-8" target="BYTwACSZMnxpJKishtaF-19" edge="1">
                    <mxGeometry width="50" height="50" relative="1" as="geometry">
                        <mxPoint x="989.8685595294846" y="1459.9992983565799" as="sourcePoint"/>
                        <mxPoint x="600" y="1534.44" as="targetPoint"/>
                        <Array as="points">
                            <mxPoint x="820" y="1510"/>
                        </Array>
                    </mxGeometry>
                </mxCell>
                <mxCell id="BYTwACSZMnxpJKishtaF-7" value="&lt;font style=&quot;font-size: 12px;&quot;&gt;&lt;span style=&quot;text-wrap: wrap; background-color: rgb(251, 251, 251);&quot;&gt;body_n_1&lt;/span&gt;/depthcamera/out/color/camera_info_rect&lt;/font&gt;&lt;div&gt;sensor_msgs/msg/CameraInfo&lt;br&gt;&lt;/div&gt;" style="edgeLabel;html=1;align=center;verticalAlign=middle;resizable=0;points=[];" parent="BYTwACSZMnxpJKishtaF-6" vertex="1" connectable="0">
                    <mxGeometry x="-0.1633" y="12" relative="1" as="geometry">
                        <mxPoint x="-22" y="-1" as="offset"/>
                    </mxGeometry>
                </mxCell>
                <mxCell id="BYTwACSZMnxpJKishtaF-8" value="&lt;font style=&quot;font-size: 12px;&quot;&gt;body_n_1/robot_pose_server&lt;/font&gt;" style="ellipse;whiteSpace=wrap;html=1;" parent="1" vertex="1">
                    <mxGeometry x="-70" y="2120" width="233.75" height="30" as="geometry"/>
                </mxCell>
                <mxCell id="BYTwACSZMnxpJKishtaF-9" value="" style="curved=1;endArrow=classic;html=1;rounded=0;exitX=0;exitY=0.5;exitDx=0;exitDy=0;" parent="1" edge="1">
                    <mxGeometry width="50" height="50" relative="1" as="geometry">
                        <mxPoint x="-70" y="2134.57" as="sourcePoint"/>
                        <mxPoint x="-389.87" y="2134.57" as="targetPoint"/>
                        <Array as="points"/>
                    </mxGeometry>
                </mxCell>
                <mxCell id="BYTwACSZMnxpJKishtaF-10" value="&lt;font style=&quot;font-size: 11px;&quot;&gt;&lt;span style=&quot;font-size: 12px; text-wrap: wrap; background-color: rgb(251, 251, 251);&quot;&gt;body_n_1&lt;/span&gt;/out/robot_pose&lt;/font&gt;&lt;div&gt;geometry_msgs/msg/Pose&lt;br&gt;&lt;/div&gt;" style="edgeLabel;html=1;align=center;verticalAlign=middle;resizable=0;points=[];" parent="BYTwACSZMnxpJKishtaF-9" vertex="1" connectable="0">
                    <mxGeometry x="-0.1633" y="12" relative="1" as="geometry">
                        <mxPoint x="-57" y="-12" as="offset"/>
                    </mxGeometry>
                </mxCell>
                <mxCell id="BYTwACSZMnxpJKishtaF-14" value="" style="curved=1;endArrow=classic;html=1;rounded=0;exitX=0;exitY=1;exitDx=0;exitDy=0;entryX=1;entryY=0.5;entryDx=0;entryDy=0;" parent="1" source="jG70ef_n0GU83-9JPsaq-8" target="BYTwACSZMnxpJKishtaF-19" edge="1">
                    <mxGeometry width="50" height="50" relative="1" as="geometry">
                        <mxPoint x="974.0500000000067" y="1595" as="sourcePoint"/>
                        <mxPoint x="610" y="1590" as="targetPoint"/>
                        <Array as="points">
                            <mxPoint x="800" y="1580"/>
                        </Array>
                    </mxGeometry>
                </mxCell>
                <mxCell id="BYTwACSZMnxpJKishtaF-15" value="&lt;font style=&quot;font-size: 12px;&quot;&gt;&lt;span style=&quot;text-wrap: wrap; background-color: rgb(251, 251, 251);&quot;&gt;body_n_1&lt;/span&gt;/depthcamera/out/depth/image_raw&lt;/font&gt;&lt;div&gt;sensor_msgs/msg/Image&lt;br&gt;&lt;/div&gt;" style="edgeLabel;html=1;align=center;verticalAlign=middle;resizable=0;points=[];" parent="BYTwACSZMnxpJKishtaF-14" vertex="1" connectable="0">
                    <mxGeometry x="-0.1633" y="12" relative="1" as="geometry">
                        <mxPoint x="-25" y="-22" as="offset"/>
                    </mxGeometry>
                </mxCell>
                <mxCell id="BYTwACSZMnxpJKishtaF-16" value="" style="curved=1;endArrow=classic;html=1;rounded=0;exitX=0.5;exitY=1;exitDx=0;exitDy=0;entryX=0.877;entryY=0.812;entryDx=0;entryDy=0;entryPerimeter=0;" parent="1" source="jG70ef_n0GU83-9JPsaq-8" target="BYTwACSZMnxpJKishtaF-19" edge="1">
                    <mxGeometry width="50" height="50" relative="1" as="geometry">
                        <mxPoint x="993.13" y="1650" as="sourcePoint"/>
                        <mxPoint x="629.26" y="1645" as="targetPoint"/>
                        <Array as="points">
                            <mxPoint x="820" y="1680"/>
                        </Array>
                    </mxGeometry>
                </mxCell>
                <mxCell id="BYTwACSZMnxpJKishtaF-17" value="&lt;div&gt;&lt;font style=&quot;font-size: 12px;&quot;&gt;&lt;span style=&quot;text-wrap: wrap; background-color: rgb(251, 251, 251);&quot;&gt;body_n_1&lt;/span&gt;/depthcamera/out/color/camera_info&lt;/font&gt;&lt;/div&gt;&lt;div&gt;sensor_msgs/msg/CameraInfo&lt;br&gt;&lt;/div&gt;" style="edgeLabel;html=1;align=center;verticalAlign=middle;resizable=0;points=[];" parent="BYTwACSZMnxpJKishtaF-16" vertex="1" connectable="0">
                    <mxGeometry x="-0.1633" y="12" relative="1" as="geometry">
                        <mxPoint x="-33" y="-53" as="offset"/>
                    </mxGeometry>
                </mxCell>
                <mxCell id="BYTwACSZMnxpJKishtaF-19" value="&lt;div&gt;&lt;font style=&quot;font-size: 12px;&quot;&gt;&lt;span style=&quot;background-color: initial;&quot;&gt;limb_n_1/&lt;/span&gt;&lt;span style=&quot;background-color: rgb(255, 255, 255); text-wrap: nowrap;&quot;&gt;camera_1&lt;/span&gt;&lt;span style=&quot;background-color: initial;&quot;&gt;/&lt;/span&gt;&lt;span style=&quot;background-color: initial;&quot;&gt;image_register_node&lt;/span&gt;&lt;/font&gt;&lt;/div&gt;" style="ellipse;whiteSpace=wrap;html=1;strokeColor=default;align=center;verticalAlign=middle;fontFamily=Helvetica;fontSize=12;fontColor=default;fillColor=default;" parent="1" vertex="1">
                    <mxGeometry x="230" y="1550" width="280" height="30" as="geometry"/>
                </mxCell>
                <mxCell id="BYTwACSZMnxpJKishtaF-20" value="" style="curved=1;endArrow=classic;html=1;rounded=0;exitX=0;exitY=1;exitDx=0;exitDy=0;" parent="1" source="BYTwACSZMnxpJKishtaF-19" edge="1">
                    <mxGeometry width="50" height="50" relative="1" as="geometry">
                        <mxPoint x="230" y="1600" as="sourcePoint"/>
                        <mxPoint x="-290" y="1620" as="targetPoint"/>
                        <Array as="points">
                            <mxPoint x="61.879999999999995" y="1620"/>
                        </Array>
                    </mxGeometry>
                </mxCell>
                <mxCell id="BYTwACSZMnxpJKishtaF-21" value="&lt;font style=&quot;font-size: 12px;&quot;&gt;&lt;span style=&quot;text-wrap: wrap; background-color: rgb(251, 251, 251);&quot;&gt;body_n_1&lt;/span&gt;/depthcamera/out/depth/camera_info_registered&lt;/font&gt;&lt;div&gt;sensor_msgs/msg/CameraInfo&lt;br&gt;&lt;/div&gt;" style="edgeLabel;html=1;align=center;verticalAlign=middle;resizable=0;points=[];" parent="BYTwACSZMnxpJKishtaF-20" vertex="1" connectable="0">
                    <mxGeometry x="-0.1633" y="12" relative="1" as="geometry">
                        <mxPoint x="-22" y="-1" as="offset"/>
                    </mxGeometry>
                </mxCell>
                <mxCell id="BYTwACSZMnxpJKishtaF-22" value="" style="curved=1;endArrow=classic;html=1;rounded=0;exitX=0;exitY=0.5;exitDx=0;exitDy=0;" parent="1" source="BYTwACSZMnxpJKishtaF-19" edge="1">
                    <mxGeometry width="50" height="50" relative="1" as="geometry">
                        <mxPoint x="218.40511609899625" y="1539.9989007845777" as="sourcePoint"/>
                        <mxPoint x="-310" y="1564" as="targetPoint"/>
                        <Array as="points">
                            <mxPoint x="-20" y="1564.47"/>
                        </Array>
                    </mxGeometry>
                </mxCell>
                <mxCell id="BYTwACSZMnxpJKishtaF-23" value="&lt;font style=&quot;font-size: 12px;&quot;&gt;&lt;span style=&quot;text-wrap: wrap; background-color: rgb(251, 251, 251);&quot;&gt;body_n_1&lt;/span&gt;/depthcamera/out/depth/image_&lt;/font&gt;&lt;span style=&quot;font-size: 12px;&quot;&gt;registered&lt;/span&gt;&lt;div&gt;sensor_msgs/msg/Image&lt;br&gt;&lt;/div&gt;" style="edgeLabel;html=1;align=center;verticalAlign=middle;resizable=0;points=[];" parent="BYTwACSZMnxpJKishtaF-22" vertex="1" connectable="0">
                    <mxGeometry x="-0.1633" y="12" relative="1" as="geometry">
                        <mxPoint x="-25" y="-22" as="offset"/>
                    </mxGeometry>
                </mxCell>
                <mxCell id="uigKJcvdvM48lWxJSXwL-1" value="&lt;font style=&quot;font-size: 12px;&quot;&gt;limb_n_1/robot_pose_server&lt;/font&gt;" style="ellipse;whiteSpace=wrap;html=1;" parent="1" vertex="1">
                    <mxGeometry x="-340" y="630" width="233.75" height="30" as="geometry"/>
                </mxCell>
                <mxCell id="uigKJcvdvM48lWxJSXwL-3" value="" style="curved=1;dashed=1;endArrow=classic;startArrow=classic;html=1;rounded=0;exitX=0.5;exitY=0;exitDx=0;exitDy=0;entryX=1;entryY=0.5;entryDx=0;entryDy=0;" parent="1" source="uigKJcvdvM48lWxJSXwL-1" target="pj88vWC6h57OP6Q8nHjn-122" edge="1">
                    <mxGeometry width="50" height="50" relative="1" as="geometry">
                        <mxPoint x="-335" y="-130" as="sourcePoint"/>
                        <mxPoint x="-390" y="-297" as="targetPoint"/>
                        <Array as="points">
                            <mxPoint x="-335" y="-237"/>
                        </Array>
                    </mxGeometry>
                </mxCell>
                <mxCell id="uigKJcvdvM48lWxJSXwL-4" value="&lt;font style=&quot;font-size: 11px;&quot;&gt;&lt;span style=&quot;text-wrap: wrap; background-color: rgb(251, 251, 251);&quot;&gt;limb_n_1&lt;/span&gt;/out/get_module_connection&lt;/font&gt;&lt;div&gt;ms_module_msgs/msg/GetAllConnection&lt;/div&gt;" style="edgeLabel;html=1;align=center;verticalAlign=middle;resizable=0;points=[];" parent="uigKJcvdvM48lWxJSXwL-3" vertex="1" connectable="0">
                    <mxGeometry x="-0.311" y="13" relative="1" as="geometry">
                        <mxPoint x="40" y="211" as="offset"/>
                    </mxGeometry>
                </mxCell>
                <mxCell id="uigKJcvdvM48lWxJSXwL-7" value="" style="curved=1;endArrow=classic;html=1;rounded=0;exitX=0;exitY=0;exitDx=0;exitDy=0;" parent="1" source="BYTwACSZMnxpJKishtaF-8" target="uigKJcvdvM48lWxJSXwL-1" edge="1">
                    <mxGeometry width="50" height="50" relative="1" as="geometry">
                        <mxPoint x="-60" y="2144.57" as="sourcePoint"/>
                        <mxPoint x="-360" y="1080" as="targetPoint"/>
                        <Array as="points">
                            <mxPoint x="-360" y="1420"/>
                        </Array>
                    </mxGeometry>
                </mxCell>
                <mxCell id="uigKJcvdvM48lWxJSXwL-8" value="&lt;font style=&quot;font-size: 11px;&quot;&gt;&lt;span style=&quot;font-size: 12px; text-wrap: wrap; background-color: rgb(251, 251, 251);&quot;&gt;body_n_1&lt;/span&gt;/out/robot_pose&lt;/font&gt;&lt;div&gt;geometry_msgs/msg/Pose&lt;br&gt;&lt;/div&gt;" style="edgeLabel;html=1;align=center;verticalAlign=middle;resizable=0;points=[];" parent="uigKJcvdvM48lWxJSXwL-7" vertex="1" connectable="0">
                    <mxGeometry x="-0.1633" y="12" relative="1" as="geometry">
                        <mxPoint x="87" y="-811" as="offset"/>
                    </mxGeometry>
                </mxCell>
                <mxCell id="uigKJcvdvM48lWxJSXwL-9" value="" style="curved=1;endArrow=classic;html=1;rounded=0;entryX=1;entryY=0.5;entryDx=0;entryDy=0;exitX=0;exitY=0;exitDx=0;exitDy=0;" parent="1" source="pj88vWC6h57OP6Q8nHjn-6" target="uigKJcvdvM48lWxJSXwL-1" edge="1">
                    <mxGeometry width="50" height="50" relative="1" as="geometry">
                        <mxPoint x="560" y="-210" as="sourcePoint"/>
                        <mxPoint x="20" y="410" as="targetPoint"/>
                        <Array as="points">
                            <mxPoint x="410" y="-230"/>
                            <mxPoint x="330" y="-160"/>
                        </Array>
                    </mxGeometry>
                </mxCell>
                <mxCell id="uigKJcvdvM48lWxJSXwL-10" value="&lt;font style=&quot;font-size: 11px;&quot;&gt;&lt;span style=&quot;text-wrap: wrap; background-color: rgb(251, 251, 251);&quot;&gt;limb_n_1&lt;/span&gt;/joint/out/joint_state&lt;/font&gt;&lt;div&gt;sensor_msgs/msg/JointState&lt;/div&gt;" style="edgeLabel;html=1;align=center;verticalAlign=middle;resizable=0;points=[];" parent="uigKJcvdvM48lWxJSXwL-9" vertex="1" connectable="0">
                    <mxGeometry x="-0.033" y="3" relative="1" as="geometry">
                        <mxPoint x="-235" y="456" as="offset"/>
                    </mxGeometry>
                </mxCell>
                <mxCell id="uigKJcvdvM48lWxJSXwL-11" value="１．リムモジュールの位置姿勢は、ボディの位置姿勢と結合情報で計算される" style="text;html=1;align=center;verticalAlign=middle;resizable=0;points=[];autosize=1;strokeColor=none;fillColor=none;" parent="1" vertex="1">
                    <mxGeometry x="-443.12" y="590" width="440" height="30" as="geometry"/>
                </mxCell>
                <mxCell id="uigKJcvdvM48lWxJSXwL-12" value="１．ボディの位置姿勢は、LiDARのSLAMでの位置姿勢で計算される" style="text;html=1;align=center;verticalAlign=middle;resizable=0;points=[];autosize=1;strokeColor=none;fillColor=none;" parent="1" vertex="1">
                    <mxGeometry x="-155" y="2090" width="390" height="30" as="geometry"/>
                </mxCell>
                <mxCell id="zAJSO_YXjq56h6iU8wGO-1" value="" style="curved=1;endArrow=classic;html=1;rounded=0;entryX=1;entryY=0.5;entryDx=0;entryDy=0;exitX=0.5;exitY=1;exitDx=0;exitDy=0;" parent="1" source="pj88vWC6h57OP6Q8nHjn-13" target="98VW2B6NLDZTcrvkhENb-1" edge="1">
                    <mxGeometry width="50" height="50" relative="1" as="geometry">
                        <mxPoint x="1316" y="144" as="sourcePoint"/>
                        <mxPoint x="740" y="-195" as="targetPoint"/>
                        <Array as="points">
                            <mxPoint x="1100" y="240"/>
                        </Array>
                    </mxGeometry>
                </mxCell>
                <mxCell id="zAJSO_YXjq56h6iU8wGO-2" value="" style="curved=1;endArrow=classic;html=1;rounded=0;entryX=0.5;entryY=1;entryDx=0;entryDy=0;exitX=1;exitY=0.5;exitDx=0;exitDy=0;" parent="1" source="98VW2B6NLDZTcrvkhENb-1" target="pj88vWC6h57OP6Q8nHjn-13" edge="1">
                    <mxGeometry width="50" height="50" relative="1" as="geometry">
                        <mxPoint x="1000" y="510" as="sourcePoint"/>
                        <mxPoint x="820" y="465" as="targetPoint"/>
                        <Array as="points">
                            <mxPoint x="1170" y="370"/>
                        </Array>
                    </mxGeometry>
                </mxCell>
            </root>
        </mxGraphModel>
    </diagram>
    <diagram id="CoBINBYefoR0d-9jP5h3" name="Page-2">
        <mxGraphModel dx="2114" dy="1721" grid="1" gridSize="10" guides="1" tooltips="1" connect="1" arrows="1" fold="1" page="1" pageScale="1" pageWidth="850" pageHeight="1100" math="0" shadow="0">
            <root>
                <mxCell id="0"/>
                <mxCell id="1" parent="0"/>
                <mxCell id="eNayDkjzfB7X34AkoGqf-1" value="limb_n_1" style="ellipse;whiteSpace=wrap;html=1;" vertex="1" parent="1">
                    <mxGeometry x="-840" y="-360" width="290" height="30" as="geometry"/>
                </mxCell>
                <mxCell id="eNayDkjzfB7X34AkoGqf-2" value="limb_n_2" style="ellipse;whiteSpace=wrap;html=1;" vertex="1" parent="1">
                    <mxGeometry x="-289.72" y="-360" width="290" height="30" as="geometry"/>
                </mxCell>
                <mxCell id="eNayDkjzfB7X34AkoGqf-3" value="limb_n_3" style="ellipse;whiteSpace=wrap;html=1;" vertex="1" parent="1">
                    <mxGeometry x="-290" y="-230" width="290" height="30" as="geometry"/>
                </mxCell>
                <mxCell id="eNayDkjzfB7X34AkoGqf-4" value="limb_n_4" style="ellipse;whiteSpace=wrap;html=1;" vertex="1" parent="1">
                    <mxGeometry x="-660" y="-70" width="290" height="30" as="geometry"/>
                </mxCell>
                <mxCell id="45WbTx3VR8A4vngw2lU1-1" value="中に結合している仲間のIDが保存している" style="text;html=1;align=center;verticalAlign=middle;resizable=0;points=[];autosize=1;strokeColor=none;fillColor=none;" vertex="1" parent="1">
                    <mxGeometry x="-820" y="-390" width="250" height="30" as="geometry"/>
                </mxCell>
                <mxCell id="45WbTx3VR8A4vngw2lU1-3" value="中に結合している仲間のIDが保存している" style="text;html=1;align=center;verticalAlign=middle;resizable=0;points=[];autosize=1;strokeColor=none;fillColor=none;" vertex="1" parent="1">
                    <mxGeometry x="-259.72" y="-390" width="250" height="30" as="geometry"/>
                </mxCell>
                <mxCell id="45WbTx3VR8A4vngw2lU1-4" value="中に結合している仲間のIDが保存している" style="text;html=1;align=center;verticalAlign=middle;resizable=0;points=[];autosize=1;strokeColor=none;fillColor=none;" vertex="1" parent="1">
                    <mxGeometry x="-269.72" y="-190" width="250" height="30" as="geometry"/>
                </mxCell>
                <mxCell id="_S9OMrxWruhUTwB9_WxJ-1" value="" style="curved=1;dashed=1;endArrow=classic;startArrow=classic;html=1;rounded=0;exitX=0;exitY=0.5;exitDx=0;exitDy=0;" edge="1" parent="1" source="eNayDkjzfB7X34AkoGqf-2">
                    <mxGeometry width="50" height="50" relative="1" as="geometry">
                        <mxPoint x="-400" y="-320" as="sourcePoint"/>
                        <mxPoint x="-550" y="-345" as="targetPoint"/>
                        <Array as="points"/>
                    </mxGeometry>
                </mxCell>
                <mxCell id="_S9OMrxWruhUTwB9_WxJ-2" value="&lt;div&gt;&lt;span style=&quot;text-wrap: wrap; background-color: rgb(251, 251, 251);&quot;&gt;Topic2&lt;/span&gt;&lt;br&gt;&lt;/div&gt;" style="edgeLabel;html=1;align=center;verticalAlign=middle;resizable=0;points=[];" vertex="1" connectable="0" parent="_S9OMrxWruhUTwB9_WxJ-1">
                    <mxGeometry x="-0.311" y="13" relative="1" as="geometry">
                        <mxPoint x="-38" y="-13" as="offset"/>
                    </mxGeometry>
                </mxCell>
                <mxCell id="_S9OMrxWruhUTwB9_WxJ-4" value="" style="curved=1;dashed=1;endArrow=classic;startArrow=classic;html=1;rounded=0;exitX=0;exitY=0.5;exitDx=0;exitDy=0;entryX=0;entryY=1;entryDx=0;entryDy=0;" edge="1" parent="1" source="eNayDkjzfB7X34AkoGqf-4" target="eNayDkjzfB7X34AkoGqf-1">
                    <mxGeometry width="50" height="50" relative="1" as="geometry">
                        <mxPoint x="-560" y="-130" as="sourcePoint"/>
                        <mxPoint x="-790" y="-90" as="targetPoint"/>
                        <Array as="points">
                            <mxPoint x="-780" y="-160"/>
                        </Array>
                    </mxGeometry>
                </mxCell>
                <mxCell id="_S9OMrxWruhUTwB9_WxJ-5" value="&lt;span style=&quot;text-wrap: wrap; background-color: rgb(251, 251, 251);&quot;&gt;Topic4&lt;/span&gt;" style="edgeLabel;html=1;align=center;verticalAlign=middle;resizable=0;points=[];" vertex="1" connectable="0" parent="_S9OMrxWruhUTwB9_WxJ-4">
                    <mxGeometry x="-0.311" y="13" relative="1" as="geometry">
                        <mxPoint x="15" y="-29" as="offset"/>
                    </mxGeometry>
                </mxCell>
                <mxCell id="_S9OMrxWruhUTwB9_WxJ-6" value="" style="curved=1;dashed=1;endArrow=classic;startArrow=classic;html=1;rounded=0;exitX=0;exitY=0.5;exitDx=0;exitDy=0;entryX=0.5;entryY=1;entryDx=0;entryDy=0;" edge="1" parent="1" source="eNayDkjzfB7X34AkoGqf-3" target="eNayDkjzfB7X34AkoGqf-1">
                    <mxGeometry width="50" height="50" relative="1" as="geometry">
                        <mxPoint x="-280" y="-335" as="sourcePoint"/>
                        <mxPoint x="-540" y="-335" as="targetPoint"/>
                        <Array as="points"/>
                    </mxGeometry>
                </mxCell>
                <mxCell id="_S9OMrxWruhUTwB9_WxJ-7" value="&lt;span style=&quot;text-wrap: wrap; background-color: rgb(251, 251, 251);&quot;&gt;Topic3&lt;/span&gt;" style="edgeLabel;html=1;align=center;verticalAlign=middle;resizable=0;points=[];" vertex="1" connectable="0" parent="_S9OMrxWruhUTwB9_WxJ-6">
                    <mxGeometry x="-0.311" y="13" relative="1" as="geometry">
                        <mxPoint x="-38" y="-19" as="offset"/>
                    </mxGeometry>
                </mxCell>
                <mxCell id="_S9OMrxWruhUTwB9_WxJ-9" value="" style="curved=1;dashed=1;endArrow=classic;startArrow=classic;html=1;rounded=0;entryX=0.5;entryY=1;entryDx=0;entryDy=0;exitX=0.5;exitY=0;exitDx=0;exitDy=0;" edge="1" parent="1" source="eNayDkjzfB7X34AkoGqf-3" target="eNayDkjzfB7X34AkoGqf-2">
                    <mxGeometry width="50" height="50" relative="1" as="geometry">
                        <mxPoint x="-150" y="-240" as="sourcePoint"/>
                        <mxPoint x="-540" y="-335" as="targetPoint"/>
                        <Array as="points"/>
                    </mxGeometry>
                </mxCell>
                <mxCell id="_S9OMrxWruhUTwB9_WxJ-10" value="&lt;span style=&quot;text-wrap: wrap; background-color: rgb(251, 251, 251);&quot;&gt;Topic3&lt;/span&gt;" style="edgeLabel;html=1;align=center;verticalAlign=middle;resizable=0;points=[];" vertex="1" connectable="0" parent="_S9OMrxWruhUTwB9_WxJ-9">
                    <mxGeometry x="-0.311" y="13" relative="1" as="geometry">
                        <mxPoint x="13" y="-19" as="offset"/>
                    </mxGeometry>
                </mxCell>
                <mxCell id="_S9OMrxWruhUTwB9_WxJ-11" value="" style="curved=1;dashed=1;endArrow=classic;startArrow=classic;html=1;rounded=0;entryX=1;entryY=1;entryDx=0;entryDy=0;exitX=1;exitY=0;exitDx=0;exitDy=0;" edge="1" parent="1" source="eNayDkjzfB7X34AkoGqf-3" target="eNayDkjzfB7X34AkoGqf-2">
                    <mxGeometry width="50" height="50" relative="1" as="geometry">
                        <mxPoint x="-135" y="-220" as="sourcePoint"/>
                        <mxPoint x="-135" y="-320" as="targetPoint"/>
                        <Array as="points"/>
                    </mxGeometry>
                </mxCell>
                <mxCell id="_S9OMrxWruhUTwB9_WxJ-12" value="&lt;span style=&quot;text-wrap: wrap; background-color: rgb(251, 251, 251);&quot;&gt;Topic2&lt;/span&gt;" style="edgeLabel;html=1;align=center;verticalAlign=middle;resizable=0;points=[];" vertex="1" connectable="0" parent="_S9OMrxWruhUTwB9_WxJ-11">
                    <mxGeometry x="-0.311" y="13" relative="1" as="geometry">
                        <mxPoint x="5" y="-19" as="offset"/>
                    </mxGeometry>
                </mxCell>
                <mxCell id="_S9OMrxWruhUTwB9_WxJ-15" value="" style="curved=1;dashed=1;endArrow=classic;startArrow=classic;html=1;rounded=0;exitX=0.123;exitY=0.187;exitDx=0;exitDy=0;entryX=1;entryY=0;entryDx=0;entryDy=0;exitPerimeter=0;" edge="1" parent="1" source="eNayDkjzfB7X34AkoGqf-2" target="eNayDkjzfB7X34AkoGqf-1">
                    <mxGeometry width="50" height="50" relative="1" as="geometry">
                        <mxPoint x="-280" y="-335" as="sourcePoint"/>
                        <mxPoint x="-540" y="-335" as="targetPoint"/>
                        <Array as="points">
                            <mxPoint x="-410" y="-420"/>
                        </Array>
                    </mxGeometry>
                </mxCell>
                <mxCell id="_S9OMrxWruhUTwB9_WxJ-16" value="&lt;div&gt;&lt;span style=&quot;text-wrap: wrap; background-color: rgb(251, 251, 251);&quot;&gt;Topic1&lt;/span&gt;&lt;br&gt;&lt;/div&gt;" style="edgeLabel;html=1;align=center;verticalAlign=middle;resizable=0;points=[];" vertex="1" connectable="0" parent="_S9OMrxWruhUTwB9_WxJ-15">
                    <mxGeometry x="-0.311" y="13" relative="1" as="geometry">
                        <mxPoint x="-38" as="offset"/>
                    </mxGeometry>
                </mxCell>
                <mxCell id="_S9OMrxWruhUTwB9_WxJ-17" value="" style="curved=1;dashed=1;endArrow=classic;startArrow=classic;html=1;rounded=0;exitX=0;exitY=0;exitDx=0;exitDy=0;entryX=1;entryY=1;entryDx=0;entryDy=0;" edge="1" parent="1" source="eNayDkjzfB7X34AkoGqf-3" target="eNayDkjzfB7X34AkoGqf-1">
                    <mxGeometry width="50" height="50" relative="1" as="geometry">
                        <mxPoint x="-244" y="-344" as="sourcePoint"/>
                        <mxPoint x="-582" y="-346" as="targetPoint"/>
                        <Array as="points">
                            <mxPoint x="-430" y="-320"/>
                        </Array>
                    </mxGeometry>
                </mxCell>
                <mxCell id="_S9OMrxWruhUTwB9_WxJ-18" value="&lt;div&gt;&lt;span style=&quot;text-wrap: wrap; background-color: rgb(251, 251, 251);&quot;&gt;Topic1&lt;/span&gt;&lt;br&gt;&lt;/div&gt;" style="edgeLabel;html=1;align=center;verticalAlign=middle;resizable=0;points=[];" vertex="1" connectable="0" parent="_S9OMrxWruhUTwB9_WxJ-17">
                    <mxGeometry x="-0.311" y="13" relative="1" as="geometry">
                        <mxPoint x="-38" y="-19" as="offset"/>
                    </mxGeometry>
                </mxCell>
                <mxCell id="_S9OMrxWruhUTwB9_WxJ-19" value="" style="curved=1;dashed=1;endArrow=classic;startArrow=classic;html=1;rounded=0;entryX=1;entryY=1;entryDx=0;entryDy=0;exitX=0.5;exitY=0;exitDx=0;exitDy=0;" edge="1" parent="1" source="eNayDkjzfB7X34AkoGqf-4" target="eNayDkjzfB7X34AkoGqf-1">
                    <mxGeometry width="50" height="50" relative="1" as="geometry">
                        <mxPoint x="-390" y="-130" as="sourcePoint"/>
                        <mxPoint x="-582" y="-324" as="targetPoint"/>
                        <Array as="points">
                            <mxPoint x="-420" y="-310"/>
                        </Array>
                    </mxGeometry>
                </mxCell>
                <mxCell id="_S9OMrxWruhUTwB9_WxJ-20" value="&lt;div&gt;&lt;span style=&quot;text-wrap: wrap; background-color: rgb(251, 251, 251);&quot;&gt;Topic1&lt;/span&gt;&lt;br&gt;&lt;/div&gt;" style="edgeLabel;html=1;align=center;verticalAlign=middle;resizable=0;points=[];" vertex="1" connectable="0" parent="_S9OMrxWruhUTwB9_WxJ-19">
                    <mxGeometry x="-0.311" y="13" relative="1" as="geometry">
                        <mxPoint x="-8" y="23" as="offset"/>
                    </mxGeometry>
                </mxCell>
                <mxCell id="IqMIjXego-HKSAkxlLVT-1" value="" style="curved=1;dashed=1;endArrow=classic;startArrow=classic;html=1;rounded=0;exitX=0;exitY=0.5;exitDx=0;exitDy=0;entryX=1;entryY=0;entryDx=0;entryDy=0;" edge="1" parent="1" source="eNayDkjzfB7X34AkoGqf-3" target="eNayDkjzfB7X34AkoGqf-4">
                    <mxGeometry width="50" height="50" relative="1" as="geometry">
                        <mxPoint x="-280" y="-205" as="sourcePoint"/>
                        <mxPoint x="-685" y="-320" as="targetPoint"/>
                        <Array as="points">
                            <mxPoint x="-430" y="-210"/>
                        </Array>
                    </mxGeometry>
                </mxCell>
                <mxCell id="IqMIjXego-HKSAkxlLVT-2" value="&lt;span style=&quot;text-wrap: wrap; background-color: rgb(251, 251, 251);&quot;&gt;Topic3&lt;/span&gt;" style="edgeLabel;html=1;align=center;verticalAlign=middle;resizable=0;points=[];" vertex="1" connectable="0" parent="IqMIjXego-HKSAkxlLVT-1">
                    <mxGeometry x="-0.311" y="13" relative="1" as="geometry">
                        <mxPoint x="-38" y="-19" as="offset"/>
                    </mxGeometry>
                </mxCell>
                <mxCell id="IqMIjXego-HKSAkxlLVT-3" value="" style="curved=1;dashed=1;endArrow=classic;startArrow=classic;html=1;rounded=0;exitX=0.5;exitY=1;exitDx=0;exitDy=0;entryX=1;entryY=0.5;entryDx=0;entryDy=0;" edge="1" parent="1" source="eNayDkjzfB7X34AkoGqf-2" target="eNayDkjzfB7X34AkoGqf-4">
                    <mxGeometry width="50" height="50" relative="1" as="geometry">
                        <mxPoint x="-280" y="-205" as="sourcePoint"/>
                        <mxPoint x="-402" y="-56" as="targetPoint"/>
                        <Array as="points">
                            <mxPoint x="-140" y="-110"/>
                        </Array>
                    </mxGeometry>
                </mxCell>
                <mxCell id="IqMIjXego-HKSAkxlLVT-4" value="&lt;span style=&quot;text-wrap: wrap; background-color: rgb(251, 251, 251);&quot;&gt;Topic3&lt;/span&gt;" style="edgeLabel;html=1;align=center;verticalAlign=middle;resizable=0;points=[];" vertex="1" connectable="0" parent="IqMIjXego-HKSAkxlLVT-3">
                    <mxGeometry x="-0.311" y="13" relative="1" as="geometry">
                        <mxPoint x="-38" y="-19" as="offset"/>
                    </mxGeometry>
                </mxCell>
            </root>
        </mxGraphModel>
    </diagram>
    <diagram id="WPOcg-yK-6j90_BMUFuU" name="EndEffectorノード">
        <mxGraphModel dx="2414" dy="1187" grid="1" gridSize="10" guides="1" tooltips="1" connect="1" arrows="1" fold="1" page="1" pageScale="1" pageWidth="850" pageHeight="1100" math="0" shadow="0">
            <root>
                <mxCell id="0"/>
                <mxCell id="1" parent="0"/>
                <mxCell id="Bl7mpPcaefEMaTImUry0-1" value="limb_n_1/joint_node" style="ellipse;whiteSpace=wrap;html=1;" parent="1" vertex="1">
                    <mxGeometry x="550" y="140" width="200" height="30" as="geometry"/>
                </mxCell>
                <mxCell id="Bl7mpPcaefEMaTImUry0-2" value="limb_n_1/dymixel_handler" style="ellipse;whiteSpace=wrap;html=1;" parent="1" vertex="1">
                    <mxGeometry x="1010" y="190" width="180" height="30" as="geometry"/>
                </mxCell>
                <mxCell id="Bl7mpPcaefEMaTImUry0-3" value="limb_n_1/multi_func_ee_node" style="ellipse;whiteSpace=wrap;html=1;" parent="1" vertex="1">
                    <mxGeometry x="519.96" y="440" width="290" height="30" as="geometry"/>
                </mxCell>
                <mxCell id="Bl7mpPcaefEMaTImUry0-4" value="" style="curved=1;endArrow=classic;html=1;rounded=0;entryX=1;entryY=0.5;entryDx=0;entryDy=0;exitX=0;exitY=1;exitDx=0;exitDy=0;" parent="1" source="Bl7mpPcaefEMaTImUry0-2" target="Bl7mpPcaefEMaTImUry0-3" edge="1">
                    <mxGeometry width="50" height="50" relative="1" as="geometry">
                        <mxPoint x="1316" y="144" as="sourcePoint"/>
                        <mxPoint x="740" y="-195" as="targetPoint"/>
                        <Array as="points">
                            <mxPoint x="890" y="310"/>
                        </Array>
                    </mxGeometry>
                </mxCell>
                <mxCell id="KAVinUnFSaxFguxcnXGK-1" value="色々" style="edgeLabel;html=1;align=center;verticalAlign=middle;resizable=0;points=[];" parent="Bl7mpPcaefEMaTImUry0-4" vertex="1" connectable="0">
                    <mxGeometry x="0.031" y="4" relative="1" as="geometry">
                        <mxPoint as="offset"/>
                    </mxGeometry>
                </mxCell>
                <mxCell id="Bl7mpPcaefEMaTImUry0-5" value="" style="curved=1;endArrow=classic;html=1;rounded=0;exitX=0;exitY=0.5;exitDx=0;exitDy=0;entryX=1;entryY=0.5;entryDx=0;entryDy=0;" parent="1" source="Bl7mpPcaefEMaTImUry0-2" target="Bl7mpPcaefEMaTImUry0-1" edge="1">
                    <mxGeometry width="50" height="50" relative="1" as="geometry">
                        <mxPoint x="1110" y="230" as="sourcePoint"/>
                        <mxPoint x="880" y="200" as="targetPoint"/>
                        <Array as="points">
                            <mxPoint x="900" y="140"/>
                        </Array>
                    </mxGeometry>
                </mxCell>
                <mxCell id="-_aEd1ldWaMa6RGzcFi7-1" value="結合機構AとBがあるのでどれと結合してかを区別すること&lt;div&gt;DynamixelモーターのIDは2‐9、11‐28は使用われているのは、使えない&lt;/div&gt;" style="text;html=1;align=center;verticalAlign=middle;resizable=0;points=[];autosize=1;strokeColor=none;fillColor=none;" parent="1" vertex="1">
                    <mxGeometry x="460.00000000000006" y="390" width="400" height="40" as="geometry"/>
                </mxCell>
                <mxCell id="YkgA300HTffIB37M8Yo1-1" value="" style="curved=1;endArrow=classic;html=1;rounded=0;exitX=0.5;exitY=0;exitDx=0;exitDy=0;entryX=0.5;entryY=1;entryDx=0;entryDy=0;" parent="1" source="Bl7mpPcaefEMaTImUry0-3" target="Bl7mpPcaefEMaTImUry0-1" edge="1">
                    <mxGeometry width="50" height="50" relative="1" as="geometry">
                        <mxPoint x="1020" y="215" as="sourcePoint"/>
                        <mxPoint x="760" y="165" as="targetPoint"/>
                        <Array as="points">
                            <mxPoint x="510" y="310"/>
                        </Array>
                    </mxGeometry>
                </mxCell>
                <mxCell id="zZLeNTVZ5oOOnmKPe6of-2" value="&lt;span style=&quot;text-wrap: wrap; background-color: rgb(251, 251, 251);&quot;&gt;limb_n_1&lt;/span&gt;/joint/in/joint_cmd_list&lt;br&gt;ms_module_msgs/msg/JointCmdList" style="edgeLabel;html=1;align=center;verticalAlign=middle;resizable=0;points=[];" parent="YkgA300HTffIB37M8Yo1-1" vertex="1" connectable="0">
                    <mxGeometry x="-0.0646" y="1" relative="1" as="geometry">
                        <mxPoint as="offset"/>
                    </mxGeometry>
                </mxCell>
                <mxCell id="zZLeNTVZ5oOOnmKPe6of-3" value="" style="curved=1;endArrow=classic;html=1;rounded=0;exitX=1;exitY=0.5;exitDx=0;exitDy=0;entryX=0;entryY=0.5;entryDx=0;entryDy=0;" parent="1" source="Bl7mpPcaefEMaTImUry0-1" target="Bl7mpPcaefEMaTImUry0-2" edge="1">
                    <mxGeometry width="50" height="50" relative="1" as="geometry">
                        <mxPoint x="1020" y="215" as="sourcePoint"/>
                        <mxPoint x="1030" y="140" as="targetPoint"/>
                        <Array as="points">
                            <mxPoint x="900" y="220"/>
                        </Array>
                    </mxGeometry>
                </mxCell>
                <mxCell id="KAVinUnFSaxFguxcnXGK-2" value="" style="curved=1;endArrow=classic;html=1;rounded=0;entryX=0;entryY=1;entryDx=0;entryDy=0;exitX=1;exitY=0.5;exitDx=0;exitDy=0;" parent="1" source="Bl7mpPcaefEMaTImUry0-3" target="Bl7mpPcaefEMaTImUry0-2" edge="1">
                    <mxGeometry width="50" height="50" relative="1" as="geometry">
                        <mxPoint x="1136" y="320" as="sourcePoint"/>
                        <mxPoint x="910" y="559" as="targetPoint"/>
                        <Array as="points">
                            <mxPoint x="1000" y="400"/>
                        </Array>
                    </mxGeometry>
                </mxCell>
                <mxCell id="KAVinUnFSaxFguxcnXGK-3" value="色々" style="edgeLabel;html=1;align=center;verticalAlign=middle;resizable=0;points=[];" parent="KAVinUnFSaxFguxcnXGK-2" vertex="1" connectable="0">
                    <mxGeometry x="0.031" y="4" relative="1" as="geometry">
                        <mxPoint as="offset"/>
                    </mxGeometry>
                </mxCell>
                <mxCell id="KAVinUnFSaxFguxcnXGK-4" value="" style="curved=1;endArrow=classic;html=1;rounded=0;exitX=0.5;exitY=1;exitDx=0;exitDy=0;entryX=0.5;entryY=0;entryDx=0;entryDy=0;" parent="1" source="Bl7mpPcaefEMaTImUry0-1" target="Bl7mpPcaefEMaTImUry0-3" edge="1">
                    <mxGeometry width="50" height="50" relative="1" as="geometry">
                        <mxPoint x="825" y="440" as="sourcePoint"/>
                        <mxPoint x="810" y="170" as="targetPoint"/>
                        <Array as="points">
                            <mxPoint x="760" y="310"/>
                        </Array>
                    </mxGeometry>
                </mxCell>
                <mxCell id="KAVinUnFSaxFguxcnXGK-5" value="&lt;span style=&quot;text-wrap: wrap; background-color: rgb(251, 251, 251);&quot;&gt;limb_n_1&lt;/span&gt;/joint/out/all_joint_state&lt;div&gt;sensor_msgs/msg/AllJointState&lt;/div&gt;" style="edgeLabel;html=1;align=center;verticalAlign=middle;resizable=0;points=[];" parent="KAVinUnFSaxFguxcnXGK-4" vertex="1" connectable="0">
                    <mxGeometry x="-0.0646" y="1" relative="1" as="geometry">
                        <mxPoint x="-22" y="12" as="offset"/>
                    </mxGeometry>
                </mxCell>
                <mxCell id="RwTJQuKuriImdjc-2ech-1" value="" style="curved=1;dashed=1;endArrow=classic;startArrow=classic;html=1;rounded=0;exitX=0;exitY=0.5;exitDx=0;exitDy=0;entryX=1;entryY=0.5;entryDx=0;entryDy=0;" parent="1" source="Bl7mpPcaefEMaTImUry0-3" edge="1">
                    <mxGeometry width="50" height="50" relative="1" as="geometry">
                        <mxPoint x="470" y="405" as="sourcePoint"/>
                        <mxPoint x="30" y="505" as="targetPoint"/>
                        <Array as="points">
                            <mxPoint x="260" y="510"/>
                        </Array>
                    </mxGeometry>
                </mxCell>
                <mxCell id="RwTJQuKuriImdjc-2ech-2" value="&lt;font style=&quot;font-size: 11px;&quot;&gt;&lt;span style=&quot;text-wrap: wrap; background-color: rgb(251, 251, 251);&quot;&gt;limb_n_1&lt;/span&gt;/&lt;span style=&quot;text-wrap: wrap; background-color: rgb(251, 251, 251);&quot;&gt;multi_func_ee&lt;/span&gt;/in/set_&lt;span style=&quot;text-wrap: wrap; background-color: rgb(251, 251, 251);&quot;&gt;multi_func_ee&lt;/span&gt;_cmd_list&lt;/font&gt;&lt;div&gt;&lt;font style=&quot;font-size: 11px;&quot;&gt;ms_module_msgs/srv/Set&lt;span style=&quot;background-color: rgb(251, 251, 251); text-align: left; text-wrap: wrap;&quot;&gt;MultiFuncEndEffector&lt;/span&gt;CmdList&lt;/font&gt;&lt;/div&gt;" style="edgeLabel;html=1;align=center;verticalAlign=middle;resizable=0;points=[];" parent="RwTJQuKuriImdjc-2ech-1" vertex="1" connectable="0">
                    <mxGeometry x="-0.311" y="13" relative="1" as="geometry">
                        <mxPoint x="-33" y="-11" as="offset"/>
                    </mxGeometry>
                </mxCell>
                <mxCell id="RwTJQuKuriImdjc-2ech-6" value="" style="curved=1;endArrow=classic;html=1;rounded=0;entryX=0;entryY=1;entryDx=0;entryDy=0;" parent="1" target="Bl7mpPcaefEMaTImUry0-3" edge="1">
                    <mxGeometry width="50" height="50" relative="1" as="geometry">
                        <mxPoint x="20" y="580" as="sourcePoint"/>
                        <mxPoint x="560" y="460" as="targetPoint"/>
                        <Array as="points">
                            <mxPoint x="370" y="570"/>
                        </Array>
                    </mxGeometry>
                </mxCell>
                <mxCell id="RwTJQuKuriImdjc-2ech-7" value="&lt;span style=&quot;text-wrap: wrap; background-color: rgb(251, 251, 251);&quot;&gt;limb_n_1&lt;/span&gt;/&lt;span style=&quot;text-wrap: wrap; background-color: rgb(251, 251, 251);&quot;&gt;multi_func_ee&lt;/span&gt;/in/&lt;span style=&quot;text-wrap: wrap; background-color: rgb(251, 251, 251);&quot;&gt;multi_func_ee&lt;/span&gt;_cmd&lt;div&gt;ms_module_msgs/srv/&lt;span style=&quot;background-color: rgb(251, 251, 251); text-align: left; text-wrap: wrap;&quot;&gt;MultiFuncEndEffector&lt;/span&gt;Cmd&lt;/div&gt;" style="edgeLabel;html=1;align=center;verticalAlign=middle;resizable=0;points=[];" parent="RwTJQuKuriImdjc-2ech-6" vertex="1" connectable="0">
                    <mxGeometry x="0.031" y="4" relative="1" as="geometry">
                        <mxPoint as="offset"/>
                    </mxGeometry>
                </mxCell>
                <mxCell id="RwTJQuKuriImdjc-2ech-8" value="ROSサービスは確実に通信できる&lt;div&gt;&lt;div&gt;ROSトッピングはデータ消失の可能性がある&lt;/div&gt;&lt;/div&gt;" style="text;html=1;align=center;verticalAlign=middle;resizable=0;points=[];autosize=1;strokeColor=none;fillColor=none;" parent="1" vertex="1">
                    <mxGeometry x="175" y="429.99999999999994" width="270" height="40" as="geometry"/>
                </mxCell>
                <mxCell id="dzGdwpJEVF2G7yMawXQC-1" value="" style="curved=1;endArrow=classic;html=1;rounded=0;entryX=0;entryY=0;entryDx=0;entryDy=0;" parent="1" target="Bl7mpPcaefEMaTImUry0-3" edge="1">
                    <mxGeometry width="50" height="50" relative="1" as="geometry">
                        <mxPoint x="-70" y="330" as="sourcePoint"/>
                        <mxPoint x="551" y="14" as="targetPoint"/>
                        <Array as="points">
                            <mxPoint x="160" y="370"/>
                        </Array>
                    </mxGeometry>
                </mxCell>
                <mxCell id="dzGdwpJEVF2G7yMawXQC-2" value="&lt;font style=&quot;font-size: 11px;&quot;&gt;&lt;span style=&quot;text-wrap: wrap; background-color: rgb(251, 251, 251);&quot;&gt;limb_n_1&lt;/span&gt;/who_is_my_leader&lt;/font&gt;&lt;div&gt;ms_module_msgs/msg/LeaderName&lt;br&gt;&lt;/div&gt;" style="edgeLabel;html=1;align=center;verticalAlign=middle;resizable=0;points=[];" parent="dzGdwpJEVF2G7yMawXQC-1" vertex="1" connectable="0">
                    <mxGeometry x="-0.0796" relative="1" as="geometry">
                        <mxPoint x="412" y="-23" as="offset"/>
                    </mxGeometry>
                </mxCell>
                <mxCell id="Xl5vDMmMlWVHyWkliycf-1" value="&lt;span style=&quot;text-wrap: wrap; background-color: rgb(251, 251, 251);&quot;&gt;limb_n_1&lt;/span&gt;/who_is_my_leader&lt;div&gt;ms_module_msgs/msg/LeaderName&lt;/div&gt;" style="edgeLabel;html=1;align=center;verticalAlign=middle;resizable=0;points=[];" parent="dzGdwpJEVF2G7yMawXQC-1" vertex="1" connectable="0">
                    <mxGeometry x="-0.1027" y="-3" relative="1" as="geometry">
                        <mxPoint as="offset"/>
                    </mxGeometry>
                </mxCell>
                <mxCell id="Xl5vDMmMlWVHyWkliycf-2" value="" style="curved=1;dashed=1;endArrow=classic;startArrow=classic;html=1;rounded=0;entryX=1;entryY=0.5;entryDx=0;entryDy=0;exitX=0.5;exitY=1;exitDx=0;exitDy=0;" parent="1" source="Bl7mpPcaefEMaTImUry0-3" edge="1">
                    <mxGeometry width="50" height="50" relative="1" as="geometry">
                        <mxPoint x="660" y="650" as="sourcePoint"/>
                        <mxPoint x="175" y="700" as="targetPoint"/>
                        <Array as="points">
                            <mxPoint x="405" y="705"/>
                        </Array>
                    </mxGeometry>
                </mxCell>
                <mxCell id="Xl5vDMmMlWVHyWkliycf-3" value="&lt;font style=&quot;font-size: 11px;&quot;&gt;&lt;span style=&quot;text-wrap: wrap; background-color: rgb(251, 251, 251);&quot;&gt;limb_n_1&lt;/span&gt;/&lt;span style=&quot;text-wrap: wrap; background-color: rgb(251, 251, 251);&quot;&gt;multi_func_ee&lt;/span&gt;/out/get_all_&lt;span style=&quot;text-wrap: wrap; background-color: rgb(251, 251, 251);&quot;&gt;multi_func_ee&lt;/span&gt;_state&lt;/font&gt;&lt;div&gt;&lt;font style=&quot;font-size: 11px;&quot;&gt;&lt;font style=&quot;&quot;&gt;ms_module_msgs/srv/&lt;/font&gt;GetAll&lt;span style=&quot;text-wrap: wrap; text-align: left; background-color: rgb(251, 251, 251);&quot;&gt;MultiFuncEndEffector&lt;/span&gt;State&lt;/font&gt;&lt;/div&gt;" style="edgeLabel;html=1;align=center;verticalAlign=middle;resizable=0;points=[];" parent="Xl5vDMmMlWVHyWkliycf-2" vertex="1" connectable="0">
                    <mxGeometry x="-0.311" y="13" relative="1" as="geometry">
                        <mxPoint x="-33" y="-11" as="offset"/>
                    </mxGeometry>
                </mxCell>
            </root>
        </mxGraphModel>
    </diagram>
</mxfile>